<svg xmlns="http://www.w3.org/2000/svg" viewBox="0 0 1122 1134" width="1122" height="1134">
  <line x1="486.7" y1="30.9" x2="596.1" y2="30.9" stroke="#333" stroke-width="2.8" class="wall"/>
  <line x1="304.3" y1="77.1" x2="368.9" y2="77.1" stroke="#333" stroke-width="2.8" class="wall"/>
  <line x1="441.8" y1="77.1" x2="483.9" y2="77.1" stroke="#333" stroke-width="2.8" class="wall"/>
  <line x1="558.2" y1="77.1" x2="597.5" y2="77.1" stroke="#333" stroke-width="2.8" class="wall"/>
  <line x1="598.9" y1="77.1" x2="652.2" y2="77.1" stroke="#333" stroke-width="2.8" class="wall"/>
  <line x1="220.2" y1="78.5" x2="525.9" y2="78.5" stroke="#333" stroke-width="2.8" class="wall"/>
  <line x1="556.8" y1="78.5" x2="655.0" y2="78.5" stroke="#333" stroke-width="2.8" class="wall"/>
  <line x1="220.2" y1="79.9" x2="527.3" y2="79.9" stroke="#333" stroke-width="2.8" class="wall"/>
  <line x1="555.4" y1="79.9" x2="655.0" y2="79.9" stroke="#333" stroke-width="2.8" class="wall"/>
  <line x1="225.8" y1="81.3" x2="527.3" y2="81.3" stroke="#333" stroke-width="2.8" class="wall"/>
  <line x1="555.4" y1="81.3" x2="650.8" y2="81.3" stroke="#333" stroke-width="2.8" class="wall"/>
  <line x1="225.8" y1="82.7" x2="527.3" y2="82.7" stroke="#333" stroke-width="2.8" class="wall"/>
  <line x1="556.8" y1="82.7" x2="650.8" y2="82.7" stroke="#333" stroke-width="2.8" class="wall"/>
  <line x1="218.8" y1="84.2" x2="527.3" y2="84.2" stroke="#333" stroke-width="2.8" class="wall"/>
  <line x1="555.4" y1="84.2" x2="652.2" y2="84.2" stroke="#333" stroke-width="2.8" class="wall"/>
  <line x1="270.7" y1="88.4" x2="332.4" y2="88.4" stroke="#333" stroke-width="2.8" class="wall"/>
  <line x1="346.4" y1="88.4" x2="402.5" y2="88.4" stroke="#333" stroke-width="2.8" class="wall"/>
  <line x1="429.2" y1="88.4" x2="525.9" y2="88.4" stroke="#333" stroke-width="2.8" class="wall"/>
  <line x1="562.4" y1="88.4" x2="643.7" y2="88.4" stroke="#333" stroke-width="2.8" class="wall"/>
  <line x1="223.0" y1="89.8" x2="525.9" y2="89.8" stroke="#333" stroke-width="2.8" class="wall"/>
  <line x1="556.8" y1="89.8" x2="645.1" y2="89.8" stroke="#333" stroke-width="2.8" class="wall"/>
  <line x1="399.7" y1="155.7" x2="440.4" y2="155.7" stroke="#333" stroke-width="2.8" class="wall"/>
  <line x1="399.7" y1="157.1" x2="440.4" y2="157.1" stroke="#333" stroke-width="2.8" class="wall"/>
  <line x1="399.7" y1="158.5" x2="440.4" y2="158.5" stroke="#333" stroke-width="2.8" class="wall"/>
  <line x1="554.0" y1="187.9" x2="629.7" y2="187.9" stroke="#333" stroke-width="2.8" class="wall"/>
  <line x1="558.2" y1="189.3" x2="629.7" y2="189.3" stroke="#333" stroke-width="2.8" class="wall"/>
  <line x1="558.2" y1="190.7" x2="629.7" y2="190.7" stroke="#333" stroke-width="2.8" class="wall"/>
  <line x1="559.6" y1="192.1" x2="653.6" y2="192.1" stroke="#333" stroke-width="2.8" class="wall"/>
  <line x1="475.4" y1="218.8" x2="521.7" y2="218.8" stroke="#333" stroke-width="2.8" class="wall"/>
  <line x1="587.6" y1="228.6" x2="645.1" y2="228.6" stroke="#333" stroke-width="2.8" class="wall"/>
  <line x1="657.8" y1="248.2" x2="886.4" y2="248.2" stroke="#333" stroke-width="2.8" class="wall"/>
  <line x1="659.2" y1="249.6" x2="770.0" y2="249.6" stroke="#333" stroke-width="2.8" class="wall"/>
  <line x1="771.4" y1="249.6" x2="886.4" y2="249.6" stroke="#333" stroke-width="2.8" class="wall"/>
  <line x1="147.3" y1="253.9" x2="234.2" y2="253.9" stroke="#333" stroke-width="2.8" class="wall"/>
  <line x1="143.1" y1="255.3" x2="234.2" y2="255.3" stroke="#333" stroke-width="2.8" class="wall"/>
  <line x1="270.7" y1="256.7" x2="402.5" y2="256.7" stroke="#333" stroke-width="2.8" class="wall"/>
  <line x1="441.8" y1="256.7" x2="520.3" y2="256.7" stroke="#333" stroke-width="2.8" class="wall"/>
  <line x1="558.2" y1="256.7" x2="645.1" y2="256.7" stroke="#333" stroke-width="2.8" class="wall"/>
  <line x1="101.0" y1="258.1" x2="155.7" y2="258.1" stroke="#333" stroke-width="2.8" class="wall"/>
  <line x1="267.9" y1="258.1" x2="403.9" y2="258.1" stroke="#333" stroke-width="2.8" class="wall"/>
  <line x1="439.0" y1="258.1" x2="521.7" y2="258.1" stroke="#333" stroke-width="2.8" class="wall"/>
  <line x1="558.2" y1="258.1" x2="643.7" y2="258.1" stroke="#333" stroke-width="2.8" class="wall"/>
  <line x1="147.3" y1="259.5" x2="237.0" y2="259.5" stroke="#333" stroke-width="2.8" class="wall"/>
  <line x1="270.7" y1="259.5" x2="347.8" y2="259.5" stroke="#333" stroke-width="2.8" class="wall"/>
  <line x1="148.7" y1="260.9" x2="237.0" y2="260.9" stroke="#333" stroke-width="2.8" class="wall"/>
  <line x1="270.7" y1="260.9" x2="347.8" y2="260.9" stroke="#333" stroke-width="2.8" class="wall"/>
  <line x1="392.7" y1="260.9" x2="448.8" y2="260.9" stroke="#333" stroke-width="2.8" class="wall"/>
  <line x1="350.6" y1="262.3" x2="523.1" y2="262.3" stroke="#333" stroke-width="2.8" class="wall"/>
  <line x1="556.8" y1="262.3" x2="650.8" y2="262.3" stroke="#333" stroke-width="2.8" class="wall"/>
  <line x1="345.0" y1="263.7" x2="405.3" y2="263.7" stroke="#333" stroke-width="2.8" class="wall"/>
  <line x1="437.6" y1="263.7" x2="523.1" y2="263.7" stroke="#333" stroke-width="2.8" class="wall"/>
  <line x1="555.4" y1="263.7" x2="655.0" y2="263.7" stroke="#333" stroke-width="2.8" class="wall"/>
  <line x1="399.7" y1="265.1" x2="448.8" y2="265.1" stroke="#333" stroke-width="2.8" class="wall"/>
  <line x1="511.9" y1="265.1" x2="561.0" y2="265.1" stroke="#333" stroke-width="2.8" class="wall"/>
  <line x1="356.2" y1="266.5" x2="403.9" y2="266.5" stroke="#333" stroke-width="2.8" class="wall"/>
  <line x1="439.0" y1="266.5" x2="521.7" y2="266.5" stroke="#333" stroke-width="2.8" class="wall"/>
  <line x1="558.2" y1="266.5" x2="655.0" y2="266.5" stroke="#333" stroke-width="2.8" class="wall"/>
  <line x1="350.6" y1="267.9" x2="401.1" y2="267.9" stroke="#333" stroke-width="2.8" class="wall"/>
  <line x1="441.8" y1="267.9" x2="482.5" y2="267.9" stroke="#333" stroke-width="2.8" class="wall"/>
  <line x1="559.6" y1="267.9" x2="653.6" y2="267.9" stroke="#333" stroke-width="2.8" class="wall"/>
  <line x1="371.7" y1="288.9" x2="460.0" y2="288.9" stroke="#333" stroke-width="2.8" class="wall"/>
  <line x1="847.1" y1="388.5" x2="886.4" y2="388.5" stroke="#333" stroke-width="2.8" class="wall"/>
  <line x1="847.1" y1="389.9" x2="886.4" y2="389.9" stroke="#333" stroke-width="2.8" class="wall"/>
  <line x1="356.2" y1="406.7" x2="394.1" y2="406.7" stroke="#333" stroke-width="2.8" class="wall"/>
  <line x1="847.1" y1="406.7" x2="887.8" y2="406.7" stroke="#333" stroke-width="2.8" class="wall"/>
  <line x1="356.2" y1="408.1" x2="395.5" y2="408.1" stroke="#333" stroke-width="2.8" class="wall"/>
  <line x1="847.1" y1="408.1" x2="885.0" y2="408.1" stroke="#333" stroke-width="2.8" class="wall"/>
  <line x1="350.6" y1="409.5" x2="389.9" y2="409.5" stroke="#333" stroke-width="2.8" class="wall"/>
  <line x1="350.6" y1="412.3" x2="391.3" y2="412.3" stroke="#333" stroke-width="2.8" class="wall"/>
  <line x1="345.0" y1="417.9" x2="385.7" y2="417.9" stroke="#333" stroke-width="2.8" class="wall"/>
  <line x1="101.0" y1="429.2" x2="311.4" y2="429.2" stroke="#333" stroke-width="2.8" class="wall"/>
  <line x1="108.0" y1="430.6" x2="312.8" y2="430.6" stroke="#333" stroke-width="2.8" class="wall"/>
  <line x1="108.0" y1="432.0" x2="248.2" y2="432.0" stroke="#333" stroke-width="2.8" class="wall"/>
  <line x1="108.0" y1="433.4" x2="248.2" y2="433.4" stroke="#333" stroke-width="2.8" class="wall"/>
  <line x1="847.1" y1="475.4" x2="886.4" y2="475.4" stroke="#333" stroke-width="2.8" class="wall"/>
  <line x1="847.1" y1="476.9" x2="886.4" y2="476.9" stroke="#333" stroke-width="2.8" class="wall"/>
  <line x1="44.9" y1="493.7" x2="659.2" y2="493.7" stroke="#333" stroke-width="2.8" class="wall"/>
  <line x1="847.1" y1="493.7" x2="886.4" y2="493.7" stroke="#333" stroke-width="2.8" class="wall"/>
  <line x1="253.9" y1="495.1" x2="293.1" y2="495.1" stroke="#333" stroke-width="2.8" class="wall"/>
  <line x1="847.1" y1="495.1" x2="886.4" y2="495.1" stroke="#333" stroke-width="2.8" class="wall"/>
  <line x1="253.9" y1="497.9" x2="295.9" y2="497.9" stroke="#333" stroke-width="2.8" class="wall"/>
  <line x1="771.4" y1="525.9" x2="882.2" y2="525.9" stroke="#333" stroke-width="2.8" class="wall"/>
  <line x1="101.0" y1="541.4" x2="143.1" y2="541.4" stroke="#333" stroke-width="2.8" class="wall"/>
  <line x1="210.4" y1="541.4" x2="246.8" y2="541.4" stroke="#333" stroke-width="2.8" class="wall"/>
  <line x1="346.4" y1="541.4" x2="385.7" y2="541.4" stroke="#333" stroke-width="2.8" class="wall"/>
  <line x1="659.2" y1="541.4" x2="1122.0" y2="541.4" stroke="#333" stroke-width="2.8" class="wall"/>
  <line x1="210.4" y1="544.2" x2="253.9" y2="544.2" stroke="#333" stroke-width="2.8" class="wall"/>
  <line x1="350.6" y1="547.0" x2="391.3" y2="547.0" stroke="#333" stroke-width="2.8" class="wall"/>
  <line x1="350.6" y1="548.4" x2="391.3" y2="548.4" stroke="#333" stroke-width="2.8" class="wall"/>
  <line x1="345.0" y1="551.2" x2="395.5" y2="551.2" stroke="#333" stroke-width="2.8" class="wall"/>
  <line x1="256.7" y1="596.1" x2="310.0" y2="596.1" stroke="#333" stroke-width="2.8" class="wall"/>
  <line x1="265.1" y1="659.2" x2="1122.0" y2="659.2" stroke="#333" stroke-width="2.8" class="wall"/>
  <line x1="392.7" y1="692.8" x2="514.7" y2="692.8" stroke="#333" stroke-width="2.8" class="wall"/>
  <line x1="551.2" y1="692.8" x2="622.7" y2="692.8" stroke="#333" stroke-width="2.8" class="wall"/>
  <line x1="793.8" y1="692.8" x2="966.3" y2="692.8" stroke="#333" stroke-width="2.8" class="wall"/>
  <line x1="391.3" y1="694.2" x2="517.5" y2="694.2" stroke="#333" stroke-width="2.8" class="wall"/>
  <line x1="549.8" y1="694.2" x2="622.7" y2="694.2" stroke="#333" stroke-width="2.8" class="wall"/>
  <line x1="792.4" y1="694.2" x2="967.7" y2="694.2" stroke="#333" stroke-width="2.8" class="wall"/>
  <line x1="350.6" y1="695.6" x2="520.3" y2="695.6" stroke="#333" stroke-width="2.8" class="wall"/>
  <line x1="549.8" y1="695.6" x2="618.5" y2="695.6" stroke="#333" stroke-width="2.8" class="wall"/>
  <line x1="792.4" y1="695.6" x2="962.1" y2="695.6" stroke="#333" stroke-width="2.8" class="wall"/>
  <line x1="387.1" y1="697.0" x2="516.1" y2="697.0" stroke="#333" stroke-width="2.8" class="wall"/>
  <line x1="549.8" y1="697.0" x2="618.5" y2="697.0" stroke="#333" stroke-width="2.8" class="wall"/>
  <line x1="796.6" y1="697.0" x2="962.1" y2="697.0" stroke="#333" stroke-width="2.8" class="wall"/>
  <line x1="387.1" y1="698.4" x2="528.7" y2="698.4" stroke="#333" stroke-width="2.8" class="wall"/>
  <line x1="538.6" y1="698.4" x2="725.1" y2="698.4" stroke="#333" stroke-width="2.8" class="wall"/>
  <line x1="767.2" y1="698.4" x2="963.5" y2="698.4" stroke="#333" stroke-width="2.8" class="wall"/>
  <line x1="614.3" y1="699.8" x2="725.1" y2="699.8" stroke="#333" stroke-width="2.8" class="wall"/>
  <line x1="621.3" y1="702.7" x2="725.1" y2="702.7" stroke="#333" stroke-width="2.8" class="wall"/>
  <line x1="392.7" y1="704.1" x2="516.1" y2="704.1" stroke="#333" stroke-width="2.8" class="wall"/>
  <line x1="548.4" y1="704.1" x2="612.9" y2="704.1" stroke="#333" stroke-width="2.8" class="wall"/>
  <line x1="615.7" y1="704.1" x2="725.1" y2="704.1" stroke="#333" stroke-width="2.8" class="wall"/>
  <line x1="802.2" y1="704.1" x2="967.7" y2="704.1" stroke="#333" stroke-width="2.8" class="wall"/>
  <line x1="394.1" y1="705.5" x2="516.1" y2="705.5" stroke="#333" stroke-width="2.8" class="wall"/>
  <line x1="677.4" y1="705.5" x2="729.3" y2="705.5" stroke="#333" stroke-width="2.8" class="wall"/>
  <line x1="871.0" y1="761.6" x2="932.7" y2="761.6" stroke="#333" stroke-width="2.8" class="wall"/>
  <line x1="875.2" y1="763.0" x2="921.4" y2="763.0" stroke="#333" stroke-width="2.8" class="wall"/>
  <line x1="873.8" y1="764.4" x2="922.8" y2="764.4" stroke="#333" stroke-width="2.8" class="wall"/>
  <line x1="835.9" y1="791.0" x2="883.6" y2="791.0" stroke="#333" stroke-width="2.8" class="wall"/>
  <line x1="206.2" y1="823.3" x2="262.3" y2="823.3" stroke="#333" stroke-width="2.8" class="wall"/>
  <line x1="206.2" y1="824.7" x2="249.6" y2="824.7" stroke="#333" stroke-width="2.8" class="wall"/>
  <line x1="206.2" y1="826.1" x2="249.6" y2="826.1" stroke="#333" stroke-width="2.8" class="wall"/>
  <line x1="192.1" y1="827.5" x2="263.7" y2="827.5" stroke="#333" stroke-width="2.8" class="wall"/>
  <line x1="147.3" y1="828.9" x2="302.9" y2="828.9" stroke="#333" stroke-width="2.8" class="wall"/>
  <line x1="101.0" y1="830.3" x2="179.5" y2="830.3" stroke="#333" stroke-width="2.8" class="wall"/>
  <line x1="197.8" y1="830.3" x2="251.0" y2="830.3" stroke="#333" stroke-width="2.8" class="wall"/>
  <line x1="143.1" y1="833.1" x2="200.6" y2="833.1" stroke="#333" stroke-width="2.8" class="wall"/>
  <line x1="202.0" y1="833.1" x2="253.9" y2="833.1" stroke="#333" stroke-width="2.8" class="wall"/>
  <line x1="256.7" y1="833.1" x2="302.9" y2="833.1" stroke="#333" stroke-width="2.8" class="wall"/>
  <line x1="141.7" y1="834.5" x2="199.2" y2="834.5" stroke="#333" stroke-width="2.8" class="wall"/>
  <line x1="200.6" y1="834.5" x2="302.9" y2="834.5" stroke="#333" stroke-width="2.8" class="wall"/>
  <line x1="336.6" y1="834.5" x2="373.1" y2="834.5" stroke="#333" stroke-width="2.8" class="wall"/>
  <line x1="549.8" y1="835.9" x2="612.9" y2="835.9" stroke="#333" stroke-width="2.8" class="wall"/>
  <line x1="549.8" y1="837.3" x2="612.9" y2="837.3" stroke="#333" stroke-width="2.8" class="wall"/>
  <line x1="192.1" y1="863.9" x2="262.3" y2="863.9" stroke="#333" stroke-width="2.8" class="wall"/>
  <line x1="549.8" y1="917.2" x2="586.2" y2="917.2" stroke="#333" stroke-width="2.8" class="wall"/>
  <line x1="374.5" y1="918.6" x2="552.6" y2="918.6" stroke="#333" stroke-width="2.8" class="wall"/>
  <line x1="517.5" y1="941.1" x2="559.6" y2="941.1" stroke="#333" stroke-width="2.8" class="wall"/>
  <line x1="677.4" y1="941.1" x2="729.3" y2="941.1" stroke="#333" stroke-width="2.8" class="wall"/>
  <line x1="336.6" y1="942.5" x2="624.1" y2="942.5" stroke="#333" stroke-width="2.8" class="wall"/>
  <line x1="677.4" y1="942.5" x2="726.5" y2="942.5" stroke="#333" stroke-width="2.8" class="wall"/>
  <line x1="796.6" y1="942.5" x2="915.8" y2="942.5" stroke="#333" stroke-width="2.8" class="wall"/>
  <line x1="102.4" y1="943.9" x2="166.9" y2="943.9" stroke="#333" stroke-width="2.8" class="wall"/>
  <line x1="608.7" y1="943.9" x2="726.5" y2="943.9" stroke="#333" stroke-width="2.8" class="wall"/>
  <line x1="610.1" y1="945.3" x2="726.5" y2="945.3" stroke="#333" stroke-width="2.8" class="wall"/>
  <line x1="342.2" y1="946.7" x2="401.1" y2="946.7" stroke="#333" stroke-width="2.8" class="wall"/>
  <line x1="610.1" y1="946.7" x2="726.5" y2="946.7" stroke="#333" stroke-width="2.8" class="wall"/>
  <line x1="908.8" y1="946.7" x2="963.5" y2="946.7" stroke="#333" stroke-width="2.8" class="wall"/>
  <line x1="382.9" y1="948.1" x2="726.5" y2="948.1" stroke="#333" stroke-width="2.8" class="wall"/>
  <line x1="796.6" y1="948.1" x2="920.0" y2="948.1" stroke="#333" stroke-width="2.8" class="wall"/>
  <line x1="387.1" y1="949.5" x2="622.7" y2="949.5" stroke="#333" stroke-width="2.8" class="wall"/>
  <line x1="796.6" y1="949.5" x2="921.4" y2="949.5" stroke="#333" stroke-width="2.8" class="wall"/>
  <line x1="388.5" y1="952.3" x2="622.7" y2="952.3" stroke="#333" stroke-width="2.8" class="wall"/>
  <line x1="792.4" y1="952.3" x2="969.1" y2="952.3" stroke="#333" stroke-width="2.8" class="wall"/>
  <line x1="389.9" y1="953.7" x2="622.7" y2="953.7" stroke="#333" stroke-width="2.8" class="wall"/>
  <line x1="793.8" y1="953.7" x2="915.8" y2="953.7" stroke="#333" stroke-width="2.8" class="wall"/>
  <line x1="336.6" y1="1058.9" x2="440.4" y2="1058.9" stroke="#333" stroke-width="2.8" class="wall"/>
  <line x1="575.0" y1="1085.5" x2="709.7" y2="1085.5" stroke="#333" stroke-width="2.8" class="wall"/>
  <line x1="101.0" y1="301.5" x2="101.0" y2="439.0" stroke="#333" stroke-width="2.8" class="wall"/>
  <line x1="101.0" y1="440.4" x2="101.0" y2="500.7" stroke="#333" stroke-width="2.8" class="wall"/>
  <line x1="101.0" y1="586.2" x2="101.0" y2="789.6" stroke="#333" stroke-width="2.8" class="wall"/>
  <line x1="102.4" y1="294.5" x2="102.4" y2="504.9" stroke="#333" stroke-width="2.8" class="wall"/>
  <line x1="102.4" y1="575.0" x2="102.4" y2="792.4" stroke="#333" stroke-width="2.8" class="wall"/>
  <line x1="105.2" y1="252.4" x2="105.2" y2="311.4" stroke="#333" stroke-width="2.8" class="wall"/>
  <line x1="105.2" y1="499.3" x2="105.2" y2="542.8" stroke="#333" stroke-width="2.8" class="wall"/>
  <line x1="105.2" y1="779.8" x2="105.2" y2="835.9" stroke="#333" stroke-width="2.8" class="wall"/>
  <line x1="105.2" y1="837.3" x2="105.2" y2="900.4" stroke="#333" stroke-width="2.8" class="wall"/>
  <line x1="108.0" y1="429.2" x2="108.0" y2="500.7" stroke="#333" stroke-width="2.8" class="wall"/>
  <line x1="108.0" y1="587.6" x2="108.0" y2="788.2" stroke="#333" stroke-width="2.8" class="wall"/>
  <line x1="120.6" y1="301.5" x2="120.6" y2="434.8" stroke="#333" stroke-width="2.8" class="wall"/>
  <line x1="154.3" y1="82.7" x2="154.3" y2="161.3" stroke="#333" stroke-width="2.8" class="wall"/>
  <line x1="155.7" y1="85.6" x2="155.7" y2="161.3" stroke="#333" stroke-width="2.8" class="wall"/>
  <line x1="192.1" y1="798.0" x2="192.1" y2="865.3" stroke="#333" stroke-width="2.8" class="wall"/>
  <line x1="193.5" y1="796.6" x2="193.5" y2="865.3" stroke="#333" stroke-width="2.8" class="wall"/>
  <line x1="202.0" y1="796.6" x2="202.0" y2="865.3" stroke="#333" stroke-width="2.8" class="wall"/>
  <line x1="221.6" y1="129.0" x2="221.6" y2="221.6" stroke="#333" stroke-width="2.8" class="wall"/>
  <line x1="223.0" y1="127.6" x2="223.0" y2="223.0" stroke="#333" stroke-width="2.8" class="wall"/>
  <line x1="225.8" y1="126.2" x2="225.8" y2="223.0" stroke="#333" stroke-width="2.8" class="wall"/>
  <line x1="227.2" y1="126.2" x2="227.2" y2="228.6" stroke="#333" stroke-width="2.8" class="wall"/>
  <line x1="228.6" y1="78.5" x2="228.6" y2="120.6" stroke="#333" stroke-width="2.8" class="wall"/>
  <line x1="231.4" y1="78.5" x2="231.4" y2="116.4" stroke="#333" stroke-width="2.8" class="wall"/>
  <line x1="231.4" y1="129.0" x2="231.4" y2="223.0" stroke="#333" stroke-width="2.8" class="wall"/>
  <line x1="232.8" y1="130.4" x2="232.8" y2="221.6" stroke="#333" stroke-width="2.8" class="wall"/>
  <line x1="245.4" y1="429.2" x2="245.4" y2="545.6" stroke="#333" stroke-width="2.8" class="wall"/>
  <line x1="246.8" y1="429.2" x2="246.8" y2="495.1" stroke="#333" stroke-width="2.8" class="wall"/>
  <line x1="246.8" y1="496.5" x2="246.8" y2="533.0" stroke="#333" stroke-width="2.8" class="wall"/>
  <line x1="248.2" y1="434.8" x2="248.2" y2="489.5" stroke="#333" stroke-width="2.8" class="wall"/>
  <line x1="248.2" y1="798.0" x2="248.2" y2="837.3" stroke="#333" stroke-width="2.8" class="wall"/>
  <line x1="249.6" y1="434.8" x2="249.6" y2="503.5" stroke="#333" stroke-width="2.8" class="wall"/>
  <line x1="253.9" y1="796.6" x2="253.9" y2="833.1" stroke="#333" stroke-width="2.8" class="wall"/>
  <line x1="256.7" y1="800.8" x2="256.7" y2="866.7" stroke="#333" stroke-width="2.8" class="wall"/>
  <line x1="258.1" y1="796.6" x2="258.1" y2="861.1" stroke="#333" stroke-width="2.8" class="wall"/>
  <line x1="263.7" y1="464.2" x2="263.7" y2="510.5" stroke="#333" stroke-width="2.8" class="wall"/>
  <line x1="265.1" y1="659.2" x2="265.1" y2="732.1" stroke="#333" stroke-width="2.8" class="wall"/>
  <line x1="294.5" y1="462.8" x2="294.5" y2="499.3" stroke="#333" stroke-width="2.8" class="wall"/>
  <line x1="338.0" y1="828.9" x2="338.0" y2="903.2" stroke="#333" stroke-width="2.8" class="wall"/>
  <line x1="339.4" y1="833.1" x2="339.4" y2="953.7" stroke="#333" stroke-width="2.8" class="wall"/>
  <line x1="340.8" y1="899.0" x2="340.8" y2="943.9" stroke="#333" stroke-width="2.8" class="wall"/>
  <line x1="342.2" y1="833.1" x2="342.2" y2="910.2" stroke="#333" stroke-width="2.8" class="wall"/>
  <line x1="343.6" y1="833.1" x2="343.6" y2="950.9" stroke="#333" stroke-width="2.8" class="wall"/>
  <line x1="345.0" y1="256.7" x2="345.0" y2="444.6" stroke="#333" stroke-width="2.8" class="wall"/>
  <line x1="345.0" y1="542.8" x2="345.0" y2="657.8" stroke="#333" stroke-width="2.8" class="wall"/>
  <line x1="345.0" y1="833.1" x2="345.0" y2="956.5" stroke="#333" stroke-width="2.8" class="wall"/>
  <line x1="346.4" y1="256.7" x2="346.4" y2="446.0" stroke="#333" stroke-width="2.8" class="wall"/>
  <line x1="346.4" y1="541.4" x2="346.4" y2="660.6" stroke="#333" stroke-width="2.8" class="wall"/>
  <line x1="346.4" y1="793.8" x2="346.4" y2="837.3" stroke="#333" stroke-width="2.8" class="wall"/>
  <line x1="349.2" y1="795.2" x2="349.2" y2="952.3" stroke="#333" stroke-width="2.8" class="wall"/>
  <line x1="350.6" y1="262.3" x2="350.6" y2="412.3" stroke="#333" stroke-width="2.8" class="wall"/>
  <line x1="350.6" y1="547.0" x2="350.6" y2="705.5" stroke="#333" stroke-width="2.8" class="wall"/>
  <line x1="352.0" y1="260.9" x2="352.0" y2="413.7" stroke="#333" stroke-width="2.8" class="wall"/>
  <line x1="352.0" y1="545.6" x2="352.0" y2="662.0" stroke="#333" stroke-width="2.8" class="wall"/>
  <line x1="353.4" y1="297.3" x2="353.4" y2="408.1" stroke="#333" stroke-width="2.8" class="wall"/>
  <line x1="353.4" y1="545.6" x2="353.4" y2="662.0" stroke="#333" stroke-width="2.8" class="wall"/>
  <line x1="356.2" y1="262.3" x2="356.2" y2="413.7" stroke="#333" stroke-width="2.8" class="wall"/>
  <line x1="356.2" y1="547.0" x2="356.2" y2="660.6" stroke="#333" stroke-width="2.8" class="wall"/>
  <line x1="370.3" y1="51.9" x2="370.3" y2="288.9" stroke="#333" stroke-width="2.8" class="wall"/>
  <line x1="371.7" y1="51.9" x2="371.7" y2="290.3" stroke="#333" stroke-width="2.8" class="wall"/>
  <line x1="373.1" y1="835.9" x2="373.1" y2="918.6" stroke="#333" stroke-width="2.8" class="wall"/>
  <line x1="388.5" y1="65.9" x2="388.5" y2="116.4" stroke="#333" stroke-width="2.8" class="wall"/>
  <line x1="388.5" y1="406.7" x2="388.5" y2="453.0" stroke="#333" stroke-width="2.8" class="wall"/>
  <line x1="388.5" y1="507.7" x2="388.5" y2="552.6" stroke="#333" stroke-width="2.8" class="wall"/>
  <line x1="389.9" y1="410.9" x2="389.9" y2="451.6" stroke="#333" stroke-width="2.8" class="wall"/>
  <line x1="389.9" y1="509.1" x2="389.9" y2="549.8" stroke="#333" stroke-width="2.8" class="wall"/>
  <line x1="392.7" y1="406.7" x2="392.7" y2="451.6" stroke="#333" stroke-width="2.8" class="wall"/>
  <line x1="392.7" y1="507.7" x2="392.7" y2="552.6" stroke="#333" stroke-width="2.8" class="wall"/>
  <line x1="394.1" y1="408.1" x2="394.1" y2="451.6" stroke="#333" stroke-width="2.8" class="wall"/>
  <line x1="394.1" y1="509.1" x2="394.1" y2="552.6" stroke="#333" stroke-width="2.8" class="wall"/>
  <line x1="396.9" y1="143.1" x2="396.9" y2="225.8" stroke="#333" stroke-width="2.8" class="wall"/>
  <line x1="399.7" y1="141.7" x2="399.7" y2="225.8" stroke="#333" stroke-width="2.8" class="wall"/>
  <line x1="401.1" y1="171.1" x2="401.1" y2="225.8" stroke="#333" stroke-width="2.8" class="wall"/>
  <line x1="437.6" y1="88.4" x2="437.6" y2="165.5" stroke="#333" stroke-width="2.8" class="wall"/>
  <line x1="437.6" y1="166.9" x2="437.6" y2="221.6" stroke="#333" stroke-width="2.8" class="wall"/>
  <line x1="439.0" y1="88.4" x2="439.0" y2="220.2" stroke="#333" stroke-width="2.8" class="wall"/>
  <line x1="441.8" y1="88.4" x2="441.8" y2="224.4" stroke="#333" stroke-width="2.8" class="wall"/>
  <line x1="458.6" y1="917.2" x2="458.6" y2="956.5" stroke="#333" stroke-width="2.8" class="wall"/>
  <line x1="460.0" y1="917.2" x2="460.0" y2="957.9" stroke="#333" stroke-width="2.8" class="wall"/>
  <line x1="485.3" y1="32.3" x2="485.3" y2="85.6" stroke="#333" stroke-width="2.8" class="wall"/>
  <line x1="486.7" y1="29.5" x2="486.7" y2="85.6" stroke="#333" stroke-width="2.8" class="wall"/>
  <line x1="497.9" y1="137.4" x2="497.9" y2="223.0" stroke="#333" stroke-width="2.8" class="wall"/>
  <line x1="503.5" y1="29.5" x2="503.5" y2="85.6" stroke="#333" stroke-width="2.8" class="wall"/>
  <line x1="503.5" y1="137.4" x2="503.5" y2="223.0" stroke="#333" stroke-width="2.8" class="wall"/>
  <line x1="504.9" y1="30.9" x2="504.9" y2="85.6" stroke="#333" stroke-width="2.8" class="wall"/>
  <line x1="504.9" y1="176.7" x2="504.9" y2="220.2" stroke="#333" stroke-width="2.8" class="wall"/>
  <line x1="517.5" y1="88.4" x2="517.5" y2="130.4" stroke="#333" stroke-width="2.8" class="wall"/>
  <line x1="518.9" y1="88.4" x2="518.9" y2="133.2" stroke="#333" stroke-width="2.8" class="wall"/>
  <line x1="521.7" y1="88.4" x2="521.7" y2="138.8" stroke="#333" stroke-width="2.8" class="wall"/>
  <line x1="549.8" y1="887.8" x2="549.8" y2="945.3" stroke="#333" stroke-width="2.8" class="wall"/>
  <line x1="551.2" y1="887.8" x2="551.2" y2="945.3" stroke="#333" stroke-width="2.8" class="wall"/>
  <line x1="554.0" y1="887.8" x2="554.0" y2="943.9" stroke="#333" stroke-width="2.8" class="wall"/>
  <line x1="558.2" y1="77.1" x2="558.2" y2="123.4" stroke="#333" stroke-width="2.8" class="wall"/>
  <line x1="558.2" y1="154.3" x2="558.2" y2="192.1" stroke="#333" stroke-width="2.8" class="wall"/>
  <line x1="558.2" y1="223.0" x2="558.2" y2="267.9" stroke="#333" stroke-width="2.8" class="wall"/>
  <line x1="559.6" y1="88.4" x2="559.6" y2="126.2" stroke="#333" stroke-width="2.8" class="wall"/>
  <line x1="559.6" y1="154.3" x2="559.6" y2="193.5" stroke="#333" stroke-width="2.8" class="wall"/>
  <line x1="559.6" y1="223.0" x2="559.6" y2="269.3" stroke="#333" stroke-width="2.8" class="wall"/>
  <line x1="561.0" y1="154.3" x2="561.0" y2="193.5" stroke="#333" stroke-width="2.8" class="wall"/>
  <line x1="562.4" y1="88.4" x2="562.4" y2="124.8" stroke="#333" stroke-width="2.8" class="wall"/>
  <line x1="562.4" y1="154.3" x2="562.4" y2="193.5" stroke="#333" stroke-width="2.8" class="wall"/>
  <line x1="562.4" y1="223.0" x2="562.4" y2="259.5" stroke="#333" stroke-width="2.8" class="wall"/>
  <line x1="563.8" y1="326.8" x2="563.8" y2="382.9" stroke="#333" stroke-width="2.8" class="wall"/>
  <line x1="573.6" y1="795.2" x2="573.6" y2="838.7" stroke="#333" stroke-width="2.8" class="wall"/>
  <line x1="575.0" y1="793.8" x2="575.0" y2="838.7" stroke="#333" stroke-width="2.8" class="wall"/>
  <line x1="575.0" y1="952.3" x2="575.0" y2="1086.9" stroke="#333" stroke-width="2.8" class="wall"/>
  <line x1="576.4" y1="29.5" x2="576.4" y2="85.6" stroke="#333" stroke-width="2.8" class="wall"/>
  <line x1="576.4" y1="793.8" x2="576.4" y2="834.5" stroke="#333" stroke-width="2.8" class="wall"/>
  <line x1="579.2" y1="795.2" x2="579.2" y2="834.5" stroke="#333" stroke-width="2.8" class="wall"/>
  <line x1="580.6" y1="795.2" x2="580.6" y2="838.7" stroke="#333" stroke-width="2.8" class="wall"/>
  <line x1="594.7" y1="29.5" x2="594.7" y2="85.6" stroke="#333" stroke-width="2.8" class="wall"/>
  <line x1="594.7" y1="948.1" x2="594.7" y2="1064.5" stroke="#333" stroke-width="2.8" class="wall"/>
  <line x1="610.1" y1="791.0" x2="610.1" y2="955.1" stroke="#333" stroke-width="2.8" class="wall"/>
  <line x1="611.5" y1="789.6" x2="611.5" y2="955.1" stroke="#333" stroke-width="2.8" class="wall"/>
  <line x1="615.7" y1="788.2" x2="615.7" y2="950.9" stroke="#333" stroke-width="2.8" class="wall"/>
  <line x1="615.7" y1="952.3" x2="615.7" y2="1043.5" stroke="#333" stroke-width="2.8" class="wall"/>
  <line x1="617.1" y1="788.2" x2="617.1" y2="950.9" stroke="#333" stroke-width="2.8" class="wall"/>
  <line x1="618.5" y1="789.6" x2="618.5" y2="950.9" stroke="#333" stroke-width="2.8" class="wall"/>
  <line x1="619.9" y1="848.5" x2="619.9" y2="886.4" stroke="#333" stroke-width="2.8" class="wall"/>
  <line x1="619.9" y1="900.4" x2="619.9" y2="950.9" stroke="#333" stroke-width="2.8" class="wall"/>
  <line x1="621.3" y1="789.6" x2="621.3" y2="955.1" stroke="#333" stroke-width="2.8" class="wall"/>
  <line x1="642.3" y1="88.4" x2="642.3" y2="193.5" stroke="#333" stroke-width="2.8" class="wall"/>
  <line x1="643.7" y1="89.8" x2="643.7" y2="194.9" stroke="#333" stroke-width="2.8" class="wall"/>
  <line x1="648.0" y1="77.1" x2="648.0" y2="265.1" stroke="#333" stroke-width="2.8" class="wall"/>
  <line x1="649.4" y1="77.1" x2="649.4" y2="269.3" stroke="#333" stroke-width="2.8" class="wall"/>
  <line x1="653.6" y1="78.5" x2="653.6" y2="192.1" stroke="#333" stroke-width="2.8" class="wall"/>
  <line x1="653.6" y1="223.0" x2="653.6" y2="267.9" stroke="#333" stroke-width="2.8" class="wall"/>
  <line x1="708.3" y1="1044.9" x2="708.3" y2="1086.9" stroke="#333" stroke-width="2.8" class="wall"/>
  <line x1="792.4" y1="761.6" x2="792.4" y2="848.5" stroke="#333" stroke-width="2.8" class="wall"/>
  <line x1="792.4" y1="852.7" x2="792.4" y2="953.7" stroke="#333" stroke-width="2.8" class="wall"/>
  <line x1="793.8" y1="876.6" x2="793.8" y2="917.2" stroke="#333" stroke-width="2.8" class="wall"/>
  <line x1="796.6" y1="692.8" x2="796.6" y2="730.7" stroke="#333" stroke-width="2.8" class="wall"/>
  <line x1="796.6" y1="758.8" x2="796.6" y2="950.9" stroke="#333" stroke-width="2.8" class="wall"/>
  <line x1="798.0" y1="692.8" x2="798.0" y2="730.7" stroke="#333" stroke-width="2.8" class="wall"/>
  <line x1="798.0" y1="758.8" x2="798.0" y2="950.9" stroke="#333" stroke-width="2.8" class="wall"/>
  <line x1="799.4" y1="692.8" x2="799.4" y2="729.3" stroke="#333" stroke-width="2.8" class="wall"/>
  <line x1="799.4" y1="758.8" x2="799.4" y2="950.9" stroke="#333" stroke-width="2.8" class="wall"/>
  <line x1="802.2" y1="758.8" x2="802.2" y2="950.9" stroke="#333" stroke-width="2.8" class="wall"/>
  <line x1="803.6" y1="760.2" x2="803.6" y2="950.9" stroke="#333" stroke-width="2.8" class="wall"/>
  <line x1="885.0" y1="230.0" x2="885.0" y2="408.1" stroke="#333" stroke-width="2.8" class="wall"/>
  <line x1="885.0" y1="589.0" x2="885.0" y2="691.4" stroke="#333" stroke-width="2.8" class="wall"/>
  <line x1="903.2" y1="230.0" x2="903.2" y2="408.1" stroke="#333" stroke-width="2.8" class="wall"/>
  <line x1="903.2" y1="476.9" x2="903.2" y2="691.4" stroke="#333" stroke-width="2.8" class="wall"/>
  <line x1="925.6" y1="704.1" x2="925.6" y2="774.2" stroke="#333" stroke-width="2.8" class="wall"/>
  <line x1="955.1" y1="704.1" x2="955.1" y2="763.0" stroke="#333" stroke-width="2.8" class="wall"/>
  <line x1="955.1" y1="775.6" x2="955.1" y2="903.2" stroke="#333" stroke-width="2.8" class="wall"/>
  <line x1="960.7" y1="692.8" x2="960.7" y2="950.9" stroke="#333" stroke-width="2.8" class="wall"/>
  <line x1="962.1" y1="698.4" x2="962.1" y2="910.2" stroke="#333" stroke-width="2.8" class="wall"/>
  <line x1="966.3" y1="694.2" x2="966.3" y2="856.9" stroke="#333" stroke-width="2.8" class="wall"/>
  <line x1="966.3" y1="858.3" x2="966.3" y2="903.2" stroke="#333" stroke-width="2.8" class="wall"/>
  <rect x="0.0" y="0.0" width="1120.6" height="1133.2" fill="rgba(200,200,255,0.2)" stroke="blue" stroke-width="0.5" class="region" data-region-id="0" data-area="224190"/>
  <rect x="468.4" y="259.5" width="425.0" height="389.9" fill="rgba(200,200,255,0.2)" stroke="blue" stroke-width="0.5" class="region" data-region-id="1" data-area="67838"/>
  <rect x="115.0" y="503.5" width="220.2" height="317.0" fill="rgba(200,200,255,0.2)" stroke="blue" stroke-width="0.5" class="region" data-region-id="2" data-area="19508"/>
  <rect x="322.6" y="713.9" width="284.7" height="194.9" fill="rgba(200,200,255,0.2)" stroke="blue" stroke-width="0.5" class="region" data-region-id="3" data-area="16139"/>
</svg>