<svg xmlns="http://www.w3.org/2000/svg" viewBox="0 0 1600 983" width="1600" height="983">
  <line x1="370.0" y1="64.0" x2="502.0" y2="64.0" stroke="#333" stroke-width="4.0" class="wall"/>
  <line x1="668.0" y1="64.0" x2="828.0" y2="64.0" stroke="#333" stroke-width="4.0" class="wall"/>
  <line x1="990.0" y1="64.0" x2="1448.0" y2="64.0" stroke="#333" stroke-width="4.0" class="wall"/>
  <line x1="370.0" y1="66.0" x2="504.0" y2="66.0" stroke="#333" stroke-width="4.0" class="wall"/>
  <line x1="662.0" y1="66.0" x2="830.0" y2="66.0" stroke="#333" stroke-width="4.0" class="wall"/>
  <line x1="988.0" y1="66.0" x2="1448.0" y2="66.0" stroke="#333" stroke-width="4.0" class="wall"/>
  <line x1="370.0" y1="68.0" x2="504.0" y2="68.0" stroke="#333" stroke-width="4.0" class="wall"/>
  <line x1="662.0" y1="68.0" x2="830.0" y2="68.0" stroke="#333" stroke-width="4.0" class="wall"/>
  <line x1="988.0" y1="68.0" x2="1448.0" y2="68.0" stroke="#333" stroke-width="4.0" class="wall"/>
  <line x1="370.0" y1="70.0" x2="504.0" y2="70.0" stroke="#333" stroke-width="4.0" class="wall"/>
  <line x1="662.0" y1="70.0" x2="830.0" y2="70.0" stroke="#333" stroke-width="4.0" class="wall"/>
  <line x1="988.0" y1="70.0" x2="1448.0" y2="70.0" stroke="#333" stroke-width="4.0" class="wall"/>
  <line x1="370.0" y1="72.0" x2="506.0" y2="72.0" stroke="#333" stroke-width="4.0" class="wall"/>
  <line x1="662.0" y1="72.0" x2="830.0" y2="72.0" stroke="#333" stroke-width="4.0" class="wall"/>
  <line x1="986.0" y1="72.0" x2="1448.0" y2="72.0" stroke="#333" stroke-width="4.0" class="wall"/>
  <line x1="370.0" y1="74.0" x2="504.0" y2="74.0" stroke="#333" stroke-width="4.0" class="wall"/>
  <line x1="662.0" y1="74.0" x2="830.0" y2="74.0" stroke="#333" stroke-width="4.0" class="wall"/>
  <line x1="986.0" y1="74.0" x2="1448.0" y2="74.0" stroke="#333" stroke-width="4.0" class="wall"/>
  <line x1="370.0" y1="76.0" x2="504.0" y2="76.0" stroke="#333" stroke-width="4.0" class="wall"/>
  <line x1="662.0" y1="76.0" x2="830.0" y2="76.0" stroke="#333" stroke-width="4.0" class="wall"/>
  <line x1="988.0" y1="76.0" x2="1448.0" y2="76.0" stroke="#333" stroke-width="4.0" class="wall"/>
  <line x1="370.0" y1="78.0" x2="504.0" y2="78.0" stroke="#333" stroke-width="4.0" class="wall"/>
  <line x1="662.0" y1="78.0" x2="830.0" y2="78.0" stroke="#333" stroke-width="4.0" class="wall"/>
  <line x1="986.0" y1="78.0" x2="1448.0" y2="78.0" stroke="#333" stroke-width="4.0" class="wall"/>
  <line x1="370.0" y1="80.0" x2="506.0" y2="80.0" stroke="#333" stroke-width="4.0" class="wall"/>
  <line x1="662.0" y1="80.0" x2="830.0" y2="80.0" stroke="#333" stroke-width="4.0" class="wall"/>
  <line x1="988.0" y1="80.0" x2="1448.0" y2="80.0" stroke="#333" stroke-width="4.0" class="wall"/>
  <line x1="1140.0" y1="442.0" x2="1450.0" y2="442.0" stroke="#333" stroke-width="10.0" class="wall"/>
  <line x1="76.0" y1="490.0" x2="430.0" y2="490.0" stroke="#333" stroke-width="4.0" class="wall"/>
  <line x1="76.0" y1="492.0" x2="430.0" y2="492.0" stroke="#333" stroke-width="4.0" class="wall"/>
  <line x1="1028.0" y1="492.0" x2="1152.0" y2="492.0" stroke="#333" stroke-width="4.0" class="wall"/>
  <line x1="76.0" y1="494.0" x2="430.0" y2="494.0" stroke="#333" stroke-width="4.0" class="wall"/>
  <line x1="1028.0" y1="494.0" x2="1152.0" y2="494.0" stroke="#333" stroke-width="4.0" class="wall"/>
  <line x1="76.0" y1="496.0" x2="430.0" y2="496.0" stroke="#333" stroke-width="4.0" class="wall"/>
  <line x1="1028.0" y1="496.0" x2="1152.0" y2="496.0" stroke="#333" stroke-width="4.0" class="wall"/>
  <line x1="76.0" y1="498.0" x2="430.0" y2="498.0" stroke="#333" stroke-width="4.0" class="wall"/>
  <line x1="1028.0" y1="498.0" x2="1152.0" y2="498.0" stroke="#333" stroke-width="4.0" class="wall"/>
  <line x1="76.0" y1="500.0" x2="430.0" y2="500.0" stroke="#333" stroke-width="4.0" class="wall"/>
  <line x1="1028.0" y1="500.0" x2="1152.0" y2="500.0" stroke="#333" stroke-width="4.0" class="wall"/>
  <line x1="76.0" y1="502.0" x2="430.0" y2="502.0" stroke="#333" stroke-width="4.0" class="wall"/>
  <line x1="1026.0" y1="502.0" x2="1152.0" y2="502.0" stroke="#333" stroke-width="4.0" class="wall"/>
  <line x1="76.0" y1="504.0" x2="430.0" y2="504.0" stroke="#333" stroke-width="4.0" class="wall"/>
  <line x1="1140.0" y1="548.0" x2="1274.0" y2="548.0" stroke="#333" stroke-width="4.0" class="wall"/>
  <line x1="1344.0" y1="548.0" x2="1428.0" y2="548.0" stroke="#333" stroke-width="4.0" class="wall"/>
  <line x1="1140.0" y1="550.0" x2="1274.0" y2="550.0" stroke="#333" stroke-width="4.0" class="wall"/>
  <line x1="1342.0" y1="550.0" x2="1450.0" y2="550.0" stroke="#333" stroke-width="4.0" class="wall"/>
  <line x1="1140.0" y1="552.0" x2="1274.0" y2="552.0" stroke="#333" stroke-width="4.0" class="wall"/>
  <line x1="1342.0" y1="552.0" x2="1448.0" y2="552.0" stroke="#333" stroke-width="4.0" class="wall"/>
  <line x1="1140.0" y1="554.0" x2="1274.0" y2="554.0" stroke="#333" stroke-width="4.0" class="wall"/>
  <line x1="1342.0" y1="554.0" x2="1448.0" y2="554.0" stroke="#333" stroke-width="4.0" class="wall"/>
  <line x1="1140.0" y1="556.0" x2="1274.0" y2="556.0" stroke="#333" stroke-width="4.0" class="wall"/>
  <line x1="1342.0" y1="556.0" x2="1448.0" y2="556.0" stroke="#333" stroke-width="4.0" class="wall"/>
  <line x1="1140.0" y1="558.0" x2="1274.0" y2="558.0" stroke="#333" stroke-width="4.0" class="wall"/>
  <line x1="1342.0" y1="558.0" x2="1448.0" y2="558.0" stroke="#333" stroke-width="4.0" class="wall"/>
  <line x1="418.0" y1="616.0" x2="472.0" y2="616.0" stroke="#333" stroke-width="4.0" class="wall"/>
  <line x1="876.0" y1="616.0" x2="1040.0" y2="616.0" stroke="#333" stroke-width="4.0" class="wall"/>
  <line x1="418.0" y1="618.0" x2="474.0" y2="618.0" stroke="#333" stroke-width="4.0" class="wall"/>
  <line x1="574.0" y1="618.0" x2="700.0" y2="618.0" stroke="#333" stroke-width="4.0" class="wall"/>
  <line x1="800.0" y1="618.0" x2="1040.0" y2="618.0" stroke="#333" stroke-width="4.0" class="wall"/>
  <line x1="418.0" y1="620.0" x2="474.0" y2="620.0" stroke="#333" stroke-width="4.0" class="wall"/>
  <line x1="574.0" y1="620.0" x2="700.0" y2="620.0" stroke="#333" stroke-width="4.0" class="wall"/>
  <line x1="800.0" y1="620.0" x2="1040.0" y2="620.0" stroke="#333" stroke-width="4.0" class="wall"/>
  <line x1="418.0" y1="622.0" x2="474.0" y2="622.0" stroke="#333" stroke-width="4.0" class="wall"/>
  <line x1="574.0" y1="622.0" x2="700.0" y2="622.0" stroke="#333" stroke-width="4.0" class="wall"/>
  <line x1="800.0" y1="622.0" x2="1040.0" y2="622.0" stroke="#333" stroke-width="4.0" class="wall"/>
  <line x1="418.0" y1="624.0" x2="474.0" y2="624.0" stroke="#333" stroke-width="4.0" class="wall"/>
  <line x1="574.0" y1="624.0" x2="700.0" y2="624.0" stroke="#333" stroke-width="4.0" class="wall"/>
  <line x1="800.0" y1="624.0" x2="1040.0" y2="624.0" stroke="#333" stroke-width="4.0" class="wall"/>
  <line x1="418.0" y1="626.0" x2="474.0" y2="626.0" stroke="#333" stroke-width="4.0" class="wall"/>
  <line x1="574.0" y1="626.0" x2="700.0" y2="626.0" stroke="#333" stroke-width="4.0" class="wall"/>
  <line x1="800.0" y1="626.0" x2="1040.0" y2="626.0" stroke="#333" stroke-width="4.0" class="wall"/>
  <line x1="620.0" y1="708.0" x2="700.0" y2="708.0" stroke="#333" stroke-width="4.0" class="wall"/>
  <line x1="620.0" y1="710.0" x2="700.0" y2="710.0" stroke="#333" stroke-width="4.0" class="wall"/>
  <line x1="620.0" y1="712.0" x2="700.0" y2="712.0" stroke="#333" stroke-width="4.0" class="wall"/>
  <line x1="620.0" y1="714.0" x2="700.0" y2="714.0" stroke="#333" stroke-width="4.0" class="wall"/>
  <line x1="620.0" y1="716.0" x2="700.0" y2="716.0" stroke="#333" stroke-width="4.0" class="wall"/>
  <line x1="620.0" y1="718.0" x2="700.0" y2="718.0" stroke="#333" stroke-width="4.0" class="wall"/>
  <line x1="76.0" y1="954.0" x2="182.0" y2="954.0" stroke="#333" stroke-width="4.0" class="wall"/>
  <line x1="340.0" y1="954.0" x2="492.0" y2="954.0" stroke="#333" stroke-width="4.0" class="wall"/>
  <line x1="558.0" y1="954.0" x2="786.0" y2="954.0" stroke="#333" stroke-width="4.0" class="wall"/>
  <line x1="942.0" y1="954.0" x2="1152.0" y2="954.0" stroke="#333" stroke-width="4.0" class="wall"/>
  <line x1="1308.0" y1="954.0" x2="1448.0" y2="954.0" stroke="#333" stroke-width="4.0" class="wall"/>
  <line x1="76.0" y1="956.0" x2="182.0" y2="956.0" stroke="#333" stroke-width="4.0" class="wall"/>
  <line x1="340.0" y1="956.0" x2="492.0" y2="956.0" stroke="#333" stroke-width="4.0" class="wall"/>
  <line x1="558.0" y1="956.0" x2="786.0" y2="956.0" stroke="#333" stroke-width="4.0" class="wall"/>
  <line x1="942.0" y1="956.0" x2="1152.0" y2="956.0" stroke="#333" stroke-width="4.0" class="wall"/>
  <line x1="1308.0" y1="956.0" x2="1448.0" y2="956.0" stroke="#333" stroke-width="4.0" class="wall"/>
  <line x1="76.0" y1="958.0" x2="182.0" y2="958.0" stroke="#333" stroke-width="4.0" class="wall"/>
  <line x1="340.0" y1="958.0" x2="492.0" y2="958.0" stroke="#333" stroke-width="4.0" class="wall"/>
  <line x1="558.0" y1="958.0" x2="786.0" y2="958.0" stroke="#333" stroke-width="4.0" class="wall"/>
  <line x1="942.0" y1="958.0" x2="1152.0" y2="958.0" stroke="#333" stroke-width="4.0" class="wall"/>
  <line x1="1308.0" y1="958.0" x2="1448.0" y2="958.0" stroke="#333" stroke-width="4.0" class="wall"/>
  <line x1="76.0" y1="960.0" x2="182.0" y2="960.0" stroke="#333" stroke-width="4.0" class="wall"/>
  <line x1="340.0" y1="960.0" x2="492.0" y2="960.0" stroke="#333" stroke-width="4.0" class="wall"/>
  <line x1="558.0" y1="960.0" x2="786.0" y2="960.0" stroke="#333" stroke-width="4.0" class="wall"/>
  <line x1="942.0" y1="960.0" x2="1152.0" y2="960.0" stroke="#333" stroke-width="4.0" class="wall"/>
  <line x1="1308.0" y1="960.0" x2="1450.0" y2="960.0" stroke="#333" stroke-width="4.0" class="wall"/>
  <line x1="76.0" y1="962.0" x2="184.0" y2="962.0" stroke="#333" stroke-width="4.0" class="wall"/>
  <line x1="340.0" y1="962.0" x2="492.0" y2="962.0" stroke="#333" stroke-width="4.0" class="wall"/>
  <line x1="558.0" y1="962.0" x2="786.0" y2="962.0" stroke="#333" stroke-width="4.0" class="wall"/>
  <line x1="942.0" y1="962.0" x2="1152.0" y2="962.0" stroke="#333" stroke-width="4.0" class="wall"/>
  <line x1="1308.0" y1="962.0" x2="1450.0" y2="962.0" stroke="#333" stroke-width="4.0" class="wall"/>
  <line x1="76.0" y1="964.0" x2="182.0" y2="964.0" stroke="#333" stroke-width="4.0" class="wall"/>
  <line x1="340.0" y1="964.0" x2="492.0" y2="964.0" stroke="#333" stroke-width="4.0" class="wall"/>
  <line x1="558.0" y1="964.0" x2="786.0" y2="964.0" stroke="#333" stroke-width="4.0" class="wall"/>
  <line x1="942.0" y1="964.0" x2="1152.0" y2="964.0" stroke="#333" stroke-width="4.0" class="wall"/>
  <line x1="1308.0" y1="964.0" x2="1450.0" y2="964.0" stroke="#333" stroke-width="4.0" class="wall"/>
  <line x1="76.0" y1="966.0" x2="182.0" y2="966.0" stroke="#333" stroke-width="4.0" class="wall"/>
  <line x1="340.0" y1="966.0" x2="492.0" y2="966.0" stroke="#333" stroke-width="4.0" class="wall"/>
  <line x1="558.0" y1="966.0" x2="786.0" y2="966.0" stroke="#333" stroke-width="4.0" class="wall"/>
  <line x1="942.0" y1="966.0" x2="1152.0" y2="966.0" stroke="#333" stroke-width="4.0" class="wall"/>
  <line x1="1308.0" y1="966.0" x2="1450.0" y2="966.0" stroke="#333" stroke-width="4.0" class="wall"/>
  <line x1="76.0" y1="968.0" x2="182.0" y2="968.0" stroke="#333" stroke-width="4.0" class="wall"/>
  <line x1="340.0" y1="968.0" x2="492.0" y2="968.0" stroke="#333" stroke-width="4.0" class="wall"/>
  <line x1="558.0" y1="968.0" x2="786.0" y2="968.0" stroke="#333" stroke-width="4.0" class="wall"/>
  <line x1="942.0" y1="968.0" x2="1152.0" y2="968.0" stroke="#333" stroke-width="4.0" class="wall"/>
  <line x1="1308.0" y1="968.0" x2="1450.0" y2="968.0" stroke="#333" stroke-width="4.0" class="wall"/>
  <line x1="76.0" y1="970.0" x2="182.0" y2="970.0" stroke="#333" stroke-width="4.0" class="wall"/>
  <line x1="340.0" y1="970.0" x2="492.0" y2="970.0" stroke="#333" stroke-width="4.0" class="wall"/>
  <line x1="558.0" y1="970.0" x2="786.0" y2="970.0" stroke="#333" stroke-width="4.0" class="wall"/>
  <line x1="942.0" y1="970.0" x2="1152.0" y2="970.0" stroke="#333" stroke-width="4.0" class="wall"/>
  <line x1="1308.0" y1="970.0" x2="1448.0" y2="970.0" stroke="#333" stroke-width="4.0" class="wall"/>
  <line x1="76.0" y1="490.0" x2="76.0" y2="650.0" stroke="#333" stroke-width="4.0" class="wall"/>
  <line x1="76.0" y1="808.0" x2="76.0" y2="972.0" stroke="#333" stroke-width="4.0" class="wall"/>
  <line x1="78.0" y1="490.0" x2="78.0" y2="650.0" stroke="#333" stroke-width="4.0" class="wall"/>
  <line x1="78.0" y1="808.0" x2="78.0" y2="972.0" stroke="#333" stroke-width="4.0" class="wall"/>
  <line x1="80.0" y1="490.0" x2="80.0" y2="650.0" stroke="#333" stroke-width="4.0" class="wall"/>
  <line x1="80.0" y1="808.0" x2="80.0" y2="972.0" stroke="#333" stroke-width="4.0" class="wall"/>
  <line x1="82.0" y1="490.0" x2="82.0" y2="650.0" stroke="#333" stroke-width="4.0" class="wall"/>
  <line x1="82.0" y1="808.0" x2="82.0" y2="972.0" stroke="#333" stroke-width="4.0" class="wall"/>
  <line x1="84.0" y1="490.0" x2="84.0" y2="650.0" stroke="#333" stroke-width="4.0" class="wall"/>
  <line x1="84.0" y1="808.0" x2="84.0" y2="972.0" stroke="#333" stroke-width="4.0" class="wall"/>
  <line x1="86.0" y1="490.0" x2="86.0" y2="650.0" stroke="#333" stroke-width="4.0" class="wall"/>
  <line x1="86.0" y1="808.0" x2="86.0" y2="972.0" stroke="#333" stroke-width="4.0" class="wall"/>
  <line x1="88.0" y1="490.0" x2="88.0" y2="650.0" stroke="#333" stroke-width="4.0" class="wall"/>
  <line x1="88.0" y1="808.0" x2="88.0" y2="972.0" stroke="#333" stroke-width="4.0" class="wall"/>
  <line x1="90.0" y1="490.0" x2="90.0" y2="650.0" stroke="#333" stroke-width="4.0" class="wall"/>
  <line x1="90.0" y1="808.0" x2="90.0" y2="972.0" stroke="#333" stroke-width="4.0" class="wall"/>
  <line x1="92.0" y1="490.0" x2="92.0" y2="650.0" stroke="#333" stroke-width="4.0" class="wall"/>
  <line x1="92.0" y1="916.0" x2="92.0" y2="972.0" stroke="#333" stroke-width="4.0" class="wall"/>
  <line x1="370.0" y1="64.0" x2="370.0" y2="148.0" stroke="#333" stroke-width="4.0" class="wall"/>
  <line x1="370.0" y1="306.0" x2="370.0" y2="372.0" stroke="#333" stroke-width="4.0" class="wall"/>
  <line x1="372.0" y1="64.0" x2="372.0" y2="148.0" stroke="#333" stroke-width="4.0" class="wall"/>
  <line x1="372.0" y1="306.0" x2="372.0" y2="372.0" stroke="#333" stroke-width="4.0" class="wall"/>
  <line x1="374.0" y1="64.0" x2="374.0" y2="148.0" stroke="#333" stroke-width="4.0" class="wall"/>
  <line x1="374.0" y1="306.0" x2="374.0" y2="372.0" stroke="#333" stroke-width="4.0" class="wall"/>
  <line x1="376.0" y1="64.0" x2="376.0" y2="148.0" stroke="#333" stroke-width="4.0" class="wall"/>
  <line x1="376.0" y1="304.0" x2="376.0" y2="372.0" stroke="#333" stroke-width="4.0" class="wall"/>
  <line x1="378.0" y1="64.0" x2="378.0" y2="148.0" stroke="#333" stroke-width="4.0" class="wall"/>
  <line x1="378.0" y1="304.0" x2="378.0" y2="372.0" stroke="#333" stroke-width="4.0" class="wall"/>
  <line x1="380.0" y1="64.0" x2="380.0" y2="148.0" stroke="#333" stroke-width="4.0" class="wall"/>
  <line x1="380.0" y1="306.0" x2="380.0" y2="372.0" stroke="#333" stroke-width="4.0" class="wall"/>
  <line x1="382.0" y1="64.0" x2="382.0" y2="148.0" stroke="#333" stroke-width="4.0" class="wall"/>
  <line x1="382.0" y1="306.0" x2="382.0" y2="372.0" stroke="#333" stroke-width="4.0" class="wall"/>
  <line x1="384.0" y1="64.0" x2="384.0" y2="148.0" stroke="#333" stroke-width="4.0" class="wall"/>
  <line x1="384.0" y1="306.0" x2="384.0" y2="372.0" stroke="#333" stroke-width="4.0" class="wall"/>
  <line x1="386.0" y1="64.0" x2="386.0" y2="146.0" stroke="#333" stroke-width="4.0" class="wall"/>
  <line x1="386.0" y1="306.0" x2="386.0" y2="370.0" stroke="#333" stroke-width="4.0" class="wall"/>
  <line x1="418.0" y1="608.0" x2="418.0" y2="972.0" stroke="#333" stroke-width="4.0" class="wall"/>
  <line x1="420.0" y1="610.0" x2="420.0" y2="972.0" stroke="#333" stroke-width="4.0" class="wall"/>
  <line x1="422.0" y1="610.0" x2="422.0" y2="972.0" stroke="#333" stroke-width="4.0" class="wall"/>
  <line x1="424.0" y1="610.0" x2="424.0" y2="972.0" stroke="#333" stroke-width="4.0" class="wall"/>
  <line x1="426.0" y1="608.0" x2="426.0" y2="972.0" stroke="#333" stroke-width="4.0" class="wall"/>
  <line x1="428.0" y1="608.0" x2="428.0" y2="972.0" stroke="#333" stroke-width="4.0" class="wall"/>
  <line x1="620.0" y1="708.0" x2="620.0" y2="972.0" stroke="#333" stroke-width="4.0" class="wall"/>
  <line x1="622.0" y1="708.0" x2="622.0" y2="972.0" stroke="#333" stroke-width="4.0" class="wall"/>
  <line x1="624.0" y1="708.0" x2="624.0" y2="972.0" stroke="#333" stroke-width="4.0" class="wall"/>
  <line x1="626.0" y1="708.0" x2="626.0" y2="972.0" stroke="#333" stroke-width="4.0" class="wall"/>
  <line x1="628.0" y1="708.0" x2="628.0" y2="972.0" stroke="#333" stroke-width="4.0" class="wall"/>
  <line x1="630.0" y1="708.0" x2="630.0" y2="972.0" stroke="#333" stroke-width="4.0" class="wall"/>
  <line x1="688.0" y1="618.0" x2="688.0" y2="720.0" stroke="#333" stroke-width="4.0" class="wall"/>
  <line x1="690.0" y1="618.0" x2="690.0" y2="720.0" stroke="#333" stroke-width="4.0" class="wall"/>
  <line x1="692.0" y1="618.0" x2="692.0" y2="720.0" stroke="#333" stroke-width="4.0" class="wall"/>
  <line x1="694.0" y1="618.0" x2="694.0" y2="720.0" stroke="#333" stroke-width="4.0" class="wall"/>
  <line x1="696.0" y1="618.0" x2="696.0" y2="720.0" stroke="#333" stroke-width="4.0" class="wall"/>
  <line x1="698.0" y1="618.0" x2="698.0" y2="720.0" stroke="#333" stroke-width="4.0" class="wall"/>
  <line x1="1028.0" y1="610.0" x2="1028.0" y2="972.0" stroke="#333" stroke-width="4.0" class="wall"/>
  <line x1="1030.0" y1="610.0" x2="1030.0" y2="972.0" stroke="#333" stroke-width="4.0" class="wall"/>
  <line x1="1032.0" y1="610.0" x2="1032.0" y2="972.0" stroke="#333" stroke-width="4.0" class="wall"/>
  <line x1="1034.0" y1="610.0" x2="1034.0" y2="972.0" stroke="#333" stroke-width="4.0" class="wall"/>
  <line x1="1036.0" y1="610.0" x2="1036.0" y2="972.0" stroke="#333" stroke-width="4.0" class="wall"/>
  <line x1="1038.0" y1="610.0" x2="1038.0" y2="972.0" stroke="#333" stroke-width="4.0" class="wall"/>
  <line x1="1140.0" y1="436.0" x2="1140.0" y2="560.0" stroke="#333" stroke-width="4.0" class="wall"/>
  <line x1="1142.0" y1="436.0" x2="1142.0" y2="560.0" stroke="#333" stroke-width="4.0" class="wall"/>
  <line x1="1144.0" y1="436.0" x2="1144.0" y2="560.0" stroke="#333" stroke-width="4.0" class="wall"/>
  <line x1="1146.0" y1="436.0" x2="1146.0" y2="560.0" stroke="#333" stroke-width="4.0" class="wall"/>
  <line x1="1148.0" y1="436.0" x2="1148.0" y2="560.0" stroke="#333" stroke-width="4.0" class="wall"/>
  <line x1="1150.0" y1="436.0" x2="1150.0" y2="560.0" stroke="#333" stroke-width="4.0" class="wall"/>
  <line x1="1432.0" y1="64.0" x2="1432.0" y2="168.0" stroke="#333" stroke-width="4.0" class="wall"/>
  <line x1="1432.0" y1="532.0" x2="1432.0" y2="678.0" stroke="#333" stroke-width="4.0" class="wall"/>
  <line x1="1432.0" y1="836.0" x2="1432.0" y2="972.0" stroke="#333" stroke-width="4.0" class="wall"/>
  <line x1="1434.0" y1="64.0" x2="1434.0" y2="166.0" stroke="#333" stroke-width="4.0" class="wall"/>
  <line x1="1434.0" y1="532.0" x2="1434.0" y2="678.0" stroke="#333" stroke-width="4.0" class="wall"/>
  <line x1="1434.0" y1="836.0" x2="1434.0" y2="972.0" stroke="#333" stroke-width="4.0" class="wall"/>
  <line x1="1436.0" y1="64.0" x2="1436.0" y2="166.0" stroke="#333" stroke-width="4.0" class="wall"/>
  <line x1="1436.0" y1="532.0" x2="1436.0" y2="678.0" stroke="#333" stroke-width="4.0" class="wall"/>
  <line x1="1436.0" y1="836.0" x2="1436.0" y2="972.0" stroke="#333" stroke-width="4.0" class="wall"/>
  <line x1="1438.0" y1="64.0" x2="1438.0" y2="168.0" stroke="#333" stroke-width="4.0" class="wall"/>
  <line x1="1438.0" y1="532.0" x2="1438.0" y2="678.0" stroke="#333" stroke-width="4.0" class="wall"/>
  <line x1="1438.0" y1="836.0" x2="1438.0" y2="972.0" stroke="#333" stroke-width="4.0" class="wall"/>
  <line x1="1440.0" y1="64.0" x2="1440.0" y2="168.0" stroke="#333" stroke-width="4.0" class="wall"/>
  <line x1="1440.0" y1="530.0" x2="1440.0" y2="678.0" stroke="#333" stroke-width="4.0" class="wall"/>
  <line x1="1440.0" y1="836.0" x2="1440.0" y2="972.0" stroke="#333" stroke-width="4.0" class="wall"/>
  <line x1="1442.0" y1="64.0" x2="1442.0" y2="166.0" stroke="#333" stroke-width="4.0" class="wall"/>
  <line x1="1442.0" y1="532.0" x2="1442.0" y2="678.0" stroke="#333" stroke-width="4.0" class="wall"/>
  <line x1="1442.0" y1="836.0" x2="1442.0" y2="972.0" stroke="#333" stroke-width="4.0" class="wall"/>
  <line x1="1444.0" y1="64.0" x2="1444.0" y2="166.0" stroke="#333" stroke-width="4.0" class="wall"/>
  <line x1="1444.0" y1="532.0" x2="1444.0" y2="678.0" stroke="#333" stroke-width="4.0" class="wall"/>
  <line x1="1444.0" y1="836.0" x2="1444.0" y2="972.0" stroke="#333" stroke-width="4.0" class="wall"/>
  <line x1="1446.0" y1="64.0" x2="1446.0" y2="166.0" stroke="#333" stroke-width="4.0" class="wall"/>
  <line x1="1446.0" y1="532.0" x2="1446.0" y2="678.0" stroke="#333" stroke-width="4.0" class="wall"/>
  <line x1="1446.0" y1="836.0" x2="1446.0" y2="972.0" stroke="#333" stroke-width="4.0" class="wall"/>
</svg>