ISO-10303-21;
HEADER;
FILE_DESCRIPTION(('ViewDefinition [CoordinationView]'),'2;1');
FILE_NAME('','2026-05-16T08:07:07',(''),(''),'IfcOpenShell 0.8.5-1c5b825','IfcOpenShell 0.8.5-1c5b825','');
FILE_SCHEMA(('IFC2X3'));
ENDSEC;
DATA;
#1=IFCPERSON('bf-v3-generator','BuildFlow','Generator',$,$,$,$,$);
#2=IFCORGANIZATION('buildflow','BuildFlow',$,$,$);
#3=IFCPERSONANDORGANIZATION(#1,#2,$);
#4=IFCAPPLICATION(#2,'3.0','BuildFlow Generator v3','buildflow-v3');
#5=IFCOWNERHISTORY(#3,#4,.READWRITE.,.ADDED.,1778918827,#3,#4,1778918827);
#6=IFCPROJECT('0pf5yy4xrKpv$c6WThSdGw',#5,'Master Bedroom',$,$,$,$,(#15),#10);
#7=IFCSIUNIT(*,.LENGTHUNIT.,.MILLI.,.METRE.);
#8=IFCSIUNIT(*,.AREAUNIT.,$,.SQUARE_METRE.);
#9=IFCSIUNIT(*,.VOLUMEUNIT.,$,.CUBIC_METRE.);
#10=IFCUNITASSIGNMENT((#7,#8,#9));
#11=IFCCARTESIANPOINT((0.,0.,0.));
#12=IFCDIRECTION((0.,0.,1.));
#13=IFCDIRECTION((1.,0.,0.));
#14=IFCAXIS2PLACEMENT3D(#11,#12,#13);
#15=IFCGEOMETRICREPRESENTATIONCONTEXT($,'Model',3,1.0000000000000001E-05,#14,$);
#16=IFCGEOMETRICREPRESENTATIONSUBCONTEXT('Body','Model',*,*,*,*,#15,$,.MODEL_VIEW.,$);
#17=IFCOWNERHISTORY(#3,#4,.READWRITE.,.MODIFIED.,1778918827,#3,#4,1778918827);
#18=IFCSITE('1i4pluRsfOthZHp72YxTZ9',#17,'Mumbai BKC apartment',$,$,#33,$,$,.ELEMENT.,$,$,$,$,$);
#19=IFCOWNERHISTORY(#3,#4,.READWRITE.,.MODIFIED.,1778918827,#3,#4,1778918827);
#20=IFCBUILDING('1gf_KjPsHHNxASVkxElhai',#19,'Master Bedroom',$,$,#38,$,$,.ELEMENT.,$,$,$);
#21=IFCOWNERHISTORY(#3,#4,.READWRITE.,.MODIFIED.,1778918827,#3,#4,1778918827);
#22=IFCBUILDINGSTOREY('1ALemF0zrQzuKD6aruOUwM',#21,'Ground Floor',$,$,#43,$,$,.ELEMENT.,$);
#23=IFCOWNERHISTORY(#3,#4,.READWRITE.,.ADDED.,1778918827,#3,#4,1778918827);
#24=IFCRELAGGREGATES('2xrioviF1Oa8Ed9IPjH7Al',#23,$,$,#6,(#18));
#25=IFCOWNERHISTORY(#3,#4,.READWRITE.,.ADDED.,1778918827,#3,#4,1778918827);
#26=IFCRELAGGREGATES('0tav3Uwh5MGwfLukaWfiso',#25,$,$,#18,(#20));
#27=IFCOWNERHISTORY(#3,#4,.READWRITE.,.ADDED.,1778918827,#3,#4,1778918827);
#28=IFCRELAGGREGATES('2VH3veIkLP5vbMho0YiBO3',#27,$,$,#20,(#22));
#29=IFCCARTESIANPOINT((0.,0.,0.));
#30=IFCDIRECTION((0.,0.,1.));
#31=IFCDIRECTION((1.,0.,0.));
#32=IFCAXIS2PLACEMENT3D(#29,#30,#31);
#33=IFCLOCALPLACEMENT($,#32);
#34=IFCCARTESIANPOINT((0.,0.,0.));
#35=IFCDIRECTION((0.,0.,1.));
#36=IFCDIRECTION((1.,0.,0.));
#37=IFCAXIS2PLACEMENT3D(#34,#35,#36);
#38=IFCLOCALPLACEMENT(#33,#37);
#39=IFCCARTESIANPOINT((0.,0.,0.));
#40=IFCDIRECTION((0.,0.,1.));
#41=IFCDIRECTION((1.,0.,0.));
#42=IFCAXIS2PLACEMENT3D(#39,#40,#41);
#43=IFCLOCALPLACEMENT(#38,#42);
#44=IFCMATERIAL('Engineered Oak Floor');
#45=IFCSURFACESTYLE('Engineered Oak Floor Style',.BOTH.,(#46));
#46=IFCSURFACESTYLESHADING(#47);
#47=IFCCOLOURRGB('Engineered Oak Floor Colour',0.55000000000000004,0.40000000000000002,0.25);
#48=IFCPRESENTATIONSTYLEASSIGNMENT((#45));
#49=IFCSTYLEDITEM($,(#48),'Engineered Oak Floor Style');
#50=IFCSTYLEDREPRESENTATION(#16,'Body',$,(#49));
#51=IFCMATERIALDEFINITIONREPRESENTATION($,$,(#50),#44);
#52=IFCMATERIAL('Painted Plaster');
#53=IFCSURFACESTYLE('Painted Plaster Style',.BOTH.,(#54));
#54=IFCSURFACESTYLESHADING(#55);
#55=IFCCOLOURRGB('Painted Plaster Colour',0.93999999999999995,0.93999999999999995,0.92000000000000004);
#56=IFCPRESENTATIONSTYLEASSIGNMENT((#53));
#57=IFCSTYLEDITEM($,(#56),'Painted Plaster Style');
#58=IFCSTYLEDREPRESENTATION(#16,'Body',$,(#57));
#59=IFCMATERIALDEFINITIONREPRESENTATION($,$,(#58),#52);
#60=IFCMATERIAL('Walnut Veneer');
#61=IFCSURFACESTYLE('Walnut Veneer Style',.BOTH.,(#62));
#62=IFCSURFACESTYLESHADING(#63);
#63=IFCCOLOURRGB('Walnut Veneer Colour',0.22,0.14000000000000001,0.089999999999999997);
#64=IFCPRESENTATIONSTYLEASSIGNMENT((#61));
#65=IFCSTYLEDITEM($,(#64),'Walnut Veneer Style');
#66=IFCSTYLEDREPRESENTATION(#16,'Body',$,(#65));
#67=IFCMATERIALDEFINITIONREPRESENTATION($,$,(#66),#60);
#68=IFCMATERIAL('Matte Black Laminate');
#69=IFCSURFACESTYLE('Matte Black Laminate Style',.BOTH.,(#70));
#70=IFCSURFACESTYLESHADING(#71);
#71=IFCCOLOURRGB('Matte Black Laminate Colour',0.080000000000000002,0.080000000000000002,0.080000000000000002);
#72=IFCPRESENTATIONSTYLEASSIGNMENT((#69));
#73=IFCSTYLEDITEM($,(#72),'Matte Black Laminate Style');
#74=IFCSTYLEDREPRESENTATION(#16,'Body',$,(#73));
#75=IFCMATERIALDEFINITIONREPRESENTATION($,$,(#74),#68);
#76=IFCMATERIAL('Chrome Finish');
#77=IFCSURFACESTYLE('Chrome Finish Style',.BOTH.,(#78));
#78=IFCSURFACESTYLESHADING(#79);
#79=IFCCOLOURRGB('Chrome Finish Colour',0.84999999999999998,0.84999999999999998,0.88);
#80=IFCPRESENTATIONSTYLEASSIGNMENT((#77));
#81=IFCSTYLEDITEM($,(#80),'Chrome Finish Style');
#82=IFCSTYLEDREPRESENTATION(#16,'Body',$,(#81));
#83=IFCMATERIALDEFINITIONREPRESENTATION($,$,(#82),#76);
#84=IFCMATERIAL('White Linen');
#85=IFCSURFACESTYLE('White Linen Style',.BOTH.,(#86));
#86=IFCSURFACESTYLESHADING(#87);
#87=IFCCOLOURRGB('White Linen Colour',0.95999999999999996,0.94999999999999996,0.92000000000000004);
#88=IFCPRESENTATIONSTYLEASSIGNMENT((#85));
#89=IFCSTYLEDITEM($,(#88),'White Linen Style');
#90=IFCSTYLEDREPRESENTATION(#16,'Body',$,(#89));
#91=IFCMATERIALDEFINITIONREPRESENTATION($,$,(#90),#84);
#92=IFCMATERIAL('Mixed Media Foliage');
#93=IFCSURFACESTYLE('Mixed Media Foliage Style',.BOTH.,(#94));
#94=IFCSURFACESTYLESHADING(#95);
#95=IFCCOLOURRGB('Mixed Media Foliage Colour',0.29999999999999999,0.5,0.20000000000000001);
#96=IFCPRESENTATIONSTYLEASSIGNMENT((#93));
#97=IFCSTYLEDITEM($,(#96),'Mixed Media Foliage Style');
#98=IFCSTYLEDREPRESENTATION(#16,'Body',$,(#97));
#99=IFCMATERIALDEFINITIONREPRESENTATION($,$,(#98),#92);
#100=IFCOWNERHISTORY(#3,#4,.READWRITE.,.ADDED.,1778918827,#3,#4,1778918827);
#101=IFCSPACE('0wNgoTRXjMXfKU_z34lg4V',#100,'SP-BEDROOM',$,'PrivateLiving',#117,#114,'Master Bedroom',.ELEMENT.,$,$);
#102=IFCCARTESIANPOINT((0.,0.));
#103=IFCCARTESIANPOINT((4.,0.));
#104=IFCCARTESIANPOINT((4.,5.));
#105=IFCCARTESIANPOINT((0.,5.));
#106=IFCCARTESIANPOINT((0.,0.));
#107=IFCPOLYLINE((#102,#103,#104,#105,#106));
#108=IFCARBITRARYCLOSEDPROFILEDEF(.AREA.,$,#107);
#109=IFCCARTESIANPOINT((0.,0.,0.));
#110=IFCAXIS2PLACEMENT3D(#109,$,$);
#111=IFCDIRECTION((0.,0.,1.));
#112=IFCEXTRUDEDAREASOLID(#108,#110,#111,2.7000000000000002);
#113=IFCSHAPEREPRESENTATION(#16,'Body','SweptSolid',(#112));
#114=IFCPRODUCTDEFINITIONSHAPE($,$,(#113));
#115=IFCCARTESIANPOINT((0.,0.,0.));
#116=IFCAXIS2PLACEMENT3D(#115,$,$);
#117=IFCLOCALPLACEMENT(#43,#116);
#118=IFCOWNERHISTORY(#3,#4,.READWRITE.,.MODIFIED.,1778918843,#3,#4,1778918843);
#119=IFCSLAB('0pf5yy4xrKpv$c6WThSdGw',#118,'FLOOR',$,$,#140,#128,'FLOOR',.FLOOR.);
#120=IFCCARTESIANPOINT((0.,0.));
#121=IFCAXIS2PLACEMENT2D(#120,$);
#122=IFCRECTANGLEPROFILEDEF(.AREA.,$,#121,4.,5.);
#123=IFCCARTESIANPOINT((0.,0.,0.));
#124=IFCAXIS2PLACEMENT3D(#123,$,$);
#125=IFCDIRECTION((0.,0.,1.));
#126=IFCEXTRUDEDAREASOLID(#122,#124,#125,0.050000000000000003);
#127=IFCSHAPEREPRESENTATION(#16,'Body','SweptSolid',(#126));
#128=IFCPRODUCTDEFINITIONSHAPE($,$,(#127));
#134=IFCOWNERHISTORY(#3,#4,.READWRITE.,.MODIFIED.,1778918861,#3,#4,1778918843);
#135=IFCRELCONTAINEDINSPATIALSTRUCTURE('1i4pluRsfOthZHp72YxTZ9',#134,$,$,(#205,#184,#163,#416,#142,#395,#374,#353,#310,#332,#289,#268,#542,#521,#247,#500,#226,#479,#458,#437,#119),#22);
#136=IFCCARTESIANPOINT((0.,0.,0.));
#137=IFCDIRECTION((0.,0.,1.));
#138=IFCDIRECTION((1.,0.,0.));
#139=IFCAXIS2PLACEMENT3D(#136,#137,#138);
#140=IFCLOCALPLACEMENT(#43,#139);
#141=IFCOWNERHISTORY(#3,#4,.READWRITE.,.MODIFIED.,1778918843,#3,#4,1778918843);
#142=IFCWALL('1gf_KjPsHHNxASVkxElhai',#141,'WALL-N',$,$,#161,#151,'WALL-N');
#143=IFCCARTESIANPOINT((0.,0.));
#144=IFCAXIS2PLACEMENT2D(#143,$);
#145=IFCRECTANGLEPROFILEDEF(.AREA.,$,#144,4.,0.10000000000000001);
#146=IFCCARTESIANPOINT((0.,0.,0.));
#147=IFCAXIS2PLACEMENT3D(#146,$,$);
#148=IFCDIRECTION((0.,0.,1.));
#149=IFCEXTRUDEDAREASOLID(#145,#147,#148,2.6499999999999999);
#150=IFCSHAPEREPRESENTATION(#16,'Body','SweptSolid',(#149));
#151=IFCPRODUCTDEFINITIONSHAPE($,$,(#150));
#157=IFCCARTESIANPOINT((0.,4.9000000000000004,0.050000000000000003));
#158=IFCDIRECTION((0.,0.,1.));
#159=IFCDIRECTION((1.,0.,0.));
#160=IFCAXIS2PLACEMENT3D(#157,#158,#159);
#161=IFCLOCALPLACEMENT(#43,#160);
#162=IFCOWNERHISTORY(#3,#4,.READWRITE.,.MODIFIED.,1778918843,#3,#4,1778918843);
#163=IFCWALL('1ALemF0zrQzuKD6aruOUwM',#162,'WALL-S',$,$,#182,#172,'WALL-S');
#164=IFCCARTESIANPOINT((0.,0.));
#165=IFCAXIS2PLACEMENT2D(#164,$);
#166=IFCRECTANGLEPROFILEDEF(.AREA.,$,#165,4.,0.10000000000000001);
#167=IFCCARTESIANPOINT((0.,0.,0.));
#168=IFCAXIS2PLACEMENT3D(#167,$,$);
#169=IFCDIRECTION((0.,0.,1.));
#170=IFCEXTRUDEDAREASOLID(#166,#168,#169,2.6499999999999999);
#171=IFCSHAPEREPRESENTATION(#16,'Body','SweptSolid',(#170));
#172=IFCPRODUCTDEFINITIONSHAPE($,$,(#171));
#178=IFCCARTESIANPOINT((0.,0.,0.050000000000000003));
#179=IFCDIRECTION((0.,0.,1.));
#180=IFCDIRECTION((1.,0.,0.));
#181=IFCAXIS2PLACEMENT3D(#178,#179,#180);
#182=IFCLOCALPLACEMENT(#43,#181);
#183=IFCOWNERHISTORY(#3,#4,.READWRITE.,.MODIFIED.,1778918843,#3,#4,1778918843);
#184=IFCWALL('2xrioviF1Oa8Ed9IPjH7Al',#183,'WALL-E',$,$,#203,#193,'WALL-E');
#185=IFCCARTESIANPOINT((0.,0.));
#186=IFCAXIS2PLACEMENT2D(#185,$);
#187=IFCRECTANGLEPROFILEDEF(.AREA.,$,#186,0.10000000000000001,5.);
#188=IFCCARTESIANPOINT((0.,0.,0.));
#189=IFCAXIS2PLACEMENT3D(#188,$,$);
#190=IFCDIRECTION((0.,0.,1.));
#191=IFCEXTRUDEDAREASOLID(#187,#189,#190,2.6499999999999999);
#192=IFCSHAPEREPRESENTATION(#16,'Body','SweptSolid',(#191));
#193=IFCPRODUCTDEFINITIONSHAPE($,$,(#192));
#199=IFCCARTESIANPOINT((3.8999999999999999,0.,0.050000000000000003));
#200=IFCDIRECTION((0.,0.,1.));
#201=IFCDIRECTION((1.,0.,0.));
#202=IFCAXIS2PLACEMENT3D(#199,#200,#201);
#203=IFCLOCALPLACEMENT(#43,#202);
#204=IFCOWNERHISTORY(#3,#4,.READWRITE.,.MODIFIED.,1778918843,#3,#4,1778918843);
#205=IFCWALL('0tav3Uwh5MGwfLukaWfiso',#204,'WALL-W',$,$,#224,#214,'WALL-W');
#206=IFCCARTESIANPOINT((0.,0.));
#207=IFCAXIS2PLACEMENT2D(#206,$);
#208=IFCRECTANGLEPROFILEDEF(.AREA.,$,#207,0.10000000000000001,5.);
#209=IFCCARTESIANPOINT((0.,0.,0.));
#210=IFCAXIS2PLACEMENT3D(#209,$,$);
#211=IFCDIRECTION((0.,0.,1.));
#212=IFCEXTRUDEDAREASOLID(#208,#210,#211,2.6499999999999999);
#213=IFCSHAPEREPRESENTATION(#16,'Body','SweptSolid',(#212));
#214=IFCPRODUCTDEFINITIONSHAPE($,$,(#213));
#220=IFCCARTESIANPOINT((0.,0.,0.050000000000000003));
#221=IFCDIRECTION((0.,0.,1.));
#222=IFCDIRECTION((1.,0.,0.));
#223=IFCAXIS2PLACEMENT3D(#220,#221,#222);
#224=IFCLOCALPLACEMENT(#43,#223);
#225=IFCOWNERHISTORY(#3,#4,.READWRITE.,.MODIFIED.,1778918843,#3,#4,1778918843);
#226=IFCFURNISHINGELEMENT('2VH3veIkLP5vbMho0YiBO3',#225,'BED-FRAME',$,'Bed Frame',#245,#235,'BED-FRAME');
#227=IFCCARTESIANPOINT((0.,0.));
#228=IFCAXIS2PLACEMENT2D(#227,$);
#229=IFCRECTANGLEPROFILEDEF(.AREA.,$,#228,1.5,2.);
#230=IFCCARTESIANPOINT((0.,0.,0.));
#231=IFCAXIS2PLACEMENT3D(#230,$,$);
#232=IFCDIRECTION((0.,0.,1.));
#233=IFCEXTRUDEDAREASOLID(#229,#231,#232,0.40000000000000002);
#234=IFCSHAPEREPRESENTATION(#16,'Body','SweptSolid',(#233));
#235=IFCPRODUCTDEFINITIONSHAPE($,$,(#234));
#241=IFCCARTESIANPOINT((1.25,0.5,0.050000000000000003));
#242=IFCDIRECTION((0.,0.,1.));
#243=IFCDIRECTION((1.,0.,0.));
#244=IFCAXIS2PLACEMENT3D(#241,#242,#243);
#245=IFCLOCALPLACEMENT(#43,#244);
#246=IFCOWNERHISTORY(#3,#4,.READWRITE.,.MODIFIED.,1778918843,#3,#4,1778918843);
#247=IFCBUILDINGELEMENTPROXY('0wNgoTRXjMXfKU_z34lg4V',#246,'MATTRESS',$,'Mattress',#266,#256,'MATTRESS',.ELEMENT.);
#248=IFCCARTESIANPOINT((0.,0.));
#249=IFCAXIS2PLACEMENT2D(#248,$);
#250=IFCRECTANGLEPROFILEDEF(.AREA.,$,#249,1.5,2.);
#251=IFCCARTESIANPOINT((0.,0.,0.));
#252=IFCAXIS2PLACEMENT3D(#251,$,$);
#253=IFCDIRECTION((0.,0.,1.));
#254=IFCEXTRUDEDAREASOLID(#250,#252,#253,0.25);
#255=IFCSHAPEREPRESENTATION(#16,'Body','SweptSolid',(#254));
#256=IFCPRODUCTDEFINITIONSHAPE($,$,(#255));
#262=IFCCARTESIANPOINT((1.25,0.5,0.45000000000000001));
#263=IFCDIRECTION((0.,0.,1.));
#264=IFCDIRECTION((1.,0.,0.));
#265=IFCAXIS2PLACEMENT3D(#262,#263,#264);
#266=IFCLOCALPLACEMENT(#43,#265);
#267=IFCOWNERHISTORY(#3,#4,.READWRITE.,.MODIFIED.,1778918843,#3,#4,1778918843);
#268=IFCFURNISHINGELEMENT('1JehoPcc5IEQDljBPODbm3',#267,'BEDSIDE-L',$,'Bedside Table',#287,#277,'BEDSIDE-L');
#269=IFCCARTESIANPOINT((0.,0.));
#270=IFCAXIS2PLACEMENT2D(#269,$);
#271=IFCRECTANGLEPROFILEDEF(.AREA.,$,#270,0.5,0.40000000000000002);
#272=IFCCARTESIANPOINT((0.,0.,0.));
#273=IFCAXIS2PLACEMENT3D(#272,$,$);
#274=IFCDIRECTION((0.,0.,1.));
#275=IFCEXTRUDEDAREASOLID(#271,#273,#274,0.55000000000000004);
#276=IFCSHAPEREPRESENTATION(#16,'Body','SweptSolid',(#275));
#277=IFCPRODUCTDEFINITIONSHAPE($,$,(#276));
#283=IFCCARTESIANPOINT((0.55000000000000004,1.,0.050000000000000003));
#284=IFCDIRECTION((0.,0.,1.));
#285=IFCDIRECTION((1.,0.,0.));
#286=IFCAXIS2PLACEMENT3D(#283,#284,#285);
#287=IFCLOCALPLACEMENT(#43,#286);
#288=IFCOWNERHISTORY(#3,#4,.READWRITE.,.MODIFIED.,1778918843,#3,#4,1778918843);
#289=IFCFURNISHINGELEMENT('2lyOuwuFfRqB6vRqDXOY8w',#288,'BEDSIDE-R',$,'Bedside Table',#308,#298,'BEDSIDE-R');
#290=IFCCARTESIANPOINT((0.,0.));
#291=IFCAXIS2PLACEMENT2D(#290,$);
#292=IFCRECTANGLEPROFILEDEF(.AREA.,$,#291,0.5,0.40000000000000002);
#293=IFCCARTESIANPOINT((0.,0.,0.));
#294=IFCAXIS2PLACEMENT3D(#293,$,$);
#295=IFCDIRECTION((0.,0.,1.));
#296=IFCEXTRUDEDAREASOLID(#292,#294,#295,0.55000000000000004);
#297=IFCSHAPEREPRESENTATION(#16,'Body','SweptSolid',(#296));
#298=IFCPRODUCTDEFINITIONSHAPE($,$,(#297));
#304=IFCCARTESIANPOINT((2.9500000000000002,1.,0.050000000000000003));
#305=IFCDIRECTION((0.,0.,1.));
#306=IFCDIRECTION((1.,0.,0.));
#307=IFCAXIS2PLACEMENT3D(#304,#305,#306);
#308=IFCLOCALPLACEMENT(#43,#307);
#309=IFCOWNERHISTORY(#3,#4,.READWRITE.,.MODIFIED.,1778918843,#3,#4,1778918843);
#310=IFCFURNISHINGELEMENT('0S20Nf18zQauxYZ7c90Zh_',#309,'LAMP-L-BODY',$,'Lamp Body',#329,#319,'LAMP-L-BODY');
#311=IFCCARTESIANPOINT((0.,0.));
#312=IFCAXIS2PLACEMENT2D(#311,$);
#313=IFCRECTANGLEPROFILEDEF(.AREA.,$,#312,0.10000000000000001,0.10000000000000001);
#314=IFCCARTESIANPOINT((0.,0.,0.));
#315=IFCAXIS2PLACEMENT3D(#314,$,$);
#316=IFCDIRECTION((0.,0.,1.));
#317=IFCEXTRUDEDAREASOLID(#313,#315,#316,0.25);
#318=IFCSHAPEREPRESENTATION(#16,'Body','SweptSolid',(#317));
#319=IFCPRODUCTDEFINITIONSHAPE($,$,(#318));
#325=IFCCARTESIANPOINT((0.69999999999999996,1.1499999999999999,0.59999999999999998));
#326=IFCDIRECTION((0.,0.,1.));
#327=IFCDIRECTION((1.,0.,0.));
#328=IFCAXIS2PLACEMENT3D(#325,#326,#327);
#329=IFCLOCALPLACEMENT(#43,#328);
#330=IFCOWNERHISTORY(#3,#4,.READWRITE.,.ADDED.,1778918843,#3,#4,1778918843);
#331=IFCOWNERHISTORY(#3,#4,.READWRITE.,.MODIFIED.,1778918861,#3,#4,1778918861);
#332=IFCBUILDINGELEMENTPROXY('0pf5yy4xrKpv$c6WThSdGw',#331,'LAMP-L-SHADE',$,'Lamp Shade',#351,#341,'LAMP-L-SHADE',.ELEMENT.);
#333=IFCCARTESIANPOINT((0.,0.));
#334=IFCAXIS2PLACEMENT2D(#333,$);
#335=IFCRECTANGLEPROFILEDEF(.AREA.,$,#334,0.20000000000000001,0.20000000000000001);
#336=IFCCARTESIANPOINT((0.,0.,0.));
#337=IFCAXIS2PLACEMENT3D(#336,$,$);
#338=IFCDIRECTION((0.,0.,1.));
#339=IFCEXTRUDEDAREASOLID(#335,#337,#338,0.17999999999999999);
#340=IFCSHAPEREPRESENTATION(#16,'Body','SweptSolid',(#339));
#341=IFCPRODUCTDEFINITIONSHAPE($,$,(#340));
#347=IFCCARTESIANPOINT((0.65000000000000002,1.1000000000000001,0.84999999999999998));
#348=IFCDIRECTION((0.,0.,1.));
#349=IFCDIRECTION((1.,0.,0.));
#350=IFCAXIS2PLACEMENT3D(#347,#348,#349);
#351=IFCLOCALPLACEMENT(#43,#350);
#352=IFCOWNERHISTORY(#3,#4,.READWRITE.,.MODIFIED.,1778918861,#3,#4,1778918861);
#353=IFCFURNISHINGELEMENT('1i4pluRsfOthZHp72YxTZ9',#352,'LAMP-R-BODY',$,'Lamp Body',#372,#362,'LAMP-R-BODY');
#354=IFCCARTESIANPOINT((0.,0.));
#355=IFCAXIS2PLACEMENT2D(#354,$);
#356=IFCRECTANGLEPROFILEDEF(.AREA.,$,#355,0.10000000000000001,0.10000000000000001);
#357=IFCCARTESIANPOINT((0.,0.,0.));
#358=IFCAXIS2PLACEMENT3D(#357,$,$);
#359=IFCDIRECTION((0.,0.,1.));
#360=IFCEXTRUDEDAREASOLID(#356,#358,#359,0.25);
#361=IFCSHAPEREPRESENTATION(#16,'Body','SweptSolid',(#360));
#362=IFCPRODUCTDEFINITIONSHAPE($,$,(#361));
#368=IFCCARTESIANPOINT((3.1000000000000001,1.1499999999999999,0.59999999999999998));
#369=IFCDIRECTION((0.,0.,1.));
#370=IFCDIRECTION((1.,0.,0.));
#371=IFCAXIS2PLACEMENT3D(#368,#369,#370);
#372=IFCLOCALPLACEMENT(#43,#371);
#373=IFCOWNERHISTORY(#3,#4,.READWRITE.,.MODIFIED.,1778918861,#3,#4,1778918861);
#374=IFCBUILDINGELEMENTPROXY('1gf_KjPsHHNxASVkxElhai',#373,'LAMP-R-SHADE',$,'Lamp Shade',#393,#383,'LAMP-R-SHADE',.ELEMENT.);
#375=IFCCARTESIANPOINT((0.,0.));
#376=IFCAXIS2PLACEMENT2D(#375,$);
#377=IFCRECTANGLEPROFILEDEF(.AREA.,$,#376,0.20000000000000001,0.20000000000000001);
#378=IFCCARTESIANPOINT((0.,0.,0.));
#379=IFCAXIS2PLACEMENT3D(#378,$,$);
#380=IFCDIRECTION((0.,0.,1.));
#381=IFCEXTRUDEDAREASOLID(#377,#379,#380,0.17999999999999999);
#382=IFCSHAPEREPRESENTATION(#16,'Body','SweptSolid',(#381));
#383=IFCPRODUCTDEFINITIONSHAPE($,$,(#382));
#389=IFCCARTESIANPOINT((3.0499999999999998,1.1000000000000001,0.84999999999999998));
#390=IFCDIRECTION((0.,0.,1.));
#391=IFCDIRECTION((1.,0.,0.));
#392=IFCAXIS2PLACEMENT3D(#389,#390,#391);
#393=IFCLOCALPLACEMENT(#43,#392);
#394=IFCOWNERHISTORY(#3,#4,.READWRITE.,.MODIFIED.,1778918861,#3,#4,1778918861);
#395=IFCFURNISHINGELEMENT('1ALemF0zrQzuKD6aruOUwM',#394,'DRESSER',$,'Dresser',#414,#404,'DRESSER');
#396=IFCCARTESIANPOINT((0.,0.));
#397=IFCAXIS2PLACEMENT2D(#396,$);
#398=IFCRECTANGLEPROFILEDEF(.AREA.,$,#397,1.5,0.5);
#399=IFCCARTESIANPOINT((0.,0.,0.));
#400=IFCAXIS2PLACEMENT3D(#399,$,$);
#401=IFCDIRECTION((0.,0.,1.));
#402=IFCEXTRUDEDAREASOLID(#398,#400,#401,0.90000000000000002);
#403=IFCSHAPEREPRESENTATION(#16,'Body','SweptSolid',(#402));
#404=IFCPRODUCTDEFINITIONSHAPE($,$,(#403));
#410=IFCCARTESIANPOINT((0.5,3.5,0.050000000000000003));
#411=IFCDIRECTION((0.,0.,1.));
#412=IFCDIRECTION((1.,0.,0.));
#413=IFCAXIS2PLACEMENT3D(#410,#411,#412);
#414=IFCLOCALPLACEMENT(#43,#413);
#415=IFCOWNERHISTORY(#3,#4,.READWRITE.,.MODIFIED.,1778918861,#3,#4,1778918861);
#416=IFCFURNISHINGELEMENT('2xrioviF1Oa8Ed9IPjH7Al',#415,'WARDROBE',$,'Wardrobe',#435,#425,'WARDROBE');
#417=IFCCARTESIANPOINT((0.,0.));
#418=IFCAXIS2PLACEMENT2D(#417,$);
#419=IFCRECTANGLEPROFILEDEF(.AREA.,$,#418,2.,0.59999999999999998);
#420=IFCCARTESIANPOINT((0.,0.,0.));
#421=IFCAXIS2PLACEMENT3D(#420,$,$);
#422=IFCDIRECTION((0.,0.,1.));
#423=IFCEXTRUDEDAREASOLID(#419,#421,#422,2.3999999999999999);
#424=IFCSHAPEREPRESENTATION(#16,'Body','SweptSolid',(#423));
#425=IFCPRODUCTDEFINITIONSHAPE($,$,(#424));
#431=IFCCARTESIANPOINT((1.,4.2999999999999998,0.050000000000000003));
#432=IFCDIRECTION((0.,0.,1.));
#433=IFCDIRECTION((1.,0.,0.));
#434=IFCAXIS2PLACEMENT3D(#431,#432,#433);
#435=IFCLOCALPLACEMENT(#43,#434);
#436=IFCOWNERHISTORY(#3,#4,.READWRITE.,.MODIFIED.,1778918861,#3,#4,1778918861);
#437=IFCBUILDINGELEMENTPROXY('0tav3Uwh5MGwfLukaWfiso',#436,'WINDOW-S',$,'Window',#456,#446,'WINDOW-S',.ELEMENT.);
#438=IFCCARTESIANPOINT((0.,0.));
#439=IFCAXIS2PLACEMENT2D(#438,$);
#440=IFCRECTANGLEPROFILEDEF(.AREA.,$,#439,1.5,0.02);
#441=IFCCARTESIANPOINT((0.,0.,0.));
#442=IFCAXIS2PLACEMENT3D(#441,$,$);
#443=IFCDIRECTION((0.,0.,1.));
#444=IFCEXTRUDEDAREASOLID(#440,#442,#443,1.3999999999999999);
#445=IFCSHAPEREPRESENTATION(#16,'Body','SweptSolid',(#444));
#446=IFCPRODUCTDEFINITIONSHAPE($,$,(#445));
#452=IFCCARTESIANPOINT((1.,0.050000000000000003,0.80000000000000004));
#453=IFCDIRECTION((0.,0.,1.));
#454=IFCDIRECTION((1.,0.,0.));
#455=IFCAXIS2PLACEMENT3D(#452,#453,#454);
#456=IFCLOCALPLACEMENT(#43,#455);
#457=IFCOWNERHISTORY(#3,#4,.READWRITE.,.MODIFIED.,1778918861,#3,#4,1778918861);
#458=IFCBUILDINGELEMENTPROXY('2VH3veIkLP5vbMho0YiBO3',#457,'PENDANT-CEILING',$,'Ceiling Pendant',#477,#467,'PENDANT-CEILING',.ELEMENT.);
#459=IFCCARTESIANPOINT((0.,0.));
#460=IFCAXIS2PLACEMENT2D(#459,$);
#461=IFCRECTANGLEPROFILEDEF(.AREA.,$,#460,0.29999999999999999,0.29999999999999999);
#462=IFCCARTESIANPOINT((0.,0.,0.));
#463=IFCAXIS2PLACEMENT3D(#462,$,$);
#464=IFCDIRECTION((0.,0.,1.));
#465=IFCEXTRUDEDAREASOLID(#461,#463,#464,0.29999999999999999);
#466=IFCSHAPEREPRESENTATION(#16,'Body','SweptSolid',(#465));
#467=IFCPRODUCTDEFINITIONSHAPE($,$,(#466));
#473=IFCCARTESIANPOINT((1.95,2.5,2.3999999999999999));
#474=IFCDIRECTION((0.,0.,1.));
#475=IFCDIRECTION((1.,0.,0.));
#476=IFCAXIS2PLACEMENT3D(#473,#474,#475);
#477=IFCLOCALPLACEMENT(#43,#476);
#478=IFCOWNERHISTORY(#3,#4,.READWRITE.,.MODIFIED.,1778918861,#3,#4,1778918861);
#479=IFCFURNISHINGELEMENT('0wNgoTRXjMXfKU_z34lg4V',#478,'PLANTER-01',$,'Floor Planter',#498,#488,'PLANTER-01');
#480=IFCCARTESIANPOINT((0.,0.));
#481=IFCAXIS2PLACEMENT2D(#480,$);
#482=IFCRECTANGLEPROFILEDEF(.AREA.,$,#481,0.40000000000000002,0.40000000000000002);
#483=IFCCARTESIANPOINT((0.,0.,0.));
#484=IFCAXIS2PLACEMENT3D(#483,$,$);
#485=IFCDIRECTION((0.,0.,1.));
#486=IFCEXTRUDEDAREASOLID(#482,#484,#485,0.40000000000000002);
#487=IFCSHAPEREPRESENTATION(#16,'Body','SweptSolid',(#486));
#488=IFCPRODUCTDEFINITIONSHAPE($,$,(#487));
#494=IFCCARTESIANPOINT((0.29999999999999999,4.4000000000000004,0.050000000000000003));
#495=IFCDIRECTION((0.,0.,1.));
#496=IFCDIRECTION((1.,0.,0.));
#497=IFCAXIS2PLACEMENT3D(#494,#495,#496);
#498=IFCLOCALPLACEMENT(#43,#497);
#499=IFCOWNERHISTORY(#3,#4,.READWRITE.,.MODIFIED.,1778918861,#3,#4,1778918861);
#500=IFCBUILDINGELEMENTPROXY('1JehoPcc5IEQDljBPODbm3',#499,'PLANTER-01-FOLIAGE',$,'Planter Foliage',#519,#509,'PLANTER-01-FOLIAGE',.ELEMENT.);
#501=IFCCARTESIANPOINT((0.,0.));
#502=IFCAXIS2PLACEMENT2D(#501,$);
#503=IFCRECTANGLEPROFILEDEF(.AREA.,$,#502,0.5,0.5);
#504=IFCCARTESIANPOINT((0.,0.,0.));
#505=IFCAXIS2PLACEMENT3D(#504,$,$);
#506=IFCDIRECTION((0.,0.,1.));
#507=IFCEXTRUDEDAREASOLID(#503,#505,#506,0.59999999999999998);
#508=IFCSHAPEREPRESENTATION(#16,'Body','SweptSolid',(#507));
#509=IFCPRODUCTDEFINITIONSHAPE($,$,(#508));
#515=IFCCARTESIANPOINT((0.29999999999999999,4.4000000000000004,0.40000000000000002));
#516=IFCDIRECTION((0.,0.,1.));
#517=IFCDIRECTION((1.,0.,0.));
#518=IFCAXIS2PLACEMENT3D(#515,#516,#517);
#519=IFCLOCALPLACEMENT(#43,#518);
#520=IFCOWNERHISTORY(#3,#4,.READWRITE.,.MODIFIED.,1778918861,#3,#4,1778918861);
#521=IFCFURNISHINGELEMENT('2lyOuwuFfRqB6vRqDXOY8w',#520,'PLANTER-02',$,'Floor Planter',#540,#530,'PLANTER-02');
#522=IFCCARTESIANPOINT((0.,0.));
#523=IFCAXIS2PLACEMENT2D(#522,$);
#524=IFCRECTANGLEPROFILEDEF(.AREA.,$,#523,0.40000000000000002,0.40000000000000002);
#525=IFCCARTESIANPOINT((0.,0.,0.));
#526=IFCAXIS2PLACEMENT3D(#525,$,$);
#527=IFCDIRECTION((0.,0.,1.));
#528=IFCEXTRUDEDAREASOLID(#524,#526,#527,0.40000000000000002);
#529=IFCSHAPEREPRESENTATION(#16,'Body','SweptSolid',(#528));
#530=IFCPRODUCTDEFINITIONSHAPE($,$,(#529));
#536=IFCCARTESIANPOINT((3.2999999999999998,0.59999999999999998,0.050000000000000003));
#537=IFCDIRECTION((0.,0.,1.));
#538=IFCDIRECTION((1.,0.,0.));
#539=IFCAXIS2PLACEMENT3D(#536,#537,#538);
#540=IFCLOCALPLACEMENT(#43,#539);
#541=IFCOWNERHISTORY(#3,#4,.READWRITE.,.MODIFIED.,1778918861,#3,#4,1778918861);
#542=IFCBUILDINGELEMENTPROXY('0S20Nf18zQauxYZ7c90Zh_',#541,'PLANTER-02-FOLIAGE',$,'Planter Foliage',#561,#551,'PLANTER-02-FOLIAGE',.ELEMENT.);
#543=IFCCARTESIANPOINT((0.,0.));
#544=IFCAXIS2PLACEMENT2D(#543,$);
#545=IFCRECTANGLEPROFILEDEF(.AREA.,$,#544,0.5,0.5);
#546=IFCCARTESIANPOINT((0.,0.,0.));
#547=IFCAXIS2PLACEMENT3D(#546,$,$);
#548=IFCDIRECTION((0.,0.,1.));
#549=IFCEXTRUDEDAREASOLID(#545,#547,#548,0.59999999999999998);
#550=IFCSHAPEREPRESENTATION(#16,'Body','SweptSolid',(#549));
#551=IFCPRODUCTDEFINITIONSHAPE($,$,(#550));
#557=IFCCARTESIANPOINT((3.2999999999999998,0.59999999999999998,0.40000000000000002));
#558=IFCDIRECTION((0.,0.,1.));
#559=IFCDIRECTION((1.,0.,0.));
#560=IFCAXIS2PLACEMENT3D(#557,#558,#559);
#561=IFCLOCALPLACEMENT(#43,#560);
#562=IFCOWNERHISTORY(#3,#4,.READWRITE.,.ADDED.,1778918870,#3,#4,1778918870);
#563=IFCPROPERTYSET('0pf5yy4xrKpv$c6WThSdGw',#562,'Pset_BuildFlowExhibitionElement',$,(#566,#567,#568));
#564=IFCOWNERHISTORY(#3,#4,.READWRITE.,.ADDED.,1778918870,#3,#4,1778918870);
#565=IFCRELDEFINESBYPROPERTIES('1i4pluRsfOthZHp72YxTZ9',#564,$,$,(#119),#563);
#566=IFCPROPERTYSINGLEVALUE('Description',$,IFCLABEL('Wood floor slab'),$);
#567=IFCPROPERTYSINGLEVALUE('Material',$,IFCLABEL('Engineered Oak Floor'),$);
#568=IFCPROPERTYSINGLEVALUE('IsExhibitElement',$,IFCBOOLEAN(.F.),$);
#569=IFCOWNERHISTORY(#3,#4,.READWRITE.,.ADDED.,1778918870,#3,#4,1778918870);
#570=IFCPROPERTYSET('1gf_KjPsHHNxASVkxElhai',#569,'Pset_BuildFlowExhibitionElement',$,(#573,#574,#575));
#571=IFCOWNERHISTORY(#3,#4,.READWRITE.,.ADDED.,1778918870,#3,#4,1778918870);
#572=IFCRELDEFINESBYPROPERTIES('1ALemF0zrQzuKD6aruOUwM',#571,$,$,(#142),#570);
#573=IFCPROPERTYSINGLEVALUE('Description',$,IFCLABEL('North wall'),$);
#574=IFCPROPERTYSINGLEVALUE('Material',$,IFCLABEL('Painted Plaster'),$);
#575=IFCPROPERTYSINGLEVALUE('IsExhibitElement',$,IFCBOOLEAN(.F.),$);
#576=IFCOWNERHISTORY(#3,#4,.READWRITE.,.ADDED.,1778918870,#3,#4,1778918870);
#577=IFCPROPERTYSET('2xrioviF1Oa8Ed9IPjH7Al',#576,'Pset_BuildFlowExhibitionElement',$,(#580,#581,#582));
#578=IFCOWNERHISTORY(#3,#4,.READWRITE.,.ADDED.,1778918870,#3,#4,1778918870);
#579=IFCRELDEFINESBYPROPERTIES('0tav3Uwh5MGwfLukaWfiso',#578,$,$,(#163),#577);
#580=IFCPROPERTYSINGLEVALUE('Description',$,IFCLABEL('South wall'),$);
#581=IFCPROPERTYSINGLEVALUE('Material',$,IFCLABEL('Painted Plaster'),$);
#582=IFCPROPERTYSINGLEVALUE('IsExhibitElement',$,IFCBOOLEAN(.F.),$);
#583=IFCOWNERHISTORY(#3,#4,.READWRITE.,.ADDED.,1778918870,#3,#4,1778918870);
#584=IFCPROPERTYSET('2VH3veIkLP5vbMho0YiBO3',#583,'Pset_BuildFlowExhibitionElement',$,(#587,#588,#589));
#585=IFCOWNERHISTORY(#3,#4,.READWRITE.,.ADDED.,1778918870,#3,#4,1778918870);
#586=IFCRELDEFINESBYPROPERTIES('0wNgoTRXjMXfKU_z34lg4V',#585,$,$,(#184),#584);
#587=IFCPROPERTYSINGLEVALUE('Description',$,IFCLABEL('East wall'),$);
#588=IFCPROPERTYSINGLEVALUE('Material',$,IFCLABEL('Painted Plaster'),$);
#589=IFCPROPERTYSINGLEVALUE('IsExhibitElement',$,IFCBOOLEAN(.F.),$);
#590=IFCOWNERHISTORY(#3,#4,.READWRITE.,.ADDED.,1778918870,#3,#4,1778918870);
#591=IFCPROPERTYSET('1JehoPcc5IEQDljBPODbm3',#590,'Pset_BuildFlowExhibitionElement',$,(#594,#595,#596));
#592=IFCOWNERHISTORY(#3,#4,.READWRITE.,.ADDED.,1778918870,#3,#4,1778918870);
#593=IFCRELDEFINESBYPROPERTIES('2lyOuwuFfRqB6vRqDXOY8w',#592,$,$,(#205),#591);
#594=IFCPROPERTYSINGLEVALUE('Description',$,IFCLABEL('West wall'),$);
#595=IFCPROPERTYSINGLEVALUE('Material',$,IFCLABEL('Painted Plaster'),$);
#596=IFCPROPERTYSINGLEVALUE('IsExhibitElement',$,IFCBOOLEAN(.F.),$);
#597=IFCOWNERHISTORY(#3,#4,.READWRITE.,.ADDED.,1778918870,#3,#4,1778918870);
#598=IFCPROPERTYSET('0S20Nf18zQauxYZ7c90Zh_',#597,'Pset_BuildFlowExhibitionElement',$,(#601,#602,#603));
#599=IFCOWNERHISTORY(#3,#4,.READWRITE.,.ADDED.,1778918870,#3,#4,1778918870);
#600=IFCRELDEFINESBYPROPERTIES('2zc$FOVxnOnfI3IWH3c7nX',#599,$,$,(#226),#598);
#601=IFCPROPERTYSINGLEVALUE('Description',$,IFCLABEL('Queen bed frame, walnut'),$);
#602=IFCPROPERTYSINGLEVALUE('Material',$,IFCLABEL('Walnut Veneer'),$);
#603=IFCPROPERTYSINGLEVALUE('IsExhibitElement',$,IFCBOOLEAN(.F.),$);
#604=IFCOWNERHISTORY(#3,#4,.READWRITE.,.ADDED.,1778918870,#3,#4,1778918870);
#605=IFCPROPERTYSET('2OZA1yEubNWRlhHZy$GMFO',#604,'Pset_BuildFlowExhibitionElement',$,(#608,#609,#610));
#606=IFCOWNERHISTORY(#3,#4,.READWRITE.,.ADDED.,1778918870,#3,#4,1778918870);
#607=IFCRELDEFINESBYPROPERTIES('3cGw1i6e1PbODCo0vb6lQv',#606,$,$,(#247),#605);
#608=IFCPROPERTYSINGLEVALUE('Description',$,IFCLABEL('Mattress, white linen finish'),$);
#609=IFCPROPERTYSINGLEVALUE('Material',$,IFCLABEL('White Linen'),$);
#610=IFCPROPERTYSINGLEVALUE('IsExhibitElement',$,IFCBOOLEAN(.F.),$);
#611=IFCOWNERHISTORY(#3,#4,.READWRITE.,.ADDED.,1778918870,#3,#4,1778918870);
#612=IFCPROPERTYSET('3JGAveCsvVF8e$8mr2e$n_',#611,'Pset_BuildFlowExhibitionElement',$,(#615,#616,#617));
#613=IFCOWNERHISTORY(#3,#4,.READWRITE.,.ADDED.,1778918870,#3,#4,1778918870);
#614=IFCRELDEFINESBYPROPERTIES('3EiVetIazM4fhq4CSsJuiH',#613,$,$,(#268),#612);
#615=IFCPROPERTYSINGLEVALUE('Description',$,IFCLABEL('Bedside table left, walnut'),$);
#616=IFCPROPERTYSINGLEVALUE('Material',$,IFCLABEL('Walnut Veneer'),$);
#617=IFCPROPERTYSINGLEVALUE('IsExhibitElement',$,IFCBOOLEAN(.F.),$);
#618=IFCOWNERHISTORY(#3,#4,.READWRITE.,.ADDED.,1778918870,#3,#4,1778918870);
#619=IFCPROPERTYSET('3Nx0P0KYDVpBGJEDGfk6uG',#618,'Pset_BuildFlowExhibitionElement',$,(#622,#623,#624));
#620=IFCOWNERHISTORY(#3,#4,.READWRITE.,.ADDED.,1778918870,#3,#4,1778918870);
#621=IFCRELDEFINESBYPROPERTIES('2DH2XUaqPI7PLq_8tVB5$$',#620,$,$,(#289),#619);
#622=IFCPROPERTYSINGLEVALUE('Description',$,IFCLABEL('Bedside table right, walnut'),$);
#623=IFCPROPERTYSINGLEVALUE('Material',$,IFCLABEL('Walnut Veneer'),$);
#624=IFCPROPERTYSINGLEVALUE('IsExhibitElement',$,IFCBOOLEAN(.F.),$);
#625=IFCOWNERHISTORY(#3,#4,.READWRITE.,.ADDED.,1778918870,#3,#4,1778918870);
#626=IFCPROPERTYSET('123TTt$_PJKfjtHGUy$9Mc',#625,'Pset_BuildFlowExhibitionElement',$,(#629,#630,#631));
#627=IFCOWNERHISTORY(#3,#4,.READWRITE.,.ADDED.,1778918870,#3,#4,1778918870);
#628=IFCRELDEFINESBYPROPERTIES('2s4WFjEFPK_AFx5qxXe7dv',#627,$,$,(#310),#626);
#629=IFCPROPERTYSINGLEVALUE('Description',$,IFCLABEL('Left bedside lamp body, chrome'),$);
#630=IFCPROPERTYSINGLEVALUE('Material',$,IFCLABEL('Chrome Finish'),$);
#631=IFCPROPERTYSINGLEVALUE('IsExhibitElement',$,IFCBOOLEAN(.F.),$);
#632=IFCOWNERHISTORY(#3,#4,.READWRITE.,.ADDED.,1778918870,#3,#4,1778918870);
#633=IFCPROPERTYSET('2EMC8Y2YPV8gyyIfIliw9j',#632,'Pset_BuildFlowExhibitionElement',$,(#636,#637,#638));
#634=IFCOWNERHISTORY(#3,#4,.READWRITE.,.ADDED.,1778918870,#3,#4,1778918870);
#635=IFCRELDEFINESBYPROPERTIES('2KUDpo031Nc8gKnDb6ChGr',#634,$,$,(#332),#633);
#636=IFCPROPERTYSINGLEVALUE('Description',$,IFCLABEL('Left bedside lamp shade, white'),$);
#637=IFCPROPERTYSINGLEVALUE('Material',$,IFCLABEL('White Linen'),$);
#638=IFCPROPERTYSINGLEVALUE('IsExhibitElement',$,IFCBOOLEAN(.F.),$);
#639=IFCOWNERHISTORY(#3,#4,.READWRITE.,.ADDED.,1778918870,#3,#4,1778918870);
#640=IFCPROPERTYSET('290YPDvX1KRAcqJfX_TI_h',#639,'Pset_BuildFlowExhibitionElement',$,(#643,#644,#645));
#641=IFCOWNERHISTORY(#3,#4,.READWRITE.,.ADDED.,1778918870,#3,#4,1778918870);
#642=IFCRELDEFINESBYPROPERTIES('27rCCSsAjTfARCK6e3mZeY',#641,$,$,(#353),#640);
#643=IFCPROPERTYSINGLEVALUE('Description',$,IFCLABEL('Right bedside lamp body, chrome'),$);
#644=IFCPROPERTYSINGLEVALUE('Material',$,IFCLABEL('Chrome Finish'),$);
#645=IFCPROPERTYSINGLEVALUE('IsExhibitElement',$,IFCBOOLEAN(.F.),$);
#646=IFCOWNERHISTORY(#3,#4,.READWRITE.,.ADDED.,1778918870,#3,#4,1778918870);
#647=IFCPROPERTYSET('2ZaJIVe3zUmRFDF$y1bqj2',#646,'Pset_BuildFlowExhibitionElement',$,(#650,#651,#652));
#648=IFCOWNERHISTORY(#3,#4,.READWRITE.,.ADDED.,1778918870,#3,#4,1778918870);
#649=IFCRELDEFINESBYPROPERTIES('0hcAkjcS1VuPUyY7D0M0do',#648,$,$,(#374),#647);
#650=IFCPROPERTYSINGLEVALUE('Description',$,IFCLABEL('Right bedside lamp shade, white'),$);
#651=IFCPROPERTYSINGLEVALUE('Material',$,IFCLABEL('White Linen'),$);
#652=IFCPROPERTYSINGLEVALUE('IsExhibitElement',$,IFCBOOLEAN(.F.),$);
#653=IFCOWNERHISTORY(#3,#4,.READWRITE.,.ADDED.,1778918870,#3,#4,1778918870);
#654=IFCPROPERTYSET('2t5q$sUzvNc9KadxjaWvdB',#653,'Pset_BuildFlowExhibitionElement',$,(#657,#658,#659));
#655=IFCOWNERHISTORY(#3,#4,.READWRITE.,.ADDED.,1778918870,#3,#4,1778918870);
#656=IFCRELDEFINESBYPROPERTIES('1o85uRF61IAgOL3LMQzhHa',#655,$,$,(#395),#654);
#657=IFCPROPERTYSINGLEVALUE('Description',$,IFCLABEL('Dresser, matte black laminate'),$);
#658=IFCPROPERTYSINGLEVALUE('Material',$,IFCLABEL('Matte Black Laminate'),$);
#659=IFCPROPERTYSINGLEVALUE('IsExhibitElement',$,IFCBOOLEAN(.F.),$);
#660=IFCOWNERHISTORY(#3,#4,.READWRITE.,.ADDED.,1778918870,#3,#4,1778918870);
#661=IFCPROPERTYSET('09cW1zZp1HuBsKqfeD_aFv',#660,'Pset_BuildFlowExhibitionElement',$,(#664,#665,#666));
#662=IFCOWNERHISTORY(#3,#4,.READWRITE.,.ADDED.,1778918870,#3,#4,1778918870);
#663=IFCRELDEFINESBYPROPERTIES('2timhtVUfOzuhZamosKz4F',#662,$,$,(#416),#661);
#664=IFCPROPERTYSINGLEVALUE('Description',$,IFCLABEL('Wardrobe, walnut, full-height'),$);
#665=IFCPROPERTYSINGLEVALUE('Material',$,IFCLABEL('Walnut Veneer'),$);
#666=IFCPROPERTYSINGLEVALUE('IsExhibitElement',$,IFCBOOLEAN(.F.),$);
#667=IFCOWNERHISTORY(#3,#4,.READWRITE.,.ADDED.,1778918870,#3,#4,1778918870);
#668=IFCPROPERTYSET('1fSW9tBI5NnABrD0dmQtsN',#667,'Pset_BuildFlowExhibitionElement',$,(#671,#672,#673));
#669=IFCOWNERHISTORY(#3,#4,.READWRITE.,.ADDED.,1778918870,#3,#4,1778918870);
#670=IFCRELDEFINESBYPROPERTIES('1NBwh2KeXGtBBlhrkd_mSh',#669,$,$,(#437),#668);
#671=IFCPROPERTYSINGLEVALUE('Description',$,IFCLABEL('Window proxy on south wall'),$);
#672=IFCPROPERTYSINGLEVALUE('Material',$,IFCLABEL('Chrome Finish'),$);
#673=IFCPROPERTYSINGLEVALUE('IsExhibitElement',$,IFCBOOLEAN(.F.),$);
#674=IFCOWNERHISTORY(#3,#4,.READWRITE.,.ADDED.,1778918870,#3,#4,1778918870);
#675=IFCPROPERTYSET('0dkIp$gBPS5utI1uv5tAqU',#674,'Pset_BuildFlowExhibitionElement',$,(#678,#679,#680));
#676=IFCOWNERHISTORY(#3,#4,.READWRITE.,.ADDED.,1778918870,#3,#4,1778918870);
#677=IFCRELDEFINESBYPROPERTIES('0hHRQ$999O_Qf28jDkD5GJ',#676,$,$,(#458),#675);
#678=IFCPROPERTYSINGLEVALUE('Description',$,IFCLABEL('Ceiling pendant light, chrome'),$);
#679=IFCPROPERTYSINGLEVALUE('Material',$,IFCLABEL('Chrome Finish'),$);
#680=IFCPROPERTYSINGLEVALUE('IsExhibitElement',$,IFCBOOLEAN(.F.),$);
#681=IFCOWNERHISTORY(#3,#4,.READWRITE.,.ADDED.,1778918870,#3,#4,1778918870);
#682=IFCPROPERTYSET('2Hdri9dIvI28dH$0hJo$gX',#681,'Pset_BuildFlowExhibitionElement',$,(#685,#686,#687));
#683=IFCOWNERHISTORY(#3,#4,.READWRITE.,.ADDED.,1778918870,#3,#4,1778918870);
#684=IFCRELDEFINESBYPROPERTIES('39ppRiUAbQreysDbVcsHYu',#683,$,$,(#479),#682);
#685=IFCPROPERTYSINGLEVALUE('Description',$,IFCLABEL('Floor planter near NW corner'),$);
#686=IFCPROPERTYSINGLEVALUE('Material',$,IFCLABEL('Matte Black Laminate'),$);
#687=IFCPROPERTYSINGLEVALUE('IsExhibitElement',$,IFCBOOLEAN(.F.),$);
#688=IFCOWNERHISTORY(#3,#4,.READWRITE.,.ADDED.,1778918870,#3,#4,1778918870);
#689=IFCPROPERTYSET('2qOF3ccNXKB8Et2piBB$e9',#688,'Pset_BuildFlowExhibitionElement',$,(#692,#693,#694));
#690=IFCOWNERHISTORY(#3,#4,.READWRITE.,.ADDED.,1778918870,#3,#4,1778918870);
#691=IFCRELDEFINESBYPROPERTIES('3oi2mLVPjGAxpOtbmDxBjG',#690,$,$,(#500),#689);
#692=IFCPROPERTYSINGLEVALUE('Description',$,IFCLABEL('Foliage above planter 01'),$);
#693=IFCPROPERTYSINGLEVALUE('Material',$,IFCLABEL('Mixed Media Foliage'),$);
#694=IFCPROPERTYSINGLEVALUE('IsExhibitElement',$,IFCBOOLEAN(.F.),$);
#695=IFCOWNERHISTORY(#3,#4,.READWRITE.,.ADDED.,1778918870,#3,#4,1778918870);
#696=IFCPROPERTYSET('3lasWcpQrT2PwR0KBkrD2m',#695,'Pset_BuildFlowExhibitionElement',$,(#699,#700,#701));
#697=IFCOWNERHISTORY(#3,#4,.READWRITE.,.ADDED.,1778918870,#3,#4,1778918870);
#698=IFCRELDEFINESBYPROPERTIES('2le90X0afIQ8ILg8yiJ_CC',#697,$,$,(#521),#696);
#699=IFCPROPERTYSINGLEVALUE('Description',$,IFCLABEL('Floor planter near SE corner'),$);
#700=IFCPROPERTYSINGLEVALUE('Material',$,IFCLABEL('Matte Black Laminate'),$);
#701=IFCPROPERTYSINGLEVALUE('IsExhibitElement',$,IFCBOOLEAN(.F.),$);
#702=IFCOWNERHISTORY(#3,#4,.READWRITE.,.ADDED.,1778918870,#3,#4,1778918870);
#703=IFCPROPERTYSET('1ol_LbgrLJDheA8jJhILWy',#702,'Pset_BuildFlowExhibitionElement',$,(#706,#707,#708));
#704=IFCOWNERHISTORY(#3,#4,.READWRITE.,.ADDED.,1778918870,#3,#4,1778918870);
#705=IFCRELDEFINESBYPROPERTIES('2tYMdbWPXNW8kr3dxiMgmA',#704,$,$,(#542),#703);
#706=IFCPROPERTYSINGLEVALUE('Description',$,IFCLABEL('Foliage above planter 02'),$);
#707=IFCPROPERTYSINGLEVALUE('Material',$,IFCLABEL('Mixed Media Foliage'),$);
#708=IFCPROPERTYSINGLEVALUE('IsExhibitElement',$,IFCBOOLEAN(.F.),$);
ENDSEC;
END-ISO-10303-21;
