ISO-10303-21;
HEADER;
FILE_DESCRIPTION(('ViewDefinition [CoordinationView]'),'2;1');
FILE_NAME('','2026-05-16T08:08:10',(''),(''),'IfcOpenShell 0.8.5-1c5b825','IfcOpenShell 0.8.5-1c5b825','');
FILE_SCHEMA(('IFC2X3'));
ENDSEC;
DATA;
#1=IFCPERSON('bf-v3-generator','BuildFlow','Generator',$,$,$,$,$);
#2=IFCORGANIZATION('buildflow','BuildFlow',$,$,$);
#3=IFCPERSONANDORGANIZATION(#1,#2,$);
#4=IFCAPPLICATION(#2,'3.0','BuildFlow Generator v3','buildflow-v3');
#5=IFCOWNERHISTORY(#3,#4,.READWRITE.,.ADDED.,1778918890,#3,#4,1778918890);
#6=IFCPROJECT('0pf5yy4xrKpv$c6WThSdGw',#5,'Restaurant Coffee Counter',$,$,$,$,(#15),#10);
#7=IFCSIUNIT(*,.LENGTHUNIT.,.MILLI.,.METRE.);
#8=IFCSIUNIT(*,.AREAUNIT.,$,.SQUARE_METRE.);
#9=IFCSIUNIT(*,.VOLUMEUNIT.,$,.CUBIC_METRE.);
#10=IFCUNITASSIGNMENT((#8,#9,#7));
#11=IFCCARTESIANPOINT((0.,0.,0.));
#12=IFCDIRECTION((0.,0.,1.));
#13=IFCDIRECTION((1.,0.,0.));
#14=IFCAXIS2PLACEMENT3D(#11,#12,#13);
#15=IFCGEOMETRICREPRESENTATIONCONTEXT($,'Model',3,1.0000000000000001E-05,#14,$);
#16=IFCGEOMETRICREPRESENTATIONSUBCONTEXT('Body','Model',*,*,*,*,#15,$,.MODEL_VIEW.,$);
#17=IFCOWNERHISTORY(#3,#4,.READWRITE.,.MODIFIED.,1778918890,#3,#4,1778918890);
#18=IFCSITE('1i4pluRsfOthZHp72YxTZ9',#17,'Bangalore Indiranagar',$,$,#33,$,$,.ELEMENT.,$,$,$,$,$);
#19=IFCOWNERHISTORY(#3,#4,.READWRITE.,.MODIFIED.,1778918890,#3,#4,1778918890);
#20=IFCBUILDING('1gf_KjPsHHNxASVkxElhai',#19,'Restaurant Coffee Counter',$,$,#38,$,$,.ELEMENT.,$,$,$);
#21=IFCOWNERHISTORY(#3,#4,.READWRITE.,.MODIFIED.,1778918890,#3,#4,1778918890);
#22=IFCBUILDINGSTOREY('1ALemF0zrQzuKD6aruOUwM',#21,'Ground Floor',$,$,#43,$,$,.ELEMENT.,$);
#23=IFCOWNERHISTORY(#3,#4,.READWRITE.,.ADDED.,1778918890,#3,#4,1778918890);
#24=IFCRELAGGREGATES('2xrioviF1Oa8Ed9IPjH7Al',#23,$,$,#6,(#18));
#25=IFCOWNERHISTORY(#3,#4,.READWRITE.,.ADDED.,1778918890,#3,#4,1778918890);
#26=IFCRELAGGREGATES('0tav3Uwh5MGwfLukaWfiso',#25,$,$,#18,(#20));
#27=IFCOWNERHISTORY(#3,#4,.READWRITE.,.ADDED.,1778918890,#3,#4,1778918890);
#28=IFCRELAGGREGATES('2VH3veIkLP5vbMho0YiBO3',#27,$,$,#20,(#22));
#29=IFCCARTESIANPOINT((0.,0.,0.));
#30=IFCDIRECTION((0.,0.,1.));
#31=IFCDIRECTION((1.,0.,0.));
#32=IFCAXIS2PLACEMENT3D(#29,#30,#31);
#33=IFCLOCALPLACEMENT($,#32);
#34=IFCCARTESIANPOINT((0.,0.,0.));
#35=IFCDIRECTION((0.,0.,1.));
#36=IFCDIRECTION((1.,0.,0.));
#37=IFCAXIS2PLACEMENT3D(#34,#35,#36);
#38=IFCLOCALPLACEMENT(#33,#37);
#39=IFCCARTESIANPOINT((0.,0.,0.));
#40=IFCDIRECTION((0.,0.,1.));
#41=IFCDIRECTION((1.,0.,0.));
#42=IFCAXIS2PLACEMENT3D(#39,#40,#41);
#43=IFCLOCALPLACEMENT(#38,#42);
#44=IFCMATERIAL('Polished Concrete');
#45=IFCSURFACESTYLE('Polished Concrete Style',.BOTH.,(#46));
#46=IFCSURFACESTYLESHADING(#47);
#47=IFCCOLOURRGB('Polished Concrete Colour',0.55000000000000004,0.55000000000000004,0.55000000000000004);
#48=IFCPRESENTATIONSTYLEASSIGNMENT((#45));
#49=IFCSTYLEDITEM($,(#48),'Polished Concrete Style');
#50=IFCSTYLEDREPRESENTATION(#16,'Body',$,(#49));
#51=IFCMATERIALDEFINITIONREPRESENTATION($,$,(#50),#44);
#52=IFCMATERIAL('Smoked Walnut Oak');
#53=IFCSURFACESTYLE('Smoked Walnut Oak Style',.BOTH.,(#54));
#54=IFCSURFACESTYLESHADING(#55);
#55=IFCCOLOURRGB('Smoked Walnut Oak Colour',0.22,0.14000000000000001,0.089999999999999997);
#56=IFCPRESENTATIONSTYLEASSIGNMENT((#53));
#57=IFCSTYLEDITEM($,(#56),'Smoked Walnut Oak Style');
#58=IFCSTYLEDREPRESENTATION(#16,'Body',$,(#57));
#59=IFCMATERIALDEFINITIONREPRESENTATION($,$,(#58),#52);
#60=IFCMATERIAL('Pale Ivory Travertine');
#61=IFCSURFACESTYLE('Pale Ivory Travertine Style',.BOTH.,(#62));
#62=IFCSURFACESTYLESHADING(#63);
#63=IFCCOLOURRGB('Pale Ivory Travertine Colour',0.92000000000000004,0.88,0.78000000000000003);
#64=IFCPRESENTATIONSTYLEASSIGNMENT((#61));
#65=IFCSTYLEDITEM($,(#64),'Pale Ivory Travertine Style');
#66=IFCSTYLEDREPRESENTATION(#16,'Body',$,(#65));
#67=IFCMATERIALDEFINITIONREPRESENTATION($,$,(#66),#60);
#68=IFCMATERIAL('Bronze Finish');
#69=IFCSURFACESTYLE('Bronze Finish Style',.BOTH.,(#70));
#70=IFCSURFACESTYLESHADING(#71);
#71=IFCCOLOURRGB('Bronze Finish Colour',0.62,0.45000000000000001,0.25);
#72=IFCPRESENTATIONSTYLEASSIGNMENT((#69));
#73=IFCSTYLEDITEM($,(#72),'Bronze Finish Style');
#74=IFCSTYLEDREPRESENTATION(#16,'Body',$,(#73));
#75=IFCMATERIALDEFINITIONREPRESENTATION($,$,(#74),#68);
#76=IFCMATERIAL('Matte Black Laminate');
#77=IFCSURFACESTYLE('Matte Black Laminate Style',.BOTH.,(#78));
#78=IFCSURFACESTYLESHADING(#79);
#79=IFCCOLOURRGB('Matte Black Laminate Colour',0.080000000000000002,0.080000000000000002,0.080000000000000002);
#80=IFCPRESENTATIONSTYLEASSIGNMENT((#77));
#81=IFCSTYLEDITEM($,(#80),'Matte Black Laminate Style');
#82=IFCSTYLEDREPRESENTATION(#16,'Body',$,(#81));
#83=IFCMATERIALDEFINITIONREPRESENTATION($,$,(#82),#76);
#84=IFCMATERIAL('Chrome Finish');
#85=IFCSURFACESTYLE('Chrome Finish Style',.BOTH.,(#86));
#86=IFCSURFACESTYLESHADING(#87);
#87=IFCCOLOURRGB('Chrome Finish Colour',0.84999999999999998,0.84999999999999998,0.88);
#88=IFCPRESENTATIONSTYLEASSIGNMENT((#85));
#89=IFCSTYLEDITEM($,(#88),'Chrome Finish Style');
#90=IFCSTYLEDREPRESENTATION(#16,'Body',$,(#89));
#91=IFCMATERIALDEFINITIONREPRESENTATION($,$,(#90),#84);
#92=IFCMATERIAL('Mixed Media Foliage');
#93=IFCSURFACESTYLE('Mixed Media Foliage Style',.BOTH.,(#94));
#94=IFCSURFACESTYLESHADING(#95);
#95=IFCCOLOURRGB('Mixed Media Foliage Colour',0.29999999999999999,0.5,0.20000000000000001);
#96=IFCPRESENTATIONSTYLEASSIGNMENT((#93));
#97=IFCSTYLEDITEM($,(#96),'Mixed Media Foliage Style');
#98=IFCSTYLEDREPRESENTATION(#16,'Body',$,(#97));
#99=IFCMATERIALDEFINITIONREPRESENTATION($,$,(#98),#92);
#100=IFCOWNERHISTORY(#3,#4,.READWRITE.,.ADDED.,1778918890,#3,#4,1778918890);
#101=IFCSPACE('0wNgoTRXjMXfKU_z34lg4V',#100,'SP-CAFE',$,'Coffee Bar',#117,#114,'Coffee Bar Floor',.ELEMENT.,$,$);
#102=IFCCARTESIANPOINT((0.,0.));
#103=IFCCARTESIANPOINT((4.,0.));
#104=IFCCARTESIANPOINT((4.,8.));
#105=IFCCARTESIANPOINT((0.,8.));
#106=IFCCARTESIANPOINT((0.,0.));
#107=IFCPOLYLINE((#102,#103,#104,#105,#106));
#108=IFCARBITRARYCLOSEDPROFILEDEF(.AREA.,$,#107);
#109=IFCCARTESIANPOINT((0.,0.,0.));
#110=IFCAXIS2PLACEMENT3D(#109,$,$);
#111=IFCDIRECTION((0.,0.,1.));
#112=IFCEXTRUDEDAREASOLID(#108,#110,#111,3.);
#113=IFCSHAPEREPRESENTATION(#16,'Body','SweptSolid',(#112));
#114=IFCPRODUCTDEFINITIONSHAPE($,$,(#113));
#115=IFCCARTESIANPOINT((0.,0.,0.));
#116=IFCAXIS2PLACEMENT3D(#115,$,$);
#117=IFCLOCALPLACEMENT(#43,#116);
#118=IFCOWNERHISTORY(#3,#4,.READWRITE.,.MODIFIED.,1778918924,#3,#4,1778918924);
#119=IFCSLAB('0pf5yy4xrKpv$c6WThSdGw',#118,'SLAB-FLOOR',$,$,#140,#128,'SLAB-FLOOR',.FLOOR.);
#120=IFCCARTESIANPOINT((0.,0.));
#121=IFCAXIS2PLACEMENT2D(#120,$);
#122=IFCRECTANGLEPROFILEDEF(.AREA.,$,#121,4.,8.);
#123=IFCCARTESIANPOINT((0.,0.,0.));
#124=IFCAXIS2PLACEMENT3D(#123,$,$);
#125=IFCDIRECTION((0.,0.,1.));
#126=IFCEXTRUDEDAREASOLID(#122,#124,#125,0.050000000000000003);
#127=IFCSHAPEREPRESENTATION(#16,'Body','SweptSolid',(#126));
#128=IFCPRODUCTDEFINITIONSHAPE($,$,(#127));
#134=IFCOWNERHISTORY(#3,#4,.READWRITE.,.MODIFIED.,1778918959,#3,#4,1778918924);
#135=IFCRELCONTAINEDINSPATIALSTRUCTURE('1i4pluRsfOthZHp72YxTZ9',#134,$,$,(#458,#119,#920,#731,#205,#689,#163,#416,#878,#647,#352,#374,#605,#836,#310,#268,#563,#794,#521,#752,#226,#479,#437,#710,#184,#668,#899,#142,#395,#626,#857,#331,#815,#289,#584,#542,#773,#247,#500),#22);
#136=IFCCARTESIANPOINT((0.,0.,0.));
#137=IFCDIRECTION((0.,0.,1.));
#138=IFCDIRECTION((1.,0.,0.));
#139=IFCAXIS2PLACEMENT3D(#136,#137,#138);
#140=IFCLOCALPLACEMENT(#43,#139);
#141=IFCOWNERHISTORY(#3,#4,.READWRITE.,.MODIFIED.,1778918924,#3,#4,1778918924);
#142=IFCFURNISHINGELEMENT('1gf_KjPsHHNxASVkxElhai',#141,'COUNTER-BODY',$,'Counter Body',#161,#151,'COUNTER-BODY');
#143=IFCCARTESIANPOINT((0.,0.));
#144=IFCAXIS2PLACEMENT2D(#143,$);
#145=IFCRECTANGLEPROFILEDEF(.AREA.,$,#144,3.5,0.69999999999999996);
#146=IFCCARTESIANPOINT((0.,0.,0.));
#147=IFCAXIS2PLACEMENT3D(#146,$,$);
#148=IFCDIRECTION((0.,0.,1.));
#149=IFCEXTRUDEDAREASOLID(#145,#147,#148,1.);
#150=IFCSHAPEREPRESENTATION(#16,'Body','SweptSolid',(#149));
#151=IFCPRODUCTDEFINITIONSHAPE($,$,(#150));
#157=IFCCARTESIANPOINT((0.25,2.,0.050000000000000003));
#158=IFCDIRECTION((0.,0.,1.));
#159=IFCDIRECTION((1.,0.,0.));
#160=IFCAXIS2PLACEMENT3D(#157,#158,#159);
#161=IFCLOCALPLACEMENT(#43,#160);
#162=IFCOWNERHISTORY(#3,#4,.READWRITE.,.MODIFIED.,1778918924,#3,#4,1778918924);
#163=IFCCOVERING('1ALemF0zrQzuKD6aruOUwM',#162,'COUNTER-TOP',$,$,#182,#172,'COUNTER-TOP',.FLOORING.);
#164=IFCCARTESIANPOINT((0.,0.));
#165=IFCAXIS2PLACEMENT2D(#164,$);
#166=IFCRECTANGLEPROFILEDEF(.AREA.,$,#165,3.7000000000000002,0.80000000000000004);
#167=IFCCARTESIANPOINT((0.,0.,0.));
#168=IFCAXIS2PLACEMENT3D(#167,$,$);
#169=IFCDIRECTION((0.,0.,1.));
#170=IFCEXTRUDEDAREASOLID(#166,#168,#169,0.050000000000000003);
#171=IFCSHAPEREPRESENTATION(#16,'Body','SweptSolid',(#170));
#172=IFCPRODUCTDEFINITIONSHAPE($,$,(#171));
#178=IFCCARTESIANPOINT((0.14999999999999999,1.95,1.05));
#179=IFCDIRECTION((0.,0.,1.));
#180=IFCDIRECTION((1.,0.,0.));
#181=IFCAXIS2PLACEMENT3D(#178,#179,#180);
#182=IFCLOCALPLACEMENT(#43,#181);
#183=IFCOWNERHISTORY(#3,#4,.READWRITE.,.MODIFIED.,1778918924,#3,#4,1778918924);
#184=IFCCOVERING('2xrioviF1Oa8Ed9IPjH7Al',#183,'COUNTER-TOE',$,$,#203,#193,'COUNTER-TOE',.FLOORING.);
#185=IFCCARTESIANPOINT((0.,0.));
#186=IFCAXIS2PLACEMENT2D(#185,$);
#187=IFCRECTANGLEPROFILEDEF(.AREA.,$,#186,3.5,0.040000000000000001);
#188=IFCCARTESIANPOINT((0.,0.,0.));
#189=IFCAXIS2PLACEMENT3D(#188,$,$);
#190=IFCDIRECTION((0.,0.,1.));
#191=IFCEXTRUDEDAREASOLID(#187,#189,#190,0.10000000000000001);
#192=IFCSHAPEREPRESENTATION(#16,'Body','SweptSolid',(#191));
#193=IFCPRODUCTDEFINITIONSHAPE($,$,(#192));
#199=IFCCARTESIANPOINT((0.25,2.6499999999999999,0.050000000000000003));
#200=IFCDIRECTION((0.,0.,1.));
#201=IFCDIRECTION((1.,0.,0.));
#202=IFCAXIS2PLACEMENT3D(#199,#200,#201);
#203=IFCLOCALPLACEMENT(#43,#202);
#204=IFCOWNERHISTORY(#3,#4,.READWRITE.,.MODIFIED.,1778918924,#3,#4,1778918924);
#205=IFCFURNISHINGELEMENT('0tav3Uwh5MGwfLukaWfiso',#204,'ESPRESSO-01',$,'Espresso Machine',#224,#214,'ESPRESSO-01');
#206=IFCCARTESIANPOINT((0.,0.));
#207=IFCAXIS2PLACEMENT2D(#206,$);
#208=IFCRECTANGLEPROFILEDEF(.AREA.,$,#207,0.55000000000000004,0.5);
#209=IFCCARTESIANPOINT((0.,0.,0.));
#210=IFCAXIS2PLACEMENT3D(#209,$,$);
#211=IFCDIRECTION((0.,0.,1.));
#212=IFCEXTRUDEDAREASOLID(#208,#210,#211,0.5);
#213=IFCSHAPEREPRESENTATION(#16,'Body','SweptSolid',(#212));
#214=IFCPRODUCTDEFINITIONSHAPE($,$,(#213));
#220=IFCCARTESIANPOINT((0.80000000000000004,2.1499999999999999,1.1000000000000001));
#221=IFCDIRECTION((0.,0.,1.));
#222=IFCDIRECTION((1.,0.,0.));
#223=IFCAXIS2PLACEMENT3D(#220,#221,#222);
#224=IFCLOCALPLACEMENT(#43,#223);
#225=IFCOWNERHISTORY(#3,#4,.READWRITE.,.MODIFIED.,1778918924,#3,#4,1778918924);
#226=IFCBUILDINGELEMENTPROXY('2VH3veIkLP5vbMho0YiBO3',#225,'ESPRESSO-01-GROUP',$,'Group Head',#245,#235,'ESPRESSO-01-GROUP',.ELEMENT.);
#227=IFCCARTESIANPOINT((0.,0.));
#228=IFCAXIS2PLACEMENT2D(#227,$);
#229=IFCRECTANGLEPROFILEDEF(.AREA.,$,#228,0.34999999999999998,0.059999999999999998);
#230=IFCCARTESIANPOINT((0.,0.,0.));
#231=IFCAXIS2PLACEMENT3D(#230,$,$);
#232=IFCDIRECTION((0.,0.,1.));
#233=IFCEXTRUDEDAREASOLID(#229,#231,#232,0.059999999999999998);
#234=IFCSHAPEREPRESENTATION(#16,'Body','SweptSolid',(#233));
#235=IFCPRODUCTDEFINITIONSHAPE($,$,(#234));
#241=IFCCARTESIANPOINT((0.90000000000000002,2.5499999999999998,1.0800000000000001));
#242=IFCDIRECTION((0.,0.,1.));
#243=IFCDIRECTION((1.,0.,0.));
#244=IFCAXIS2PLACEMENT3D(#241,#242,#243);
#245=IFCLOCALPLACEMENT(#43,#244);
#246=IFCOWNERHISTORY(#3,#4,.READWRITE.,.MODIFIED.,1778918924,#3,#4,1778918924);
#247=IFCFURNISHINGELEMENT('0wNgoTRXjMXfKU_z34lg4V',#246,'ESPRESSO-02',$,'Espresso Machine',#266,#256,'ESPRESSO-02');
#248=IFCCARTESIANPOINT((0.,0.));
#249=IFCAXIS2PLACEMENT2D(#248,$);
#250=IFCRECTANGLEPROFILEDEF(.AREA.,$,#249,0.55000000000000004,0.5);
#251=IFCCARTESIANPOINT((0.,0.,0.));
#252=IFCAXIS2PLACEMENT3D(#251,$,$);
#253=IFCDIRECTION((0.,0.,1.));
#254=IFCEXTRUDEDAREASOLID(#250,#252,#253,0.5);
#255=IFCSHAPEREPRESENTATION(#16,'Body','SweptSolid',(#254));
#256=IFCPRODUCTDEFINITIONSHAPE($,$,(#255));
#262=IFCCARTESIANPOINT((2.6499999999999999,2.1499999999999999,1.1000000000000001));
#263=IFCDIRECTION((0.,0.,1.));
#264=IFCDIRECTION((1.,0.,0.));
#265=IFCAXIS2PLACEMENT3D(#262,#263,#264);
#266=IFCLOCALPLACEMENT(#43,#265);
#267=IFCOWNERHISTORY(#3,#4,.READWRITE.,.MODIFIED.,1778918924,#3,#4,1778918924);
#268=IFCBUILDINGELEMENTPROXY('1JehoPcc5IEQDljBPODbm3',#267,'ESPRESSO-02-GROUP',$,'Group Head',#287,#277,'ESPRESSO-02-GROUP',.ELEMENT.);
#269=IFCCARTESIANPOINT((0.,0.));
#270=IFCAXIS2PLACEMENT2D(#269,$);
#271=IFCRECTANGLEPROFILEDEF(.AREA.,$,#270,0.34999999999999998,0.059999999999999998);
#272=IFCCARTESIANPOINT((0.,0.,0.));
#273=IFCAXIS2PLACEMENT3D(#272,$,$);
#274=IFCDIRECTION((0.,0.,1.));
#275=IFCEXTRUDEDAREASOLID(#271,#273,#274,0.059999999999999998);
#276=IFCSHAPEREPRESENTATION(#16,'Body','SweptSolid',(#275));
#277=IFCPRODUCTDEFINITIONSHAPE($,$,(#276));
#283=IFCCARTESIANPOINT((2.75,2.5499999999999998,1.0800000000000001));
#284=IFCDIRECTION((0.,0.,1.));
#285=IFCDIRECTION((1.,0.,0.));
#286=IFCAXIS2PLACEMENT3D(#283,#284,#285);
#287=IFCLOCALPLACEMENT(#43,#286);
#288=IFCOWNERHISTORY(#3,#4,.READWRITE.,.MODIFIED.,1778918924,#3,#4,1778918924);
#289=IFCFURNISHINGELEMENT('2lyOuwuFfRqB6vRqDXOY8w',#288,'STOOL-01',$,'Bar Stool',#308,#298,'STOOL-01');
#290=IFCCARTESIANPOINT((0.,0.));
#291=IFCAXIS2PLACEMENT2D(#290,$);
#292=IFCRECTANGLEPROFILEDEF(.AREA.,$,#291,0.40000000000000002,0.40000000000000002);
#293=IFCCARTESIANPOINT((0.,0.,0.));
#294=IFCAXIS2PLACEMENT3D(#293,$,$);
#295=IFCDIRECTION((0.,0.,1.));
#296=IFCEXTRUDEDAREASOLID(#292,#294,#295,0.75);
#297=IFCSHAPEREPRESENTATION(#16,'Body','SweptSolid',(#296));
#298=IFCPRODUCTDEFINITIONSHAPE($,$,(#297));
#304=IFCCARTESIANPOINT((0.40000000000000002,1.,0.050000000000000003));
#305=IFCDIRECTION((0.,0.,1.));
#306=IFCDIRECTION((1.,0.,0.));
#307=IFCAXIS2PLACEMENT3D(#304,#305,#306);
#308=IFCLOCALPLACEMENT(#43,#307);
#309=IFCOWNERHISTORY(#3,#4,.READWRITE.,.MODIFIED.,1778918924,#3,#4,1778918924);
#310=IFCFURNISHINGELEMENT('0S20Nf18zQauxYZ7c90Zh_',#309,'STOOL-02',$,'Bar Stool',#329,#319,'STOOL-02');
#311=IFCCARTESIANPOINT((0.,0.));
#312=IFCAXIS2PLACEMENT2D(#311,$);
#313=IFCRECTANGLEPROFILEDEF(.AREA.,$,#312,0.40000000000000002,0.40000000000000002);
#314=IFCCARTESIANPOINT((0.,0.,0.));
#315=IFCAXIS2PLACEMENT3D(#314,$,$);
#316=IFCDIRECTION((0.,0.,1.));
#317=IFCEXTRUDEDAREASOLID(#313,#315,#316,0.75);
#318=IFCSHAPEREPRESENTATION(#16,'Body','SweptSolid',(#317));
#319=IFCPRODUCTDEFINITIONSHAPE($,$,(#318));
#325=IFCCARTESIANPOINT((1.3999999999999999,1.,0.050000000000000003));
#326=IFCDIRECTION((0.,0.,1.));
#327=IFCDIRECTION((1.,0.,0.));
#328=IFCAXIS2PLACEMENT3D(#325,#326,#327);
#329=IFCLOCALPLACEMENT(#43,#328);
#330=IFCOWNERHISTORY(#3,#4,.READWRITE.,.MODIFIED.,1778918924,#3,#4,1778918924);
#331=IFCFURNISHINGELEMENT('2zc$FOVxnOnfI3IWH3c7nX',#330,'STOOL-03',$,'Bar Stool',#350,#340,'STOOL-03');
#332=IFCCARTESIANPOINT((0.,0.));
#333=IFCAXIS2PLACEMENT2D(#332,$);
#334=IFCRECTANGLEPROFILEDEF(.AREA.,$,#333,0.40000000000000002,0.40000000000000002);
#335=IFCCARTESIANPOINT((0.,0.,0.));
#336=IFCAXIS2PLACEMENT3D(#335,$,$);
#337=IFCDIRECTION((0.,0.,1.));
#338=IFCEXTRUDEDAREASOLID(#334,#336,#337,0.75);
#339=IFCSHAPEREPRESENTATION(#16,'Body','SweptSolid',(#338));
#340=IFCPRODUCTDEFINITIONSHAPE($,$,(#339));
#346=IFCCARTESIANPOINT((2.3999999999999999,1.,0.050000000000000003));
#347=IFCDIRECTION((0.,0.,1.));
#348=IFCDIRECTION((1.,0.,0.));
#349=IFCAXIS2PLACEMENT3D(#346,#347,#348);
#350=IFCLOCALPLACEMENT(#43,#349);
#351=IFCOWNERHISTORY(#3,#4,.READWRITE.,.MODIFIED.,1778918924,#3,#4,1778918924);
#352=IFCFURNISHINGELEMENT('2OZA1yEubNWRlhHZy$GMFO',#351,'STOOL-04',$,'Bar Stool',#371,#361,'STOOL-04');
#353=IFCCARTESIANPOINT((0.,0.));
#354=IFCAXIS2PLACEMENT2D(#353,$);
#355=IFCRECTANGLEPROFILEDEF(.AREA.,$,#354,0.40000000000000002,0.40000000000000002);
#356=IFCCARTESIANPOINT((0.,0.,0.));
#357=IFCAXIS2PLACEMENT3D(#356,$,$);
#358=IFCDIRECTION((0.,0.,1.));
#359=IFCEXTRUDEDAREASOLID(#355,#357,#358,0.75);
#360=IFCSHAPEREPRESENTATION(#16,'Body','SweptSolid',(#359));
#361=IFCPRODUCTDEFINITIONSHAPE($,$,(#360));
#367=IFCCARTESIANPOINT((3.3999999999999999,1.,0.050000000000000003));
#368=IFCDIRECTION((0.,0.,1.));
#369=IFCDIRECTION((1.,0.,0.));
#370=IFCAXIS2PLACEMENT3D(#367,#368,#369);
#371=IFCLOCALPLACEMENT(#43,#370);
#372=IFCOWNERHISTORY(#3,#4,.READWRITE.,.ADDED.,1778918924,#3,#4,1778918924);
#373=IFCOWNERHISTORY(#3,#4,.READWRITE.,.MODIFIED.,1778918959,#3,#4,1778918959);
#374=IFCFURNISHINGELEMENT('0pf5yy4xrKpv$c6WThSdGw',#373,'PENDANT-01',$,'Pendant Light',#393,#383,'PENDANT-01');
#375=IFCCARTESIANPOINT((0.,0.));
#376=IFCAXIS2PLACEMENT2D(#375,$);
#377=IFCRECTANGLEPROFILEDEF(.AREA.,$,#376,0.25,0.25);
#378=IFCCARTESIANPOINT((0.,0.,0.));
#379=IFCAXIS2PLACEMENT3D(#378,$,$);
#380=IFCDIRECTION((0.,0.,1.));
#381=IFCEXTRUDEDAREASOLID(#377,#379,#380,0.40000000000000002);
#382=IFCSHAPEREPRESENTATION(#16,'Body','SweptSolid',(#381));
#383=IFCPRODUCTDEFINITIONSHAPE($,$,(#382));
#389=IFCCARTESIANPOINT((0.90000000000000002,2.3999999999999999,2.5499999999999998));
#390=IFCDIRECTION((0.,0.,1.));
#391=IFCDIRECTION((1.,0.,0.));
#392=IFCAXIS2PLACEMENT3D(#389,#390,#391);
#393=IFCLOCALPLACEMENT(#43,#392);
#394=IFCOWNERHISTORY(#3,#4,.READWRITE.,.MODIFIED.,1778918959,#3,#4,1778918959);
#395=IFCBUILDINGELEMENTPROXY('1i4pluRsfOthZHp72YxTZ9',#394,'PENDANT-01-CABLE',$,'Pendant Cable',#414,#404,'PENDANT-01-CABLE',.ELEMENT.);
#396=IFCCARTESIANPOINT((0.,0.));
#397=IFCAXIS2PLACEMENT2D(#396,$);
#398=IFCRECTANGLEPROFILEDEF(.AREA.,$,#397,0.02,0.02);
#399=IFCCARTESIANPOINT((0.,0.,0.));
#400=IFCAXIS2PLACEMENT3D(#399,$,$);
#401=IFCDIRECTION((0.,0.,1.));
#402=IFCEXTRUDEDAREASOLID(#398,#400,#401,0.050000000000000003);
#403=IFCSHAPEREPRESENTATION(#16,'Body','SweptSolid',(#402));
#404=IFCPRODUCTDEFINITIONSHAPE($,$,(#403));
#410=IFCCARTESIANPOINT((0.96999999999999997,2.4750000000000001,2.9500000000000002));
#411=IFCDIRECTION((0.,0.,1.));
#412=IFCDIRECTION((1.,0.,0.));
#413=IFCAXIS2PLACEMENT3D(#410,#411,#412);
#414=IFCLOCALPLACEMENT(#43,#413);
#415=IFCOWNERHISTORY(#3,#4,.READWRITE.,.MODIFIED.,1778918959,#3,#4,1778918959);
#416=IFCFURNISHINGELEMENT('1gf_KjPsHHNxASVkxElhai',#415,'PENDANT-02',$,'Pendant Light',#435,#425,'PENDANT-02');
#417=IFCCARTESIANPOINT((0.,0.));
#418=IFCAXIS2PLACEMENT2D(#417,$);
#419=IFCRECTANGLEPROFILEDEF(.AREA.,$,#418,0.25,0.25);
#420=IFCCARTESIANPOINT((0.,0.,0.));
#421=IFCAXIS2PLACEMENT3D(#420,$,$);
#422=IFCDIRECTION((0.,0.,1.));
#423=IFCEXTRUDEDAREASOLID(#419,#421,#422,0.40000000000000002);
#424=IFCSHAPEREPRESENTATION(#16,'Body','SweptSolid',(#423));
#425=IFCPRODUCTDEFINITIONSHAPE($,$,(#424));
#431=IFCCARTESIANPOINT((1.8999999999999999,2.3999999999999999,2.5499999999999998));
#432=IFCDIRECTION((0.,0.,1.));
#433=IFCDIRECTION((1.,0.,0.));
#434=IFCAXIS2PLACEMENT3D(#431,#432,#433);
#435=IFCLOCALPLACEMENT(#43,#434);
#436=IFCOWNERHISTORY(#3,#4,.READWRITE.,.MODIFIED.,1778918959,#3,#4,1778918959);
#437=IFCBUILDINGELEMENTPROXY('1ALemF0zrQzuKD6aruOUwM',#436,'PENDANT-02-CABLE',$,'Pendant Cable',#456,#446,'PENDANT-02-CABLE',.ELEMENT.);
#438=IFCCARTESIANPOINT((0.,0.));
#439=IFCAXIS2PLACEMENT2D(#438,$);
#440=IFCRECTANGLEPROFILEDEF(.AREA.,$,#439,0.02,0.02);
#441=IFCCARTESIANPOINT((0.,0.,0.));
#442=IFCAXIS2PLACEMENT3D(#441,$,$);
#443=IFCDIRECTION((0.,0.,1.));
#444=IFCEXTRUDEDAREASOLID(#440,#442,#443,0.050000000000000003);
#445=IFCSHAPEREPRESENTATION(#16,'Body','SweptSolid',(#444));
#446=IFCPRODUCTDEFINITIONSHAPE($,$,(#445));
#452=IFCCARTESIANPOINT((1.97,2.4750000000000001,2.9500000000000002));
#453=IFCDIRECTION((0.,0.,1.));
#454=IFCDIRECTION((1.,0.,0.));
#455=IFCAXIS2PLACEMENT3D(#452,#453,#454);
#456=IFCLOCALPLACEMENT(#43,#455);
#457=IFCOWNERHISTORY(#3,#4,.READWRITE.,.MODIFIED.,1778918959,#3,#4,1778918959);
#458=IFCFURNISHINGELEMENT('2xrioviF1Oa8Ed9IPjH7Al',#457,'PENDANT-03',$,'Pendant Light',#477,#467,'PENDANT-03');
#459=IFCCARTESIANPOINT((0.,0.));
#460=IFCAXIS2PLACEMENT2D(#459,$);
#461=IFCRECTANGLEPROFILEDEF(.AREA.,$,#460,0.25,0.25);
#462=IFCCARTESIANPOINT((0.,0.,0.));
#463=IFCAXIS2PLACEMENT3D(#462,$,$);
#464=IFCDIRECTION((0.,0.,1.));
#465=IFCEXTRUDEDAREASOLID(#461,#463,#464,0.40000000000000002);
#466=IFCSHAPEREPRESENTATION(#16,'Body','SweptSolid',(#465));
#467=IFCPRODUCTDEFINITIONSHAPE($,$,(#466));
#473=IFCCARTESIANPOINT((2.8999999999999999,2.3999999999999999,2.5499999999999998));
#474=IFCDIRECTION((0.,0.,1.));
#475=IFCDIRECTION((1.,0.,0.));
#476=IFCAXIS2PLACEMENT3D(#473,#474,#475);
#477=IFCLOCALPLACEMENT(#43,#476);
#478=IFCOWNERHISTORY(#3,#4,.READWRITE.,.MODIFIED.,1778918959,#3,#4,1778918959);
#479=IFCBUILDINGELEMENTPROXY('0tav3Uwh5MGwfLukaWfiso',#478,'PENDANT-03-CABLE',$,'Pendant Cable',#498,#488,'PENDANT-03-CABLE',.ELEMENT.);
#480=IFCCARTESIANPOINT((0.,0.));
#481=IFCAXIS2PLACEMENT2D(#480,$);
#482=IFCRECTANGLEPROFILEDEF(.AREA.,$,#481,0.02,0.02);
#483=IFCCARTESIANPOINT((0.,0.,0.));
#484=IFCAXIS2PLACEMENT3D(#483,$,$);
#485=IFCDIRECTION((0.,0.,1.));
#486=IFCEXTRUDEDAREASOLID(#482,#484,#485,0.050000000000000003);
#487=IFCSHAPEREPRESENTATION(#16,'Body','SweptSolid',(#486));
#488=IFCPRODUCTDEFINITIONSHAPE($,$,(#487));
#494=IFCCARTESIANPOINT((2.9700000000000002,2.4750000000000001,2.9500000000000002));
#495=IFCDIRECTION((0.,0.,1.));
#496=IFCDIRECTION((1.,0.,0.));
#497=IFCAXIS2PLACEMENT3D(#494,#495,#496);
#498=IFCLOCALPLACEMENT(#43,#497);
#499=IFCOWNERHISTORY(#3,#4,.READWRITE.,.MODIFIED.,1778918959,#3,#4,1778918959);
#500=IFCBUILDINGELEMENTPROXY('2VH3veIkLP5vbMho0YiBO3',#499,'SPEAKER-01',$,'Ceiling Speaker',#519,#509,'SPEAKER-01',.ELEMENT.);
#501=IFCCARTESIANPOINT((0.,0.));
#502=IFCAXIS2PLACEMENT2D(#501,$);
#503=IFCRECTANGLEPROFILEDEF(.AREA.,$,#502,0.14999999999999999,0.14999999999999999);
#504=IFCCARTESIANPOINT((0.,0.,0.));
#505=IFCAXIS2PLACEMENT3D(#504,$,$);
#506=IFCDIRECTION((0.,0.,1.));
#507=IFCEXTRUDEDAREASOLID(#503,#505,#506,0.040000000000000001);
#508=IFCSHAPEREPRESENTATION(#16,'Body','SweptSolid',(#507));
#509=IFCPRODUCTDEFINITIONSHAPE($,$,(#508));
#515=IFCCARTESIANPOINT((0.5,0.5,2.9500000000000002));
#516=IFCDIRECTION((0.,0.,1.));
#517=IFCDIRECTION((1.,0.,0.));
#518=IFCAXIS2PLACEMENT3D(#515,#516,#517);
#519=IFCLOCALPLACEMENT(#43,#518);
#520=IFCOWNERHISTORY(#3,#4,.READWRITE.,.MODIFIED.,1778918959,#3,#4,1778918959);
#521=IFCBUILDINGELEMENTPROXY('0wNgoTRXjMXfKU_z34lg4V',#520,'SPEAKER-02',$,'Ceiling Speaker',#540,#530,'SPEAKER-02',.ELEMENT.);
#522=IFCCARTESIANPOINT((0.,0.));
#523=IFCAXIS2PLACEMENT2D(#522,$);
#524=IFCRECTANGLEPROFILEDEF(.AREA.,$,#523,0.14999999999999999,0.14999999999999999);
#525=IFCCARTESIANPOINT((0.,0.,0.));
#526=IFCAXIS2PLACEMENT3D(#525,$,$);
#527=IFCDIRECTION((0.,0.,1.));
#528=IFCEXTRUDEDAREASOLID(#524,#526,#527,0.040000000000000001);
#529=IFCSHAPEREPRESENTATION(#16,'Body','SweptSolid',(#528));
#530=IFCPRODUCTDEFINITIONSHAPE($,$,(#529));
#536=IFCCARTESIANPOINT((3.2999999999999998,0.5,2.9500000000000002));
#537=IFCDIRECTION((0.,0.,1.));
#538=IFCDIRECTION((1.,0.,0.));
#539=IFCAXIS2PLACEMENT3D(#536,#537,#538);
#540=IFCLOCALPLACEMENT(#43,#539);
#541=IFCOWNERHISTORY(#3,#4,.READWRITE.,.MODIFIED.,1778918959,#3,#4,1778918959);
#542=IFCBUILDINGELEMENTPROXY('1JehoPcc5IEQDljBPODbm3',#541,'SPEAKER-03',$,'Ceiling Speaker',#561,#551,'SPEAKER-03',.ELEMENT.);
#543=IFCCARTESIANPOINT((0.,0.));
#544=IFCAXIS2PLACEMENT2D(#543,$);
#545=IFCRECTANGLEPROFILEDEF(.AREA.,$,#544,0.14999999999999999,0.14999999999999999);
#546=IFCCARTESIANPOINT((0.,0.,0.));
#547=IFCAXIS2PLACEMENT3D(#546,$,$);
#548=IFCDIRECTION((0.,0.,1.));
#549=IFCEXTRUDEDAREASOLID(#545,#547,#548,0.040000000000000001);
#550=IFCSHAPEREPRESENTATION(#16,'Body','SweptSolid',(#549));
#551=IFCPRODUCTDEFINITIONSHAPE($,$,(#550));
#557=IFCCARTESIANPOINT((0.5,7.2000000000000002,2.9500000000000002));
#558=IFCDIRECTION((0.,0.,1.));
#559=IFCDIRECTION((1.,0.,0.));
#560=IFCAXIS2PLACEMENT3D(#557,#558,#559);
#561=IFCLOCALPLACEMENT(#43,#560);
#562=IFCOWNERHISTORY(#3,#4,.READWRITE.,.MODIFIED.,1778918959,#3,#4,1778918959);
#563=IFCBUILDINGELEMENTPROXY('2lyOuwuFfRqB6vRqDXOY8w',#562,'SPEAKER-04',$,'Ceiling Speaker',#582,#572,'SPEAKER-04',.ELEMENT.);
#564=IFCCARTESIANPOINT((0.,0.));
#565=IFCAXIS2PLACEMENT2D(#564,$);
#566=IFCRECTANGLEPROFILEDEF(.AREA.,$,#565,0.14999999999999999,0.14999999999999999);
#567=IFCCARTESIANPOINT((0.,0.,0.));
#568=IFCAXIS2PLACEMENT3D(#567,$,$);
#569=IFCDIRECTION((0.,0.,1.));
#570=IFCEXTRUDEDAREASOLID(#566,#568,#569,0.040000000000000001);
#571=IFCSHAPEREPRESENTATION(#16,'Body','SweptSolid',(#570));
#572=IFCPRODUCTDEFINITIONSHAPE($,$,(#571));
#578=IFCCARTESIANPOINT((3.2999999999999998,7.2000000000000002,2.9500000000000002));
#579=IFCDIRECTION((0.,0.,1.));
#580=IFCDIRECTION((1.,0.,0.));
#581=IFCAXIS2PLACEMENT3D(#578,#579,#580);
#582=IFCLOCALPLACEMENT(#43,#581);
#583=IFCOWNERHISTORY(#3,#4,.READWRITE.,.MODIFIED.,1778918959,#3,#4,1778918959);
#584=IFCBUILDINGELEMENTPROXY('0S20Nf18zQauxYZ7c90Zh_',#583,'SHELF-01',$,'Wall Shelf',#603,#593,'SHELF-01',.ELEMENT.);
#585=IFCCARTESIANPOINT((0.,0.));
#586=IFCAXIS2PLACEMENT2D(#585,$);
#587=IFCRECTANGLEPROFILEDEF(.AREA.,$,#586,1.5,0.25);
#588=IFCCARTESIANPOINT((0.,0.,0.));
#589=IFCAXIS2PLACEMENT3D(#588,$,$);
#590=IFCDIRECTION((0.,0.,1.));
#591=IFCEXTRUDEDAREASOLID(#587,#589,#590,0.040000000000000001);
#592=IFCSHAPEREPRESENTATION(#16,'Body','SweptSolid',(#591));
#593=IFCPRODUCTDEFINITIONSHAPE($,$,(#592));
#599=IFCCARTESIANPOINT((0.29999999999999999,3.7000000000000002,1.8));
#600=IFCDIRECTION((0.,0.,1.));
#601=IFCDIRECTION((1.,0.,0.));
#602=IFCAXIS2PLACEMENT3D(#599,#600,#601);
#603=IFCLOCALPLACEMENT(#43,#602);
#604=IFCOWNERHISTORY(#3,#4,.READWRITE.,.MODIFIED.,1778918959,#3,#4,1778918959);
#605=IFCBUILDINGELEMENTPROXY('2zc$FOVxnOnfI3IWH3c7nX',#604,'SHELF-02',$,'Wall Shelf',#624,#614,'SHELF-02',.ELEMENT.);
#606=IFCCARTESIANPOINT((0.,0.));
#607=IFCAXIS2PLACEMENT2D(#606,$);
#608=IFCRECTANGLEPROFILEDEF(.AREA.,$,#607,1.5,0.25);
#609=IFCCARTESIANPOINT((0.,0.,0.));
#610=IFCAXIS2PLACEMENT3D(#609,$,$);
#611=IFCDIRECTION((0.,0.,1.));
#612=IFCEXTRUDEDAREASOLID(#608,#610,#611,0.040000000000000001);
#613=IFCSHAPEREPRESENTATION(#16,'Body','SweptSolid',(#612));
#614=IFCPRODUCTDEFINITIONSHAPE($,$,(#613));
#620=IFCCARTESIANPOINT((2.2000000000000002,3.7000000000000002,1.8));
#621=IFCDIRECTION((0.,0.,1.));
#622=IFCDIRECTION((1.,0.,0.));
#623=IFCAXIS2PLACEMENT3D(#620,#621,#622);
#624=IFCLOCALPLACEMENT(#43,#623);
#625=IFCOWNERHISTORY(#3,#4,.READWRITE.,.MODIFIED.,1778918959,#3,#4,1778918959);
#626=IFCBUILDINGELEMENTPROXY('2OZA1yEubNWRlhHZy$GMFO',#625,'JAR-01',$,'Display Jar',#645,#635,'JAR-01',.ELEMENT.);
#627=IFCCARTESIANPOINT((0.,0.));
#628=IFCAXIS2PLACEMENT2D(#627,$);
#629=IFCRECTANGLEPROFILEDEF(.AREA.,$,#628,0.12,0.12);
#630=IFCCARTESIANPOINT((0.,0.,0.));
#631=IFCAXIS2PLACEMENT3D(#630,$,$);
#632=IFCDIRECTION((0.,0.,1.));
#633=IFCEXTRUDEDAREASOLID(#629,#631,#632,0.25);
#634=IFCSHAPEREPRESENTATION(#16,'Body','SweptSolid',(#633));
#635=IFCPRODUCTDEFINITIONSHAPE($,$,(#634));
#641=IFCCARTESIANPOINT((0.40000000000000002,3.7999999999999998,1.8500000000000001));
#642=IFCDIRECTION((0.,0.,1.));
#643=IFCDIRECTION((1.,0.,0.));
#644=IFCAXIS2PLACEMENT3D(#641,#642,#643);
#645=IFCLOCALPLACEMENT(#43,#644);
#646=IFCOWNERHISTORY(#3,#4,.READWRITE.,.MODIFIED.,1778918959,#3,#4,1778918959);
#647=IFCBUILDINGELEMENTPROXY('3cGw1i6e1PbODCo0vb6lQv',#646,'JAR-02',$,'Display Jar',#666,#656,'JAR-02',.ELEMENT.);
#648=IFCCARTESIANPOINT((0.,0.));
#649=IFCAXIS2PLACEMENT2D(#648,$);
#650=IFCRECTANGLEPROFILEDEF(.AREA.,$,#649,0.12,0.12);
#651=IFCCARTESIANPOINT((0.,0.,0.));
#652=IFCAXIS2PLACEMENT3D(#651,$,$);
#653=IFCDIRECTION((0.,0.,1.));
#654=IFCEXTRUDEDAREASOLID(#650,#652,#653,0.25);
#655=IFCSHAPEREPRESENTATION(#16,'Body','SweptSolid',(#654));
#656=IFCPRODUCTDEFINITIONSHAPE($,$,(#655));
#662=IFCCARTESIANPOINT((0.59999999999999998,3.7999999999999998,1.8500000000000001));
#663=IFCDIRECTION((0.,0.,1.));
#664=IFCDIRECTION((1.,0.,0.));
#665=IFCAXIS2PLACEMENT3D(#662,#663,#664);
#666=IFCLOCALPLACEMENT(#43,#665);
#667=IFCOWNERHISTORY(#3,#4,.READWRITE.,.MODIFIED.,1778918959,#3,#4,1778918959);
#668=IFCBUILDINGELEMENTPROXY('3JGAveCsvVF8e$8mr2e$n_',#667,'JAR-03',$,'Display Jar',#687,#677,'JAR-03',.ELEMENT.);
#669=IFCCARTESIANPOINT((0.,0.));
#670=IFCAXIS2PLACEMENT2D(#669,$);
#671=IFCRECTANGLEPROFILEDEF(.AREA.,$,#670,0.12,0.12);
#672=IFCCARTESIANPOINT((0.,0.,0.));
#673=IFCAXIS2PLACEMENT3D(#672,$,$);
#674=IFCDIRECTION((0.,0.,1.));
#675=IFCEXTRUDEDAREASOLID(#671,#673,#674,0.25);
#676=IFCSHAPEREPRESENTATION(#16,'Body','SweptSolid',(#675));
#677=IFCPRODUCTDEFINITIONSHAPE($,$,(#676));
#683=IFCCARTESIANPOINT((0.80000000000000004,3.7999999999999998,1.8500000000000001));
#684=IFCDIRECTION((0.,0.,1.));
#685=IFCDIRECTION((1.,0.,0.));
#686=IFCAXIS2PLACEMENT3D(#683,#684,#685);
#687=IFCLOCALPLACEMENT(#43,#686);
#688=IFCOWNERHISTORY(#3,#4,.READWRITE.,.MODIFIED.,1778918959,#3,#4,1778918959);
#689=IFCBUILDINGELEMENTPROXY('3EiVetIazM4fhq4CSsJuiH',#688,'JAR-04',$,'Display Jar',#708,#698,'JAR-04',.ELEMENT.);
#690=IFCCARTESIANPOINT((0.,0.));
#691=IFCAXIS2PLACEMENT2D(#690,$);
#692=IFCRECTANGLEPROFILEDEF(.AREA.,$,#691,0.12,0.12);
#693=IFCCARTESIANPOINT((0.,0.,0.));
#694=IFCAXIS2PLACEMENT3D(#693,$,$);
#695=IFCDIRECTION((0.,0.,1.));
#696=IFCEXTRUDEDAREASOLID(#692,#694,#695,0.25);
#697=IFCSHAPEREPRESENTATION(#16,'Body','SweptSolid',(#696));
#698=IFCPRODUCTDEFINITIONSHAPE($,$,(#697));
#704=IFCCARTESIANPOINT((2.2999999999999998,3.7999999999999998,1.8500000000000001));
#705=IFCDIRECTION((0.,0.,1.));
#706=IFCDIRECTION((1.,0.,0.));
#707=IFCAXIS2PLACEMENT3D(#704,#705,#706);
#708=IFCLOCALPLACEMENT(#43,#707);
#709=IFCOWNERHISTORY(#3,#4,.READWRITE.,.MODIFIED.,1778918959,#3,#4,1778918959);
#710=IFCBUILDINGELEMENTPROXY('3Nx0P0KYDVpBGJEDGfk6uG',#709,'JAR-05',$,'Display Jar',#729,#719,'JAR-05',.ELEMENT.);
#711=IFCCARTESIANPOINT((0.,0.));
#712=IFCAXIS2PLACEMENT2D(#711,$);
#713=IFCRECTANGLEPROFILEDEF(.AREA.,$,#712,0.12,0.12);
#714=IFCCARTESIANPOINT((0.,0.,0.));
#715=IFCAXIS2PLACEMENT3D(#714,$,$);
#716=IFCDIRECTION((0.,0.,1.));
#717=IFCEXTRUDEDAREASOLID(#713,#715,#716,0.25);
#718=IFCSHAPEREPRESENTATION(#16,'Body','SweptSolid',(#717));
#719=IFCPRODUCTDEFINITIONSHAPE($,$,(#718));
#725=IFCCARTESIANPOINT((2.5,3.7999999999999998,1.8500000000000001));
#726=IFCDIRECTION((0.,0.,1.));
#727=IFCDIRECTION((1.,0.,0.));
#728=IFCAXIS2PLACEMENT3D(#725,#726,#727);
#729=IFCLOCALPLACEMENT(#43,#728);
#730=IFCOWNERHISTORY(#3,#4,.READWRITE.,.MODIFIED.,1778918959,#3,#4,1778918959);
#731=IFCBUILDINGELEMENTPROXY('2DH2XUaqPI7PLq_8tVB5$$',#730,'JAR-06',$,'Display Jar',#750,#740,'JAR-06',.ELEMENT.);
#732=IFCCARTESIANPOINT((0.,0.));
#733=IFCAXIS2PLACEMENT2D(#732,$);
#734=IFCRECTANGLEPROFILEDEF(.AREA.,$,#733,0.12,0.12);
#735=IFCCARTESIANPOINT((0.,0.,0.));
#736=IFCAXIS2PLACEMENT3D(#735,$,$);
#737=IFCDIRECTION((0.,0.,1.));
#738=IFCEXTRUDEDAREASOLID(#734,#736,#737,0.25);
#739=IFCSHAPEREPRESENTATION(#16,'Body','SweptSolid',(#738));
#740=IFCPRODUCTDEFINITIONSHAPE($,$,(#739));
#746=IFCCARTESIANPOINT((2.7000000000000002,3.7999999999999998,1.8500000000000001));
#747=IFCDIRECTION((0.,0.,1.));
#748=IFCDIRECTION((1.,0.,0.));
#749=IFCAXIS2PLACEMENT3D(#746,#747,#748);
#750=IFCLOCALPLACEMENT(#43,#749);
#751=IFCOWNERHISTORY(#3,#4,.READWRITE.,.MODIFIED.,1778918959,#3,#4,1778918959);
#752=IFCBUILDINGELEMENTPROXY('123TTt$_PJKfjtHGUy$9Mc',#751,'CUP-01',$,'Display Cup',#771,#761,'CUP-01',.ELEMENT.);
#753=IFCCARTESIANPOINT((0.,0.));
#754=IFCAXIS2PLACEMENT2D(#753,$);
#755=IFCRECTANGLEPROFILEDEF(.AREA.,$,#754,0.089999999999999997,0.089999999999999997);
#756=IFCCARTESIANPOINT((0.,0.,0.));
#757=IFCAXIS2PLACEMENT3D(#756,$,$);
#758=IFCDIRECTION((0.,0.,1.));
#759=IFCEXTRUDEDAREASOLID(#755,#757,#758,0.10000000000000001);
#760=IFCSHAPEREPRESENTATION(#16,'Body','SweptSolid',(#759));
#761=IFCPRODUCTDEFINITIONSHAPE($,$,(#760));
#767=IFCCARTESIANPOINT((1.2,3.7999999999999998,1.8500000000000001));
#768=IFCDIRECTION((0.,0.,1.));
#769=IFCDIRECTION((1.,0.,0.));
#770=IFCAXIS2PLACEMENT3D(#767,#768,#769);
#771=IFCLOCALPLACEMENT(#43,#770);
#772=IFCOWNERHISTORY(#3,#4,.READWRITE.,.MODIFIED.,1778918959,#3,#4,1778918959);
#773=IFCBUILDINGELEMENTPROXY('2s4WFjEFPK_AFx5qxXe7dv',#772,'CUP-02',$,'Display Cup',#792,#782,'CUP-02',.ELEMENT.);
#774=IFCCARTESIANPOINT((0.,0.));
#775=IFCAXIS2PLACEMENT2D(#774,$);
#776=IFCRECTANGLEPROFILEDEF(.AREA.,$,#775,0.089999999999999997,0.089999999999999997);
#777=IFCCARTESIANPOINT((0.,0.,0.));
#778=IFCAXIS2PLACEMENT3D(#777,$,$);
#779=IFCDIRECTION((0.,0.,1.));
#780=IFCEXTRUDEDAREASOLID(#776,#778,#779,0.10000000000000001);
#781=IFCSHAPEREPRESENTATION(#16,'Body','SweptSolid',(#780));
#782=IFCPRODUCTDEFINITIONSHAPE($,$,(#781));
#788=IFCCARTESIANPOINT((1.3500000000000001,3.7999999999999998,1.8500000000000001));
#789=IFCDIRECTION((0.,0.,1.));
#790=IFCDIRECTION((1.,0.,0.));
#791=IFCAXIS2PLACEMENT3D(#788,#789,#790);
#792=IFCLOCALPLACEMENT(#43,#791);
#793=IFCOWNERHISTORY(#3,#4,.READWRITE.,.MODIFIED.,1778918959,#3,#4,1778918959);
#794=IFCBUILDINGELEMENTPROXY('2EMC8Y2YPV8gyyIfIliw9j',#793,'CUP-03',$,'Display Cup',#813,#803,'CUP-03',.ELEMENT.);
#795=IFCCARTESIANPOINT((0.,0.));
#796=IFCAXIS2PLACEMENT2D(#795,$);
#797=IFCRECTANGLEPROFILEDEF(.AREA.,$,#796,0.089999999999999997,0.089999999999999997);
#798=IFCCARTESIANPOINT((0.,0.,0.));
#799=IFCAXIS2PLACEMENT3D(#798,$,$);
#800=IFCDIRECTION((0.,0.,1.));
#801=IFCEXTRUDEDAREASOLID(#797,#799,#800,0.10000000000000001);
#802=IFCSHAPEREPRESENTATION(#16,'Body','SweptSolid',(#801));
#803=IFCPRODUCTDEFINITIONSHAPE($,$,(#802));
#809=IFCCARTESIANPOINT((3.1000000000000001,3.7999999999999998,1.8500000000000001));
#810=IFCDIRECTION((0.,0.,1.));
#811=IFCDIRECTION((1.,0.,0.));
#812=IFCAXIS2PLACEMENT3D(#809,#810,#811);
#813=IFCLOCALPLACEMENT(#43,#812);
#814=IFCOWNERHISTORY(#3,#4,.READWRITE.,.MODIFIED.,1778918959,#3,#4,1778918959);
#815=IFCBUILDINGELEMENTPROXY('2KUDpo031Nc8gKnDb6ChGr',#814,'CUP-04',$,'Display Cup',#834,#824,'CUP-04',.ELEMENT.);
#816=IFCCARTESIANPOINT((0.,0.));
#817=IFCAXIS2PLACEMENT2D(#816,$);
#818=IFCRECTANGLEPROFILEDEF(.AREA.,$,#817,0.089999999999999997,0.089999999999999997);
#819=IFCCARTESIANPOINT((0.,0.,0.));
#820=IFCAXIS2PLACEMENT3D(#819,$,$);
#821=IFCDIRECTION((0.,0.,1.));
#822=IFCEXTRUDEDAREASOLID(#818,#820,#821,0.10000000000000001);
#823=IFCSHAPEREPRESENTATION(#16,'Body','SweptSolid',(#822));
#824=IFCPRODUCTDEFINITIONSHAPE($,$,(#823));
#830=IFCCARTESIANPOINT((3.25,3.7999999999999998,1.8500000000000001));
#831=IFCDIRECTION((0.,0.,1.));
#832=IFCDIRECTION((1.,0.,0.));
#833=IFCAXIS2PLACEMENT3D(#830,#831,#832);
#834=IFCLOCALPLACEMENT(#43,#833);
#835=IFCOWNERHISTORY(#3,#4,.READWRITE.,.MODIFIED.,1778918959,#3,#4,1778918959);
#836=IFCBUILDINGELEMENTPROXY('290YPDvX1KRAcqJfX_TI_h',#835,'MENU-BOARD',$,'Menu Board',#855,#845,'MENU-BOARD',.ELEMENT.);
#837=IFCCARTESIANPOINT((0.,0.));
#838=IFCAXIS2PLACEMENT2D(#837,$);
#839=IFCRECTANGLEPROFILEDEF(.AREA.,$,#838,1.,0.040000000000000001);
#840=IFCCARTESIANPOINT((0.,0.,0.));
#841=IFCAXIS2PLACEMENT3D(#840,$,$);
#842=IFCDIRECTION((0.,0.,1.));
#843=IFCEXTRUDEDAREASOLID(#839,#841,#842,0.5);
#844=IFCSHAPEREPRESENTATION(#16,'Body','SweptSolid',(#843));
#845=IFCPRODUCTDEFINITIONSHAPE($,$,(#844));
#851=IFCCARTESIANPOINT((1.5,3.9500000000000002,2.2999999999999998));
#852=IFCDIRECTION((0.,0.,1.));
#853=IFCDIRECTION((1.,0.,0.));
#854=IFCAXIS2PLACEMENT3D(#851,#852,#853);
#855=IFCLOCALPLACEMENT(#43,#854);
#856=IFCOWNERHISTORY(#3,#4,.READWRITE.,.MODIFIED.,1778918959,#3,#4,1778918959);
#857=IFCFURNISHINGELEMENT('27rCCSsAjTfARCK6e3mZeY',#856,'PLANTER-01',$,'Floor Planter',#876,#866,'PLANTER-01');
#858=IFCCARTESIANPOINT((0.,0.));
#859=IFCAXIS2PLACEMENT2D(#858,$);
#860=IFCRECTANGLEPROFILEDEF(.AREA.,$,#859,0.40000000000000002,0.40000000000000002);
#861=IFCCARTESIANPOINT((0.,0.,0.));
#862=IFCAXIS2PLACEMENT3D(#861,$,$);
#863=IFCDIRECTION((0.,0.,1.));
#864=IFCEXTRUDEDAREASOLID(#860,#862,#863,0.40000000000000002);
#865=IFCSHAPEREPRESENTATION(#16,'Body','SweptSolid',(#864));
#866=IFCPRODUCTDEFINITIONSHAPE($,$,(#865));
#872=IFCCARTESIANPOINT((0.20000000000000001,6.5,0.050000000000000003));
#873=IFCDIRECTION((0.,0.,1.));
#874=IFCDIRECTION((1.,0.,0.));
#875=IFCAXIS2PLACEMENT3D(#872,#873,#874);
#876=IFCLOCALPLACEMENT(#43,#875);
#877=IFCOWNERHISTORY(#3,#4,.READWRITE.,.MODIFIED.,1778918959,#3,#4,1778918959);
#878=IFCBUILDINGELEMENTPROXY('2ZaJIVe3zUmRFDF$y1bqj2',#877,'PLANTER-01-FOLIAGE',$,'Planter Foliage',#897,#887,'PLANTER-01-FOLIAGE',.ELEMENT.);
#879=IFCCARTESIANPOINT((0.,0.));
#880=IFCAXIS2PLACEMENT2D(#879,$);
#881=IFCRECTANGLEPROFILEDEF(.AREA.,$,#880,0.5,0.5);
#882=IFCCARTESIANPOINT((0.,0.,0.));
#883=IFCAXIS2PLACEMENT3D(#882,$,$);
#884=IFCDIRECTION((0.,0.,1.));
#885=IFCEXTRUDEDAREASOLID(#881,#883,#884,0.69999999999999996);
#886=IFCSHAPEREPRESENTATION(#16,'Body','SweptSolid',(#885));
#887=IFCPRODUCTDEFINITIONSHAPE($,$,(#886));
#893=IFCCARTESIANPOINT((0.20000000000000001,6.5,0.40000000000000002));
#894=IFCDIRECTION((0.,0.,1.));
#895=IFCDIRECTION((1.,0.,0.));
#896=IFCAXIS2PLACEMENT3D(#893,#894,#895);
#897=IFCLOCALPLACEMENT(#43,#896);
#898=IFCOWNERHISTORY(#3,#4,.READWRITE.,.MODIFIED.,1778918959,#3,#4,1778918959);
#899=IFCFURNISHINGELEMENT('0hcAkjcS1VuPUyY7D0M0do',#898,'PLANTER-02',$,'Floor Planter',#918,#908,'PLANTER-02');
#900=IFCCARTESIANPOINT((0.,0.));
#901=IFCAXIS2PLACEMENT2D(#900,$);
#902=IFCRECTANGLEPROFILEDEF(.AREA.,$,#901,0.40000000000000002,0.40000000000000002);
#903=IFCCARTESIANPOINT((0.,0.,0.));
#904=IFCAXIS2PLACEMENT3D(#903,$,$);
#905=IFCDIRECTION((0.,0.,1.));
#906=IFCEXTRUDEDAREASOLID(#902,#904,#905,0.40000000000000002);
#907=IFCSHAPEREPRESENTATION(#16,'Body','SweptSolid',(#906));
#908=IFCPRODUCTDEFINITIONSHAPE($,$,(#907));
#914=IFCCARTESIANPOINT((3.3999999999999999,6.5,0.050000000000000003));
#915=IFCDIRECTION((0.,0.,1.));
#916=IFCDIRECTION((1.,0.,0.));
#917=IFCAXIS2PLACEMENT3D(#914,#915,#916);
#918=IFCLOCALPLACEMENT(#43,#917);
#919=IFCOWNERHISTORY(#3,#4,.READWRITE.,.MODIFIED.,1778918959,#3,#4,1778918959);
#920=IFCBUILDINGELEMENTPROXY('2t5q$sUzvNc9KadxjaWvdB',#919,'PLANTER-02-FOLIAGE',$,'Planter Foliage',#939,#929,'PLANTER-02-FOLIAGE',.ELEMENT.);
#921=IFCCARTESIANPOINT((0.,0.));
#922=IFCAXIS2PLACEMENT2D(#921,$);
#923=IFCRECTANGLEPROFILEDEF(.AREA.,$,#922,0.5,0.5);
#924=IFCCARTESIANPOINT((0.,0.,0.));
#925=IFCAXIS2PLACEMENT3D(#924,$,$);
#926=IFCDIRECTION((0.,0.,1.));
#927=IFCEXTRUDEDAREASOLID(#923,#925,#926,0.69999999999999996);
#928=IFCSHAPEREPRESENTATION(#16,'Body','SweptSolid',(#927));
#929=IFCPRODUCTDEFINITIONSHAPE($,$,(#928));
#935=IFCCARTESIANPOINT((3.3999999999999999,6.5,0.40000000000000002));
#936=IFCDIRECTION((0.,0.,1.));
#937=IFCDIRECTION((1.,0.,0.));
#938=IFCAXIS2PLACEMENT3D(#935,#936,#937);
#939=IFCLOCALPLACEMENT(#43,#938);
#940=IFCOWNERHISTORY(#3,#4,.READWRITE.,.ADDED.,1778918979,#3,#4,1778918979);
#941=IFCPROPERTYSET('0pf5yy4xrKpv$c6WThSdGw',#940,'Pset_BuildFlowExhibitionElement',$,(#944,#945,#946,#947,#948));
#942=IFCOWNERHISTORY(#3,#4,.READWRITE.,.ADDED.,1778918979,#3,#4,1778918979);
#943=IFCRELDEFINESBYPROPERTIES('1i4pluRsfOthZHp72YxTZ9',#942,$,$,(#119),#941);
#944=IFCPROPERTYSINGLEVALUE('Description',$,IFCLABEL('Polished concrete floor slab'),$);
#945=IFCPROPERTYSINGLEVALUE('Material',$,IFCLABEL('Polished Concrete'),$);
#946=IFCPROPERTYSINGLEVALUE('ObjectType',$,IFCLABEL('Floor Slab'),$);
#947=IFCPROPERTYSINGLEVALUE('Brand',$,IFCLABEL('CAFE'),$);
#948=IFCPROPERTYSINGLEVALUE('IsExhibitElement',$,IFCBOOLEAN(.T.),$);
#949=IFCOWNERHISTORY(#3,#4,.READWRITE.,.ADDED.,1778918979,#3,#4,1778918979);
#950=IFCPROPERTYSET('1gf_KjPsHHNxASVkxElhai',#949,'Pset_BuildFlowExhibitionElement',$,(#953,#954,#955,#956,#957));
#951=IFCOWNERHISTORY(#3,#4,.READWRITE.,.ADDED.,1778918979,#3,#4,1778918979);
#952=IFCRELDEFINESBYPROPERTIES('1ALemF0zrQzuKD6aruOUwM',#951,$,$,(#142),#950);
#953=IFCPROPERTYSINGLEVALUE('Description',$,IFCLABEL('Counter body, smoked walnut oak'),$);
#954=IFCPROPERTYSINGLEVALUE('Material',$,IFCLABEL('Smoked Walnut Oak'),$);
#955=IFCPROPERTYSINGLEVALUE('ObjectType',$,IFCLABEL('Counter Body'),$);
#956=IFCPROPERTYSINGLEVALUE('Brand',$,IFCLABEL('CAFE'),$);
#957=IFCPROPERTYSINGLEVALUE('IsExhibitElement',$,IFCBOOLEAN(.T.),$);
#958=IFCOWNERHISTORY(#3,#4,.READWRITE.,.ADDED.,1778918979,#3,#4,1778918979);
#959=IFCPROPERTYSET('2xrioviF1Oa8Ed9IPjH7Al',#958,'Pset_BuildFlowExhibitionElement',$,(#962,#963,#964,#965,#966));
#960=IFCOWNERHISTORY(#3,#4,.READWRITE.,.ADDED.,1778918979,#3,#4,1778918979);
#961=IFCRELDEFINESBYPROPERTIES('0tav3Uwh5MGwfLukaWfiso',#960,$,$,(#163),#959);
#962=IFCPROPERTYSINGLEVALUE('Description',$,IFCLABEL('Counter top travertine slab, 0.1m overhang'),$);
#963=IFCPROPERTYSINGLEVALUE('Material',$,IFCLABEL('Pale Ivory Travertine'),$);
#964=IFCPROPERTYSINGLEVALUE('ObjectType',$,IFCLABEL('Counter Top'),$);
#965=IFCPROPERTYSINGLEVALUE('Brand',$,IFCLABEL('CAFE'),$);
#966=IFCPROPERTYSINGLEVALUE('IsExhibitElement',$,IFCBOOLEAN(.T.),$);
#967=IFCOWNERHISTORY(#3,#4,.READWRITE.,.ADDED.,1778918979,#3,#4,1778918979);
#968=IFCPROPERTYSET('2VH3veIkLP5vbMho0YiBO3',#967,'Pset_BuildFlowExhibitionElement',$,(#971,#972,#973,#974,#975));
#969=IFCOWNERHISTORY(#3,#4,.READWRITE.,.ADDED.,1778918979,#3,#4,1778918979);
#970=IFCRELDEFINESBYPROPERTIES('0wNgoTRXjMXfKU_z34lg4V',#969,$,$,(#184),#968);
#971=IFCPROPERTYSINGLEVALUE('Description',$,IFCLABEL('Counter front bronze toe reveal'),$);
#972=IFCPROPERTYSINGLEVALUE('Material',$,IFCLABEL('Bronze Finish'),$);
#973=IFCPROPERTYSINGLEVALUE('ObjectType',$,IFCLABEL('Toe Reveal'),$);
#974=IFCPROPERTYSINGLEVALUE('Brand',$,IFCLABEL('CAFE'),$);
#975=IFCPROPERTYSINGLEVALUE('IsExhibitElement',$,IFCBOOLEAN(.T.),$);
#976=IFCOWNERHISTORY(#3,#4,.READWRITE.,.ADDED.,1778918979,#3,#4,1778918979);
#977=IFCPROPERTYSET('1JehoPcc5IEQDljBPODbm3',#976,'Pset_BuildFlowExhibitionElement',$,(#980,#981,#982,#983,#984));
#978=IFCOWNERHISTORY(#3,#4,.READWRITE.,.ADDED.,1778918979,#3,#4,1778918979);
#979=IFCRELDEFINESBYPROPERTIES('2lyOuwuFfRqB6vRqDXOY8w',#978,$,$,(#205),#977);
#980=IFCPROPERTYSINGLEVALUE('Description',$,IFCLABEL('Espresso machine 1, chrome body'),$);
#981=IFCPROPERTYSINGLEVALUE('Material',$,IFCLABEL('Chrome Finish'),$);
#982=IFCPROPERTYSINGLEVALUE('ObjectType',$,IFCLABEL('Espresso Machine'),$);
#983=IFCPROPERTYSINGLEVALUE('Brand',$,IFCLABEL('CAFE'),$);
#984=IFCPROPERTYSINGLEVALUE('IsExhibitElement',$,IFCBOOLEAN(.T.),$);
#985=IFCOWNERHISTORY(#3,#4,.READWRITE.,.ADDED.,1778918979,#3,#4,1778918979);
#986=IFCPROPERTYSET('0S20Nf18zQauxYZ7c90Zh_',#985,'Pset_BuildFlowExhibitionElement',$,(#989,#990,#991,#992,#993));
#987=IFCOWNERHISTORY(#3,#4,.READWRITE.,.ADDED.,1778918979,#3,#4,1778918979);
#988=IFCRELDEFINESBYPROPERTIES('2zc$FOVxnOnfI3IWH3c7nX',#987,$,$,(#226),#986);
#989=IFCPROPERTYSINGLEVALUE('Description',$,IFCLABEL('Espresso 1 group head spouts'),$);
#990=IFCPROPERTYSINGLEVALUE('Material',$,IFCLABEL('Chrome Finish'),$);
#991=IFCPROPERTYSINGLEVALUE('ObjectType',$,IFCLABEL('Group Head'),$);
#992=IFCPROPERTYSINGLEVALUE('Brand',$,IFCLABEL('CAFE'),$);
#993=IFCPROPERTYSINGLEVALUE('IsExhibitElement',$,IFCBOOLEAN(.T.),$);
#994=IFCOWNERHISTORY(#3,#4,.READWRITE.,.ADDED.,1778918979,#3,#4,1778918979);
#995=IFCPROPERTYSET('2OZA1yEubNWRlhHZy$GMFO',#994,'Pset_BuildFlowExhibitionElement',$,(#998,#999,#1000,#1001,#1002));
#996=IFCOWNERHISTORY(#3,#4,.READWRITE.,.ADDED.,1778918979,#3,#4,1778918979);
#997=IFCRELDEFINESBYPROPERTIES('3cGw1i6e1PbODCo0vb6lQv',#996,$,$,(#247),#995);
#998=IFCPROPERTYSINGLEVALUE('Description',$,IFCLABEL('Espresso machine 2, chrome body'),$);
#999=IFCPROPERTYSINGLEVALUE('Material',$,IFCLABEL('Chrome Finish'),$);
#1000=IFCPROPERTYSINGLEVALUE('ObjectType',$,IFCLABEL('Espresso Machine'),$);
#1001=IFCPROPERTYSINGLEVALUE('Brand',$,IFCLABEL('CAFE'),$);
#1002=IFCPROPERTYSINGLEVALUE('IsExhibitElement',$,IFCBOOLEAN(.T.),$);
#1003=IFCOWNERHISTORY(#3,#4,.READWRITE.,.ADDED.,1778918979,#3,#4,1778918979);
#1004=IFCPROPERTYSET('3JGAveCsvVF8e$8mr2e$n_',#1003,'Pset_BuildFlowExhibitionElement',$,(#1007,#1008,#1009,#1010,#1011));
#1005=IFCOWNERHISTORY(#3,#4,.READWRITE.,.ADDED.,1778918979,#3,#4,1778918979);
#1006=IFCRELDEFINESBYPROPERTIES('3EiVetIazM4fhq4CSsJuiH',#1005,$,$,(#268),#1004);
#1007=IFCPROPERTYSINGLEVALUE('Description',$,IFCLABEL('Espresso 2 group head spouts'),$);
#1008=IFCPROPERTYSINGLEVALUE('Material',$,IFCLABEL('Chrome Finish'),$);
#1009=IFCPROPERTYSINGLEVALUE('ObjectType',$,IFCLABEL('Group Head'),$);
#1010=IFCPROPERTYSINGLEVALUE('Brand',$,IFCLABEL('CAFE'),$);
#1011=IFCPROPERTYSINGLEVALUE('IsExhibitElement',$,IFCBOOLEAN(.T.),$);
#1012=IFCOWNERHISTORY(#3,#4,.READWRITE.,.ADDED.,1778918979,#3,#4,1778918979);
#1013=IFCPROPERTYSET('3Nx0P0KYDVpBGJEDGfk6uG',#1012,'Pset_BuildFlowExhibitionElement',$,(#1016,#1017,#1018,#1019,#1020));
#1014=IFCOWNERHISTORY(#3,#4,.READWRITE.,.ADDED.,1778918979,#3,#4,1778918979);
#1015=IFCRELDEFINESBYPROPERTIES('2DH2XUaqPI7PLq_8tVB5$$',#1014,$,$,(#289),#1013);
#1016=IFCPROPERTYSINGLEVALUE('Description',$,IFCLABEL('Bar stool 1, walnut pedestal'),$);
#1017=IFCPROPERTYSINGLEVALUE('Material',$,IFCLABEL('Smoked Walnut Oak'),$);
#1018=IFCPROPERTYSINGLEVALUE('ObjectType',$,IFCLABEL('Bar Stool'),$);
#1019=IFCPROPERTYSINGLEVALUE('Brand',$,IFCLABEL('CAFE'),$);
#1020=IFCPROPERTYSINGLEVALUE('IsExhibitElement',$,IFCBOOLEAN(.T.),$);
#1021=IFCOWNERHISTORY(#3,#4,.READWRITE.,.ADDED.,1778918979,#3,#4,1778918979);
#1022=IFCPROPERTYSET('123TTt$_PJKfjtHGUy$9Mc',#1021,'Pset_BuildFlowExhibitionElement',$,(#1025,#1026,#1027,#1028,#1029));
#1023=IFCOWNERHISTORY(#3,#4,.READWRITE.,.ADDED.,1778918979,#3,#4,1778918979);
#1024=IFCRELDEFINESBYPROPERTIES('2s4WFjEFPK_AFx5qxXe7dv',#1023,$,$,(#310),#1022);
#1025=IFCPROPERTYSINGLEVALUE('Description',$,IFCLABEL('Bar stool 2, walnut pedestal'),$);
#1026=IFCPROPERTYSINGLEVALUE('Material',$,IFCLABEL('Smoked Walnut Oak'),$);
#1027=IFCPROPERTYSINGLEVALUE('ObjectType',$,IFCLABEL('Bar Stool'),$);
#1028=IFCPROPERTYSINGLEVALUE('Brand',$,IFCLABEL('CAFE'),$);
#1029=IFCPROPERTYSINGLEVALUE('IsExhibitElement',$,IFCBOOLEAN(.T.),$);
#1030=IFCOWNERHISTORY(#3,#4,.READWRITE.,.ADDED.,1778918979,#3,#4,1778918979);
#1031=IFCPROPERTYSET('2EMC8Y2YPV8gyyIfIliw9j',#1030,'Pset_BuildFlowExhibitionElement',$,(#1034,#1035,#1036,#1037,#1038));
#1032=IFCOWNERHISTORY(#3,#4,.READWRITE.,.ADDED.,1778918979,#3,#4,1778918979);
#1033=IFCRELDEFINESBYPROPERTIES('2KUDpo031Nc8gKnDb6ChGr',#1032,$,$,(#331),#1031);
#1034=IFCPROPERTYSINGLEVALUE('Description',$,IFCLABEL('Bar stool 3, walnut pedestal'),$);
#1035=IFCPROPERTYSINGLEVALUE('Material',$,IFCLABEL('Smoked Walnut Oak'),$);
#1036=IFCPROPERTYSINGLEVALUE('ObjectType',$,IFCLABEL('Bar Stool'),$);
#1037=IFCPROPERTYSINGLEVALUE('Brand',$,IFCLABEL('CAFE'),$);
#1038=IFCPROPERTYSINGLEVALUE('IsExhibitElement',$,IFCBOOLEAN(.T.),$);
#1039=IFCOWNERHISTORY(#3,#4,.READWRITE.,.ADDED.,1778918979,#3,#4,1778918979);
#1040=IFCPROPERTYSET('290YPDvX1KRAcqJfX_TI_h',#1039,'Pset_BuildFlowExhibitionElement',$,(#1043,#1044,#1045,#1046,#1047));
#1041=IFCOWNERHISTORY(#3,#4,.READWRITE.,.ADDED.,1778918979,#3,#4,1778918979);
#1042=IFCRELDEFINESBYPROPERTIES('27rCCSsAjTfARCK6e3mZeY',#1041,$,$,(#352),#1040);
#1043=IFCPROPERTYSINGLEVALUE('Description',$,IFCLABEL('Bar stool 4, walnut pedestal'),$);
#1044=IFCPROPERTYSINGLEVALUE('Material',$,IFCLABEL('Smoked Walnut Oak'),$);
#1045=IFCPROPERTYSINGLEVALUE('ObjectType',$,IFCLABEL('Bar Stool'),$);
#1046=IFCPROPERTYSINGLEVALUE('Brand',$,IFCLABEL('CAFE'),$);
#1047=IFCPROPERTYSINGLEVALUE('IsExhibitElement',$,IFCBOOLEAN(.T.),$);
#1048=IFCOWNERHISTORY(#3,#4,.READWRITE.,.ADDED.,1778918979,#3,#4,1778918979);
#1049=IFCPROPERTYSET('2ZaJIVe3zUmRFDF$y1bqj2',#1048,'Pset_BuildFlowExhibitionElement',$,(#1052,#1053,#1054,#1055,#1056));
#1050=IFCOWNERHISTORY(#3,#4,.READWRITE.,.ADDED.,1778918979,#3,#4,1778918979);
#1051=IFCRELDEFINESBYPROPERTIES('0hcAkjcS1VuPUyY7D0M0do',#1050,$,$,(#374),#1049);
#1052=IFCPROPERTYSINGLEVALUE('Description',$,IFCLABEL('Pendant light over counter L, bronze body'),$);
#1053=IFCPROPERTYSINGLEVALUE('Material',$,IFCLABEL('Bronze Finish'),$);
#1054=IFCPROPERTYSINGLEVALUE('ObjectType',$,IFCLABEL('Pendant Light'),$);
#1055=IFCPROPERTYSINGLEVALUE('Brand',$,IFCLABEL('CAFE'),$);
#1056=IFCPROPERTYSINGLEVALUE('IsExhibitElement',$,IFCBOOLEAN(.T.),$);
#1057=IFCOWNERHISTORY(#3,#4,.READWRITE.,.ADDED.,1778918979,#3,#4,1778918979);
#1058=IFCPROPERTYSET('2t5q$sUzvNc9KadxjaWvdB',#1057,'Pset_BuildFlowExhibitionElement',$,(#1061,#1062,#1063,#1064,#1065));
#1059=IFCOWNERHISTORY(#3,#4,.READWRITE.,.ADDED.,1778918979,#3,#4,1778918979);
#1060=IFCRELDEFINESBYPROPERTIES('1o85uRF61IAgOL3LMQzhHa',#1059,$,$,(#395),#1058);
#1061=IFCPROPERTYSINGLEVALUE('Description',$,IFCLABEL('Pendant 01 ceiling cable cap'),$);
#1062=IFCPROPERTYSINGLEVALUE('Material',$,IFCLABEL('Bronze Finish'),$);
#1063=IFCPROPERTYSINGLEVALUE('ObjectType',$,IFCLABEL('Pendant Cable'),$);
#1064=IFCPROPERTYSINGLEVALUE('Brand',$,IFCLABEL('CAFE'),$);
#1065=IFCPROPERTYSINGLEVALUE('IsExhibitElement',$,IFCBOOLEAN(.T.),$);
#1066=IFCOWNERHISTORY(#3,#4,.READWRITE.,.ADDED.,1778918979,#3,#4,1778918979);
#1067=IFCPROPERTYSET('09cW1zZp1HuBsKqfeD_aFv',#1066,'Pset_BuildFlowExhibitionElement',$,(#1070,#1071,#1072,#1073,#1074));
#1068=IFCOWNERHISTORY(#3,#4,.READWRITE.,.ADDED.,1778918979,#3,#4,1778918979);
#1069=IFCRELDEFINESBYPROPERTIES('2timhtVUfOzuhZamosKz4F',#1068,$,$,(#416),#1067);
#1070=IFCPROPERTYSINGLEVALUE('Description',$,IFCLABEL('Pendant light over counter C, bronze body'),$);
#1071=IFCPROPERTYSINGLEVALUE('Material',$,IFCLABEL('Bronze Finish'),$);
#1072=IFCPROPERTYSINGLEVALUE('ObjectType',$,IFCLABEL('Pendant Light'),$);
#1073=IFCPROPERTYSINGLEVALUE('Brand',$,IFCLABEL('CAFE'),$);
#1074=IFCPROPERTYSINGLEVALUE('IsExhibitElement',$,IFCBOOLEAN(.T.),$);
#1075=IFCOWNERHISTORY(#3,#4,.READWRITE.,.ADDED.,1778918979,#3,#4,1778918979);
#1076=IFCPROPERTYSET('1fSW9tBI5NnABrD0dmQtsN',#1075,'Pset_BuildFlowExhibitionElement',$,(#1079,#1080,#1081,#1082,#1083));
#1077=IFCOWNERHISTORY(#3,#4,.READWRITE.,.ADDED.,1778918979,#3,#4,1778918979);
#1078=IFCRELDEFINESBYPROPERTIES('1NBwh2KeXGtBBlhrkd_mSh',#1077,$,$,(#437),#1076);
#1079=IFCPROPERTYSINGLEVALUE('Description',$,IFCLABEL('Pendant 02 ceiling cable cap'),$);
#1080=IFCPROPERTYSINGLEVALUE('Material',$,IFCLABEL('Bronze Finish'),$);
#1081=IFCPROPERTYSINGLEVALUE('ObjectType',$,IFCLABEL('Pendant Cable'),$);
#1082=IFCPROPERTYSINGLEVALUE('Brand',$,IFCLABEL('CAFE'),$);
#1083=IFCPROPERTYSINGLEVALUE('IsExhibitElement',$,IFCBOOLEAN(.T.),$);
#1084=IFCOWNERHISTORY(#3,#4,.READWRITE.,.ADDED.,1778918979,#3,#4,1778918979);
#1085=IFCPROPERTYSET('0dkIp$gBPS5utI1uv5tAqU',#1084,'Pset_BuildFlowExhibitionElement',$,(#1088,#1089,#1090,#1091,#1092));
#1086=IFCOWNERHISTORY(#3,#4,.READWRITE.,.ADDED.,1778918979,#3,#4,1778918979);
#1087=IFCRELDEFINESBYPROPERTIES('0hHRQ$999O_Qf28jDkD5GJ',#1086,$,$,(#458),#1085);
#1088=IFCPROPERTYSINGLEVALUE('Description',$,IFCLABEL('Pendant light over counter R, bronze body'),$);
#1089=IFCPROPERTYSINGLEVALUE('Material',$,IFCLABEL('Bronze Finish'),$);
#1090=IFCPROPERTYSINGLEVALUE('ObjectType',$,IFCLABEL('Pendant Light'),$);
#1091=IFCPROPERTYSINGLEVALUE('Brand',$,IFCLABEL('CAFE'),$);
#1092=IFCPROPERTYSINGLEVALUE('IsExhibitElement',$,IFCBOOLEAN(.T.),$);
#1093=IFCOWNERHISTORY(#3,#4,.READWRITE.,.ADDED.,1778918979,#3,#4,1778918979);
#1094=IFCPROPERTYSET('2Hdri9dIvI28dH$0hJo$gX',#1093,'Pset_BuildFlowExhibitionElement',$,(#1097,#1098,#1099,#1100,#1101));
#1095=IFCOWNERHISTORY(#3,#4,.READWRITE.,.ADDED.,1778918979,#3,#4,1778918979);
#1096=IFCRELDEFINESBYPROPERTIES('39ppRiUAbQreysDbVcsHYu',#1095,$,$,(#479),#1094);
#1097=IFCPROPERTYSINGLEVALUE('Description',$,IFCLABEL('Pendant 03 ceiling cable cap'),$);
#1098=IFCPROPERTYSINGLEVALUE('Material',$,IFCLABEL('Bronze Finish'),$);
#1099=IFCPROPERTYSINGLEVALUE('ObjectType',$,IFCLABEL('Pendant Cable'),$);
#1100=IFCPROPERTYSINGLEVALUE('Brand',$,IFCLABEL('CAFE'),$);
#1101=IFCPROPERTYSINGLEVALUE('IsExhibitElement',$,IFCBOOLEAN(.T.),$);
#1102=IFCOWNERHISTORY(#3,#4,.READWRITE.,.ADDED.,1778918979,#3,#4,1778918979);
#1103=IFCPROPERTYSET('2qOF3ccNXKB8Et2piBB$e9',#1102,'Pset_BuildFlowExhibitionElement',$,(#1106,#1107,#1108,#1109,#1110));
#1104=IFCOWNERHISTORY(#3,#4,.READWRITE.,.ADDED.,1778918979,#3,#4,1778918979);
#1105=IFCRELDEFINESBYPROPERTIES('3oi2mLVPjGAxpOtbmDxBjG',#1104,$,$,(#500),#1103);
#1106=IFCPROPERTYSINGLEVALUE('Description',$,IFCLABEL('Ceiling speaker SW'),$);
#1107=IFCPROPERTYSINGLEVALUE('Material',$,IFCLABEL('Matte Black Laminate'),$);
#1108=IFCPROPERTYSINGLEVALUE('ObjectType',$,IFCLABEL('Ceiling Speaker'),$);
#1109=IFCPROPERTYSINGLEVALUE('Brand',$,IFCLABEL('CAFE'),$);
#1110=IFCPROPERTYSINGLEVALUE('IsExhibitElement',$,IFCBOOLEAN(.T.),$);
#1111=IFCOWNERHISTORY(#3,#4,.READWRITE.,.ADDED.,1778918979,#3,#4,1778918979);
#1112=IFCPROPERTYSET('3lasWcpQrT2PwR0KBkrD2m',#1111,'Pset_BuildFlowExhibitionElement',$,(#1115,#1116,#1117,#1118,#1119));
#1113=IFCOWNERHISTORY(#3,#4,.READWRITE.,.ADDED.,1778918979,#3,#4,1778918979);
#1114=IFCRELDEFINESBYPROPERTIES('2le90X0afIQ8ILg8yiJ_CC',#1113,$,$,(#521),#1112);
#1115=IFCPROPERTYSINGLEVALUE('Description',$,IFCLABEL('Ceiling speaker SE'),$);
#1116=IFCPROPERTYSINGLEVALUE('Material',$,IFCLABEL('Matte Black Laminate'),$);
#1117=IFCPROPERTYSINGLEVALUE('ObjectType',$,IFCLABEL('Ceiling Speaker'),$);
#1118=IFCPROPERTYSINGLEVALUE('Brand',$,IFCLABEL('CAFE'),$);
#1119=IFCPROPERTYSINGLEVALUE('IsExhibitElement',$,IFCBOOLEAN(.T.),$);
#1120=IFCOWNERHISTORY(#3,#4,.READWRITE.,.ADDED.,1778918979,#3,#4,1778918979);
#1121=IFCPROPERTYSET('1ol_LbgrLJDheA8jJhILWy',#1120,'Pset_BuildFlowExhibitionElement',$,(#1124,#1125,#1126,#1127,#1128));
#1122=IFCOWNERHISTORY(#3,#4,.READWRITE.,.ADDED.,1778918979,#3,#4,1778918979);
#1123=IFCRELDEFINESBYPROPERTIES('2tYMdbWPXNW8kr3dxiMgmA',#1122,$,$,(#542),#1121);
#1124=IFCPROPERTYSINGLEVALUE('Description',$,IFCLABEL('Ceiling speaker NW'),$);
#1125=IFCPROPERTYSINGLEVALUE('Material',$,IFCLABEL('Matte Black Laminate'),$);
#1126=IFCPROPERTYSINGLEVALUE('ObjectType',$,IFCLABEL('Ceiling Speaker'),$);
#1127=IFCPROPERTYSINGLEVALUE('Brand',$,IFCLABEL('CAFE'),$);
#1128=IFCPROPERTYSINGLEVALUE('IsExhibitElement',$,IFCBOOLEAN(.T.),$);
#1129=IFCOWNERHISTORY(#3,#4,.READWRITE.,.ADDED.,1778918979,#3,#4,1778918979);
#1130=IFCPROPERTYSET('2wW3TYocPLkQhIGd_k7HxS',#1129,'Pset_BuildFlowExhibitionElement',$,(#1133,#1134,#1135,#1136,#1137));
#1131=IFCOWNERHISTORY(#3,#4,.READWRITE.,.ADDED.,1778918979,#3,#4,1778918979);
#1132=IFCRELDEFINESBYPROPERTIES('3$pjQj0jnKNw7xS1otUmon',#1131,$,$,(#563),#1130);
#1133=IFCPROPERTYSINGLEVALUE('Description',$,IFCLABEL('Ceiling speaker NE'),$);
#1134=IFCPROPERTYSINGLEVALUE('Material',$,IFCLABEL('Matte Black Laminate'),$);
#1135=IFCPROPERTYSINGLEVALUE('ObjectType',$,IFCLABEL('Ceiling Speaker'),$);
#1136=IFCPROPERTYSINGLEVALUE('Brand',$,IFCLABEL('CAFE'),$);
#1137=IFCPROPERTYSINGLEVALUE('IsExhibitElement',$,IFCBOOLEAN(.T.),$);
#1138=IFCOWNERHISTORY(#3,#4,.READWRITE.,.ADDED.,1778918979,#3,#4,1778918979);
#1139=IFCPROPERTYSET('2vtrF$OATHqvema83kDt8A',#1138,'Pset_BuildFlowExhibitionElement',$,(#1142,#1143,#1144,#1145,#1146));
#1140=IFCOWNERHISTORY(#3,#4,.READWRITE.,.ADDED.,1778918979,#3,#4,1778918979);
#1141=IFCRELDEFINESBYPROPERTIES('3ppZEb$EXUEOgxDTi2gkdl',#1140,$,$,(#584),#1139);
#1142=IFCPROPERTYSINGLEVALUE('Description',$,IFCLABEL('Wall shelf 01 over back wall L'),$);
#1143=IFCPROPERTYSINGLEVALUE('Material',$,IFCLABEL('Smoked Walnut Oak'),$);
#1144=IFCPROPERTYSINGLEVALUE('ObjectType',$,IFCLABEL('Wall Shelf'),$);
#1145=IFCPROPERTYSINGLEVALUE('Brand',$,IFCLABEL('CAFE'),$);
#1146=IFCPROPERTYSINGLEVALUE('IsExhibitElement',$,IFCBOOLEAN(.T.),$);
#1147=IFCOWNERHISTORY(#3,#4,.READWRITE.,.ADDED.,1778918979,#3,#4,1778918979);
#1148=IFCPROPERTYSET('3vObDn4uPLdABs$DKj6wX$',#1147,'Pset_BuildFlowExhibitionElement',$,(#1151,#1152,#1153,#1154,#1155));
#1149=IFCOWNERHISTORY(#3,#4,.READWRITE.,.ADDED.,1778918979,#3,#4,1778918979);
#1150=IFCRELDEFINESBYPROPERTIES('0RIiIyoO9RsA2svSEBWWNR',#1149,$,$,(#605),#1148);
#1151=IFCPROPERTYSINGLEVALUE('Description',$,IFCLABEL('Wall shelf 02 over back wall R'),$);
#1152=IFCPROPERTYSINGLEVALUE('Material',$,IFCLABEL('Smoked Walnut Oak'),$);
#1153=IFCPROPERTYSINGLEVALUE('ObjectType',$,IFCLABEL('Wall Shelf'),$);
#1154=IFCPROPERTYSINGLEVALUE('Brand',$,IFCLABEL('CAFE'),$);
#1155=IFCPROPERTYSINGLEVALUE('IsExhibitElement',$,IFCBOOLEAN(.T.),$);
#1156=IFCOWNERHISTORY(#3,#4,.READWRITE.,.ADDED.,1778918979,#3,#4,1778918979);
#1157=IFCPROPERTYSET('12jXSNiAbHsuMsoEzBETKL',#1156,'Pset_BuildFlowExhibitionElement',$,(#1160,#1161,#1162,#1163,#1164));
#1158=IFCOWNERHISTORY(#3,#4,.READWRITE.,.ADDED.,1778918979,#3,#4,1778918979);
#1159=IFCRELDEFINESBYPROPERTIES('3$9LfaZ65NnQCl9VwLtClz',#1158,$,$,(#626),#1157);
#1160=IFCPROPERTYSINGLEVALUE('Description',$,IFCLABEL('Coffee bean jar on shelf 01'),$);
#1161=IFCPROPERTYSINGLEVALUE('Material',$,IFCLABEL('Chrome Finish'),$);
#1162=IFCPROPERTYSINGLEVALUE('ObjectType',$,IFCLABEL('Display Jar'),$);
#1163=IFCPROPERTYSINGLEVALUE('Brand',$,IFCLABEL('CAFE'),$);
#1164=IFCPROPERTYSINGLEVALUE('IsExhibitElement',$,IFCBOOLEAN(.T.),$);
#1165=IFCOWNERHISTORY(#3,#4,.READWRITE.,.ADDED.,1778918979,#3,#4,1778918979);
#1166=IFCPROPERTYSET('2rinIUbCbUIPRpEZuAa3TA',#1165,'Pset_BuildFlowExhibitionElement',$,(#1169,#1170,#1171,#1172,#1173));
#1167=IFCOWNERHISTORY(#3,#4,.READWRITE.,.ADDED.,1778918979,#3,#4,1778918979);
#1168=IFCRELDEFINESBYPROPERTIES('3CWP3_xOnSpQUzd3b20cin',#1167,$,$,(#647),#1166);
#1169=IFCPROPERTYSINGLEVALUE('Description',$,IFCLABEL('Coffee bean jar 02 on shelf 01'),$);
#1170=IFCPROPERTYSINGLEVALUE('Material',$,IFCLABEL('Chrome Finish'),$);
#1171=IFCPROPERTYSINGLEVALUE('ObjectType',$,IFCLABEL('Display Jar'),$);
#1172=IFCPROPERTYSINGLEVALUE('Brand',$,IFCLABEL('CAFE'),$);
#1173=IFCPROPERTYSINGLEVALUE('IsExhibitElement',$,IFCBOOLEAN(.T.),$);
#1174=IFCOWNERHISTORY(#3,#4,.READWRITE.,.ADDED.,1778918979,#3,#4,1778918979);
#1175=IFCPROPERTYSET('2NdzbB0aPOUROPAru87Luj',#1174,'Pset_BuildFlowExhibitionElement',$,(#1178,#1179,#1180,#1181,#1182));
#1176=IFCOWNERHISTORY(#3,#4,.READWRITE.,.ADDED.,1778918979,#3,#4,1778918979);
#1177=IFCRELDEFINESBYPROPERTIES('3f9oY5so9LVuQ9g1lV76K3',#1176,$,$,(#668),#1175);
#1178=IFCPROPERTYSINGLEVALUE('Description',$,IFCLABEL('Coffee bean jar 03 on shelf 01'),$);
#1179=IFCPROPERTYSINGLEVALUE('Material',$,IFCLABEL('Chrome Finish'),$);
#1180=IFCPROPERTYSINGLEVALUE('ObjectType',$,IFCLABEL('Display Jar'),$);
#1181=IFCPROPERTYSINGLEVALUE('Brand',$,IFCLABEL('CAFE'),$);
#1182=IFCPROPERTYSINGLEVALUE('IsExhibitElement',$,IFCBOOLEAN(.T.),$);
#1183=IFCOWNERHISTORY(#3,#4,.READWRITE.,.ADDED.,1778918979,#3,#4,1778918979);
#1184=IFCPROPERTYSET('12r0DuYlHOjuvgVkwoZx$d',#1183,'Pset_BuildFlowExhibitionElement',$,(#1187,#1188,#1189,#1190,#1191));
#1185=IFCOWNERHISTORY(#3,#4,.READWRITE.,.ADDED.,1778918979,#3,#4,1778918979);
#1186=IFCRELDEFINESBYPROPERTIES('0dvBMBwHrRoxae6A5y9XzL',#1185,$,$,(#689),#1184);
#1187=IFCPROPERTYSINGLEVALUE('Description',$,IFCLABEL('Coffee bean jar 04 on shelf 02'),$);
#1188=IFCPROPERTYSINGLEVALUE('Material',$,IFCLABEL('Chrome Finish'),$);
#1189=IFCPROPERTYSINGLEVALUE('ObjectType',$,IFCLABEL('Display Jar'),$);
#1190=IFCPROPERTYSINGLEVALUE('Brand',$,IFCLABEL('CAFE'),$);
#1191=IFCPROPERTYSINGLEVALUE('IsExhibitElement',$,IFCBOOLEAN(.T.),$);
#1192=IFCOWNERHISTORY(#3,#4,.READWRITE.,.ADDED.,1778918979,#3,#4,1778918979);
#1193=IFCPROPERTYSET('2Pyu3T0VbNuP1ONR_38zw4',#1192,'Pset_BuildFlowExhibitionElement',$,(#1196,#1197,#1198,#1199,#1200));
#1194=IFCOWNERHISTORY(#3,#4,.READWRITE.,.ADDED.,1778918979,#3,#4,1778918979);
#1195=IFCRELDEFINESBYPROPERTIES('3cUhHHh3DTVA$o8yrmGE3u',#1194,$,$,(#710),#1193);
#1196=IFCPROPERTYSINGLEVALUE('Description',$,IFCLABEL('Coffee bean jar 05 on shelf 02'),$);
#1197=IFCPROPERTYSINGLEVALUE('Material',$,IFCLABEL('Chrome Finish'),$);
#1198=IFCPROPERTYSINGLEVALUE('ObjectType',$,IFCLABEL('Display Jar'),$);
#1199=IFCPROPERTYSINGLEVALUE('Brand',$,IFCLABEL('CAFE'),$);
#1200=IFCPROPERTYSINGLEVALUE('IsExhibitElement',$,IFCBOOLEAN(.T.),$);
#1201=IFCOWNERHISTORY(#3,#4,.READWRITE.,.ADDED.,1778918979,#3,#4,1778918979);
#1202=IFCPROPERTYSET('1xgJjd8anHSgoJT58oG5L9',#1201,'Pset_BuildFlowExhibitionElement',$,(#1205,#1206,#1207,#1208,#1209));
#1203=IFCOWNERHISTORY(#3,#4,.READWRITE.,.ADDED.,1778918979,#3,#4,1778918979);
#1204=IFCRELDEFINESBYPROPERTIES('0yIS5fYnHSFvbWIuonmol4',#1203,$,$,(#731),#1202);
#1205=IFCPROPERTYSINGLEVALUE('Description',$,IFCLABEL('Coffee bean jar 06 on shelf 02'),$);
#1206=IFCPROPERTYSINGLEVALUE('Material',$,IFCLABEL('Chrome Finish'),$);
#1207=IFCPROPERTYSINGLEVALUE('ObjectType',$,IFCLABEL('Display Jar'),$);
#1208=IFCPROPERTYSINGLEVALUE('Brand',$,IFCLABEL('CAFE'),$);
#1209=IFCPROPERTYSINGLEVALUE('IsExhibitElement',$,IFCBOOLEAN(.T.),$);
#1210=IFCOWNERHISTORY(#3,#4,.READWRITE.,.ADDED.,1778918979,#3,#4,1778918979);
#1211=IFCPROPERTYSET('0m4DhuY_HJOv66X0dvSYI_',#1210,'Pset_BuildFlowExhibitionElement',$,(#1214,#1215,#1216,#1217,#1218));
#1212=IFCOWNERHISTORY(#3,#4,.READWRITE.,.ADDED.,1778918979,#3,#4,1778918979);
#1213=IFCRELDEFINESBYPROPERTIES('1XCtszDJrHJOpGjcuoodNl',#1212,$,$,(#752),#1211);
#1214=IFCPROPERTYSINGLEVALUE('Description',$,IFCLABEL('Coffee cup on shelf 01'),$);
#1215=IFCPROPERTYSINGLEVALUE('Material',$,IFCLABEL('Matte Black Laminate'),$);
#1216=IFCPROPERTYSINGLEVALUE('ObjectType',$,IFCLABEL('Display Cup'),$);
#1217=IFCPROPERTYSINGLEVALUE('Brand',$,IFCLABEL('CAFE'),$);
#1218=IFCPROPERTYSINGLEVALUE('IsExhibitElement',$,IFCBOOLEAN(.T.),$);
#1219=IFCOWNERHISTORY(#3,#4,.READWRITE.,.ADDED.,1778918979,#3,#4,1778918979);
#1220=IFCPROPERTYSET('3EPFQdBr9LMgtM$wjGLtcc',#1219,'Pset_BuildFlowExhibitionElement',$,(#1223,#1224,#1225,#1226,#1227));
#1221=IFCOWNERHISTORY(#3,#4,.READWRITE.,.ADDED.,1778918979,#3,#4,1778918979);
#1222=IFCRELDEFINESBYPROPERTIES('1EFj5MGVrG3g$eJqNz65$g',#1221,$,$,(#773),#1220);
#1223=IFCPROPERTYSINGLEVALUE('Description',$,IFCLABEL('Coffee cup 02 on shelf 01'),$);
#1224=IFCPROPERTYSINGLEVALUE('Material',$,IFCLABEL('Matte Black Laminate'),$);
#1225=IFCPROPERTYSINGLEVALUE('ObjectType',$,IFCLABEL('Display Cup'),$);
#1226=IFCPROPERTYSINGLEVALUE('Brand',$,IFCLABEL('CAFE'),$);
#1227=IFCPROPERTYSINGLEVALUE('IsExhibitElement',$,IFCBOOLEAN(.T.),$);
#1228=IFCOWNERHISTORY(#3,#4,.READWRITE.,.ADDED.,1778918979,#3,#4,1778918979);
#1229=IFCPROPERTYSET('1MocLZfuXUVeaeh9t8EpbT',#1228,'Pset_BuildFlowExhibitionElement',$,(#1232,#1233,#1234,#1235,#1236));
#1230=IFCOWNERHISTORY(#3,#4,.READWRITE.,.ADDED.,1778918979,#3,#4,1778918979);
#1231=IFCRELDEFINESBYPROPERTIES('0qOOhrAjnUhPpeFD2tmmCe',#1230,$,$,(#794),#1229);
#1232=IFCPROPERTYSINGLEVALUE('Description',$,IFCLABEL('Coffee cup 03 on shelf 02'),$);
#1233=IFCPROPERTYSINGLEVALUE('Material',$,IFCLABEL('Matte Black Laminate'),$);
#1234=IFCPROPERTYSINGLEVALUE('ObjectType',$,IFCLABEL('Display Cup'),$);
#1235=IFCPROPERTYSINGLEVALUE('Brand',$,IFCLABEL('CAFE'),$);
#1236=IFCPROPERTYSINGLEVALUE('IsExhibitElement',$,IFCBOOLEAN(.T.),$);
#1237=IFCOWNERHISTORY(#3,#4,.READWRITE.,.ADDED.,1778918979,#3,#4,1778918979);
#1238=IFCPROPERTYSET('1ac1VlAJnPxvKKCATeO12d',#1237,'Pset_BuildFlowExhibitionElement',$,(#1241,#1242,#1243,#1244,#1245));
#1239=IFCOWNERHISTORY(#3,#4,.READWRITE.,.ADDED.,1778918979,#3,#4,1778918979);
#1240=IFCRELDEFINESBYPROPERTIES('3rK2IkW3PGZvGGUdu$CjIs',#1239,$,$,(#815),#1238);
#1241=IFCPROPERTYSINGLEVALUE('Description',$,IFCLABEL('Coffee cup 04 on shelf 02'),$);
#1242=IFCPROPERTYSINGLEVALUE('Material',$,IFCLABEL('Matte Black Laminate'),$);
#1243=IFCPROPERTYSINGLEVALUE('ObjectType',$,IFCLABEL('Display Cup'),$);
#1244=IFCPROPERTYSINGLEVALUE('Brand',$,IFCLABEL('CAFE'),$);
#1245=IFCPROPERTYSINGLEVALUE('IsExhibitElement',$,IFCBOOLEAN(.T.),$);
#1246=IFCOWNERHISTORY(#3,#4,.READWRITE.,.ADDED.,1778918979,#3,#4,1778918979);
#1247=IFCPROPERTYSET('30YD7gJR9MCR_My9O5tA86',#1246,'Pset_BuildFlowExhibitionElement',$,(#1250,#1251,#1252,#1253,#1254));
#1248=IFCOWNERHISTORY(#3,#4,.READWRITE.,.ADDED.,1778918979,#3,#4,1778918979);
#1249=IFCRELDEFINESBYPROPERTIES('1YNk13m$rOLgPff9SQtICD',#1248,$,$,(#836),#1247);
#1250=IFCPROPERTYSINGLEVALUE('Description',$,IFCLABEL('Menu board on back wall, matte black'),$);
#1251=IFCPROPERTYSINGLEVALUE('Material',$,IFCLABEL('Matte Black Laminate'),$);
#1252=IFCPROPERTYSINGLEVALUE('ObjectType',$,IFCLABEL('Menu Board'),$);
#1253=IFCPROPERTYSINGLEVALUE('Brand',$,IFCLABEL('CAFE'),$);
#1254=IFCPROPERTYSINGLEVALUE('IsExhibitElement',$,IFCBOOLEAN(.T.),$);
#1255=IFCOWNERHISTORY(#3,#4,.READWRITE.,.ADDED.,1778918979,#3,#4,1778918979);
#1256=IFCPROPERTYSET('3UIwjID8fLl8uqClvZIZkQ',#1255,'Pset_BuildFlowExhibitionElement',$,(#1259,#1260,#1261,#1262,#1263));
#1257=IFCOWNERHISTORY(#3,#4,.READWRITE.,.ADDED.,1778918979,#3,#4,1778918979);
#1258=IFCRELDEFINESBYPROPERTIES('0gwr_a5A1J5gvEkpZrYUFF',#1257,$,$,(#857),#1256);
#1259=IFCPROPERTYSINGLEVALUE('Description',$,IFCLABEL('Floor planter near W wall'),$);
#1260=IFCPROPERTYSINGLEVALUE('Material',$,IFCLABEL('Matte Black Laminate'),$);
#1261=IFCPROPERTYSINGLEVALUE('ObjectType',$,IFCLABEL('Floor Planter'),$);
#1262=IFCPROPERTYSINGLEVALUE('Brand',$,IFCLABEL('CAFE'),$);
#1263=IFCPROPERTYSINGLEVALUE('IsExhibitElement',$,IFCBOOLEAN(.T.),$);
#1264=IFCOWNERHISTORY(#3,#4,.READWRITE.,.ADDED.,1778918979,#3,#4,1778918979);
#1265=IFCPROPERTYSET('1x$EE2XATRJBqoKaL$1Yfg',#1264,'Pset_BuildFlowExhibitionElement',$,(#1268,#1269,#1270,#1271,#1272));
#1266=IFCOWNERHISTORY(#3,#4,.READWRITE.,.ADDED.,1778918979,#3,#4,1778918979);
#1267=IFCRELDEFINESBYPROPERTIES('1abA_WvqDMAPi8SWKIhwpi',#1266,$,$,(#878),#1265);
#1268=IFCPROPERTYSINGLEVALUE('Description',$,IFCLABEL('Foliage above planter 01'),$);
#1269=IFCPROPERTYSINGLEVALUE('Material',$,IFCLABEL('Mixed Media Foliage'),$);
#1270=IFCPROPERTYSINGLEVALUE('ObjectType',$,IFCLABEL('Planter Foliage'),$);
#1271=IFCPROPERTYSINGLEVALUE('Brand',$,IFCLABEL('CAFE'),$);
#1272=IFCPROPERTYSINGLEVALUE('IsExhibitElement',$,IFCBOOLEAN(.T.),$);
#1273=IFCOWNERHISTORY(#3,#4,.READWRITE.,.ADDED.,1778918979,#3,#4,1778918979);
#1274=IFCPROPERTYSET('1dxbp$rzPVYxEsgXPXmZOS',#1273,'Pset_BuildFlowExhibitionElement',$,(#1277,#1278,#1279,#1280,#1281));
#1275=IFCOWNERHISTORY(#3,#4,.READWRITE.,.ADDED.,1778918979,#3,#4,1778918979);
#1276=IFCRELDEFINESBYPROPERTIES('1aYeTyCtfOb8_LoQaCP1l_',#1275,$,$,(#899),#1274);
#1277=IFCPROPERTYSINGLEVALUE('Description',$,IFCLABEL('Floor planter near E wall'),$);
#1278=IFCPROPERTYSINGLEVALUE('Material',$,IFCLABEL('Matte Black Laminate'),$);
#1279=IFCPROPERTYSINGLEVALUE('ObjectType',$,IFCLABEL('Floor Planter'),$);
#1280=IFCPROPERTYSINGLEVALUE('Brand',$,IFCLABEL('CAFE'),$);
#1281=IFCPROPERTYSINGLEVALUE('IsExhibitElement',$,IFCBOOLEAN(.T.),$);
#1282=IFCOWNERHISTORY(#3,#4,.READWRITE.,.ADDED.,1778918979,#3,#4,1778918979);
#1283=IFCPROPERTYSET('3OsPUHa0DOXxBmRz08S59g',#1282,'Pset_BuildFlowExhibitionElement',$,(#1286,#1287,#1288,#1289,#1290));
#1284=IFCOWNERHISTORY(#3,#4,.READWRITE.,.ADDED.,1778918979,#3,#4,1778918979);
#1285=IFCRELDEFINESBYPROPERTIES('08E2zkOmHHOP4C_kgNYi1Y',#1284,$,$,(#920),#1283);
#1286=IFCPROPERTYSINGLEVALUE('Description',$,IFCLABEL('Foliage above planter 02'),$);
#1287=IFCPROPERTYSINGLEVALUE('Material',$,IFCLABEL('Mixed Media Foliage'),$);
#1288=IFCPROPERTYSINGLEVALUE('ObjectType',$,IFCLABEL('Planter Foliage'),$);
#1289=IFCPROPERTYSINGLEVALUE('Brand',$,IFCLABEL('CAFE'),$);
#1290=IFCPROPERTYSINGLEVALUE('IsExhibitElement',$,IFCBOOLEAN(.T.),$);
ENDSEC;
END-ISO-10303-21;
