ISO-10303-21;
HEADER;
FILE_DESCRIPTION(('ViewDefinition [CoordinationView]'),'2;1');
FILE_NAME('','2026-05-16T08:05:28',(''),(''),'IfcOpenShell 0.8.5-1c5b825','IfcOpenShell 0.8.5-1c5b825','');
FILE_SCHEMA(('IFC2X3'));
ENDSEC;
DATA;
#1=IFCPERSON('bf-v3-generator','BuildFlow','Generator',$,$,$,$,$);
#2=IFCORGANIZATION('buildflow','BuildFlow',$,$,$);
#3=IFCPERSONANDORGANIZATION(#1,#2,$);
#4=IFCAPPLICATION(#2,'3.0','BuildFlow Generator v3','buildflow-v3');
#5=IFCOWNERHISTORY(#3,#4,.READWRITE.,.ADDED.,1778918728,#3,#4,1778918728);
#6=IFCPROJECT('0pf5yy4xrKpv$c6WThSdGw',#5,'Retail Pop-Up',$,$,$,$,(#15),#10);
#7=IFCSIUNIT(*,.LENGTHUNIT.,.MILLI.,.METRE.);
#8=IFCSIUNIT(*,.AREAUNIT.,$,.SQUARE_METRE.);
#9=IFCSIUNIT(*,.VOLUMEUNIT.,$,.CUBIC_METRE.);
#10=IFCUNITASSIGNMENT((#8,#9,#7));
#11=IFCCARTESIANPOINT((0.,0.,0.));
#12=IFCDIRECTION((0.,0.,1.));
#13=IFCDIRECTION((1.,0.,0.));
#14=IFCAXIS2PLACEMENT3D(#11,#12,#13);
#15=IFCGEOMETRICREPRESENTATIONCONTEXT($,'Model',3,1.0000000000000001E-05,#14,$);
#16=IFCGEOMETRICREPRESENTATIONSUBCONTEXT('Body','Model',*,*,*,*,#15,$,.MODEL_VIEW.,$);
#17=IFCOWNERHISTORY(#3,#4,.READWRITE.,.MODIFIED.,1778918728,#3,#4,1778918728);
#18=IFCSITE('1i4pluRsfOthZHp72YxTZ9',#17,'Bangalore Indiranagar',$,$,#33,$,$,.ELEMENT.,$,$,$,$,$);
#19=IFCOWNERHISTORY(#3,#4,.READWRITE.,.MODIFIED.,1778918728,#3,#4,1778918728);
#20=IFCBUILDING('1gf_KjPsHHNxASVkxElhai',#19,'Retail Pop-Up',$,$,#38,$,$,.ELEMENT.,$,$,$);
#21=IFCOWNERHISTORY(#3,#4,.READWRITE.,.MODIFIED.,1778918728,#3,#4,1778918728);
#22=IFCBUILDINGSTOREY('1ALemF0zrQzuKD6aruOUwM',#21,'Ground Floor',$,$,#43,$,$,.ELEMENT.,$);
#23=IFCOWNERHISTORY(#3,#4,.READWRITE.,.ADDED.,1778918728,#3,#4,1778918728);
#24=IFCRELAGGREGATES('2xrioviF1Oa8Ed9IPjH7Al',#23,$,$,#6,(#18));
#25=IFCOWNERHISTORY(#3,#4,.READWRITE.,.ADDED.,1778918728,#3,#4,1778918728);
#26=IFCRELAGGREGATES('0tav3Uwh5MGwfLukaWfiso',#25,$,$,#18,(#20));
#27=IFCOWNERHISTORY(#3,#4,.READWRITE.,.ADDED.,1778918728,#3,#4,1778918728);
#28=IFCRELAGGREGATES('2VH3veIkLP5vbMho0YiBO3',#27,$,$,#20,(#22));
#29=IFCCARTESIANPOINT((0.,0.,0.));
#30=IFCDIRECTION((0.,0.,1.));
#31=IFCDIRECTION((1.,0.,0.));
#32=IFCAXIS2PLACEMENT3D(#29,#30,#31);
#33=IFCLOCALPLACEMENT($,#32);
#34=IFCCARTESIANPOINT((0.,0.,0.));
#35=IFCDIRECTION((0.,0.,1.));
#36=IFCDIRECTION((1.,0.,0.));
#37=IFCAXIS2PLACEMENT3D(#34,#35,#36);
#38=IFCLOCALPLACEMENT(#33,#37);
#39=IFCCARTESIANPOINT((0.,0.,0.));
#40=IFCDIRECTION((0.,0.,1.));
#41=IFCDIRECTION((1.,0.,0.));
#42=IFCAXIS2PLACEMENT3D(#39,#40,#41);
#43=IFCLOCALPLACEMENT(#38,#42);
#44=IFCMATERIAL('Polished Concrete');
#45=IFCSURFACESTYLE('Polished Concrete Style',.BOTH.,(#46));
#46=IFCSURFACESTYLESHADING(#47);
#47=IFCCOLOURRGB('Polished Concrete Colour',0.55000000000000004,0.55000000000000004,0.55000000000000004);
#48=IFCPRESENTATIONSTYLEASSIGNMENT((#45));
#49=IFCSTYLEDITEM($,(#48),'Polished Concrete Style');
#50=IFCSTYLEDREPRESENTATION(#16,'Body',$,(#49));
#51=IFCMATERIALDEFINITIONREPRESENTATION($,$,(#50),#44);
#52=IFCMATERIAL('Dark Walnut Panel');
#53=IFCSURFACESTYLE('Dark Walnut Panel Style',.BOTH.,(#54));
#54=IFCSURFACESTYLESHADING(#55);
#55=IFCCOLOURRGB('Dark Walnut Panel Colour',0.17999999999999999,0.12,0.080000000000000002);
#56=IFCPRESENTATIONSTYLEASSIGNMENT((#53));
#57=IFCSTYLEDITEM($,(#56),'Dark Walnut Panel Style');
#58=IFCSTYLEDREPRESENTATION(#16,'Body',$,(#57));
#59=IFCMATERIALDEFINITIONREPRESENTATION($,$,(#58),#52);
#60=IFCMATERIAL('Oak Veneer');
#61=IFCSURFACESTYLE('Oak Veneer Style',.BOTH.,(#62));
#62=IFCSURFACESTYLESHADING(#63);
#63=IFCCOLOURRGB('Oak Veneer Colour',0.71999999999999997,0.55000000000000004,0.34999999999999998);
#64=IFCPRESENTATIONSTYLEASSIGNMENT((#61));
#65=IFCSTYLEDITEM($,(#64),'Oak Veneer Style');
#66=IFCSTYLEDREPRESENTATION(#16,'Body',$,(#65));
#67=IFCMATERIALDEFINITIONREPRESENTATION($,$,(#66),#60);
#68=IFCMATERIAL('Brushed Brass');
#69=IFCSURFACESTYLE('Brushed Brass Style',.BOTH.,(#70));
#70=IFCSURFACESTYLESHADING(#71);
#71=IFCCOLOURRGB('Brushed Brass Colour',0.85999999999999999,0.69999999999999996,0.41999999999999998);
#72=IFCPRESENTATIONSTYLEASSIGNMENT((#69));
#73=IFCSTYLEDITEM($,(#72),'Brushed Brass Style');
#74=IFCSTYLEDREPRESENTATION(#16,'Body',$,(#73));
#75=IFCMATERIALDEFINITIONREPRESENTATION($,$,(#74),#68);
#76=IFCOWNERHISTORY(#3,#4,.READWRITE.,.ADDED.,1778918728,#3,#4,1778918728);
#77=IFCSPACE('0wNgoTRXjMXfKU_z34lg4V',#76,'SP-RETAIL',$,'Retail Floor',#93,#90,'Retail Floor',.ELEMENT.,$,$);
#78=IFCCARTESIANPOINT((0.,0.));
#79=IFCCARTESIANPOINT((6.,0.));
#80=IFCCARTESIANPOINT((6.,6.));
#81=IFCCARTESIANPOINT((0.,6.));
#82=IFCCARTESIANPOINT((0.,0.));
#83=IFCPOLYLINE((#78,#79,#80,#81,#82));
#84=IFCARBITRARYCLOSEDPROFILEDEF(.AREA.,$,#83);
#85=IFCCARTESIANPOINT((0.,0.,0.));
#86=IFCAXIS2PLACEMENT3D(#85,$,$);
#87=IFCDIRECTION((0.,0.,1.));
#88=IFCEXTRUDEDAREASOLID(#84,#86,#87,3.);
#89=IFCSHAPEREPRESENTATION(#16,'Body','SweptSolid',(#88));
#90=IFCPRODUCTDEFINITIONSHAPE($,$,(#89));
#91=IFCCARTESIANPOINT((0.,0.,0.));
#92=IFCAXIS2PLACEMENT3D(#91,$,$);
#93=IFCLOCALPLACEMENT(#43,#92);
#94=IFCOWNERHISTORY(#3,#4,.READWRITE.,.MODIFIED.,1778918739,#3,#4,1778918739);
#95=IFCSLAB('0pf5yy4xrKpv$c6WThSdGw',#94,'SLAB-FLOOR',$,$,#116,#104,'SLAB-FLOOR',.FLOOR.);
#96=IFCCARTESIANPOINT((0.,0.));
#97=IFCAXIS2PLACEMENT2D(#96,$);
#98=IFCRECTANGLEPROFILEDEF(.AREA.,$,#97,6.,6.);
#99=IFCCARTESIANPOINT((0.,0.,0.));
#100=IFCAXIS2PLACEMENT3D(#99,$,$);
#101=IFCDIRECTION((0.,0.,1.));
#102=IFCEXTRUDEDAREASOLID(#98,#100,#101,0.10000000000000001);
#103=IFCSHAPEREPRESENTATION(#16,'Body','SweptSolid',(#102));
#104=IFCPRODUCTDEFINITIONSHAPE($,$,(#103));
#110=IFCOWNERHISTORY(#3,#4,.READWRITE.,.MODIFIED.,1778918749,#3,#4,1778918739);
#111=IFCRELCONTAINEDINSPATIALSTRUCTURE('1i4pluRsfOthZHp72YxTZ9',#110,$,$,(#223,#202,#181,#95,#371,#350,#329,#308,#287,#244,#266,#139,#118,#160),#22);
#112=IFCCARTESIANPOINT((0.,0.,0.));
#113=IFCDIRECTION((0.,0.,1.));
#114=IFCDIRECTION((1.,0.,0.));
#115=IFCAXIS2PLACEMENT3D(#112,#113,#114);
#116=IFCLOCALPLACEMENT(#43,#115);
#117=IFCOWNERHISTORY(#3,#4,.READWRITE.,.MODIFIED.,1778918739,#3,#4,1778918739);
#118=IFCWALL('1gf_KjPsHHNxASVkxElhai',#117,'WALL-N',$,$,#137,#127,'WALL-N');
#119=IFCCARTESIANPOINT((0.,0.));
#120=IFCAXIS2PLACEMENT2D(#119,$);
#121=IFCRECTANGLEPROFILEDEF(.AREA.,$,#120,6.,0.12);
#122=IFCCARTESIANPOINT((0.,0.,0.));
#123=IFCAXIS2PLACEMENT3D(#122,$,$);
#124=IFCDIRECTION((0.,0.,1.));
#125=IFCEXTRUDEDAREASOLID(#121,#123,#124,3.);
#126=IFCSHAPEREPRESENTATION(#16,'Body','SweptSolid',(#125));
#127=IFCPRODUCTDEFINITIONSHAPE($,$,(#126));
#133=IFCCARTESIANPOINT((0.,6.,0.));
#134=IFCDIRECTION((0.,0.,1.));
#135=IFCDIRECTION((1.,0.,0.));
#136=IFCAXIS2PLACEMENT3D(#133,#134,#135);
#137=IFCLOCALPLACEMENT(#43,#136);
#138=IFCOWNERHISTORY(#3,#4,.READWRITE.,.MODIFIED.,1778918739,#3,#4,1778918739);
#139=IFCWALL('1ALemF0zrQzuKD6aruOUwM',#138,'WALL-E',$,$,#158,#148,'WALL-E');
#140=IFCCARTESIANPOINT((0.,0.));
#141=IFCAXIS2PLACEMENT2D(#140,$);
#142=IFCRECTANGLEPROFILEDEF(.AREA.,$,#141,0.12,6.);
#143=IFCCARTESIANPOINT((0.,0.,0.));
#144=IFCAXIS2PLACEMENT3D(#143,$,$);
#145=IFCDIRECTION((0.,0.,1.));
#146=IFCEXTRUDEDAREASOLID(#142,#144,#145,3.);
#147=IFCSHAPEREPRESENTATION(#16,'Body','SweptSolid',(#146));
#148=IFCPRODUCTDEFINITIONSHAPE($,$,(#147));
#154=IFCCARTESIANPOINT((5.8799999999999999,0.,0.));
#155=IFCDIRECTION((0.,0.,1.));
#156=IFCDIRECTION((1.,0.,0.));
#157=IFCAXIS2PLACEMENT3D(#154,#155,#156);
#158=IFCLOCALPLACEMENT(#43,#157);
#159=IFCOWNERHISTORY(#3,#4,.READWRITE.,.MODIFIED.,1778918739,#3,#4,1778918739);
#160=IFCWALL('2xrioviF1Oa8Ed9IPjH7Al',#159,'WALL-W',$,$,#179,#169,'WALL-W');
#161=IFCCARTESIANPOINT((0.,0.));
#162=IFCAXIS2PLACEMENT2D(#161,$);
#163=IFCRECTANGLEPROFILEDEF(.AREA.,$,#162,0.12,6.);
#164=IFCCARTESIANPOINT((0.,0.,0.));
#165=IFCAXIS2PLACEMENT3D(#164,$,$);
#166=IFCDIRECTION((0.,0.,1.));
#167=IFCEXTRUDEDAREASOLID(#163,#165,#166,3.);
#168=IFCSHAPEREPRESENTATION(#16,'Body','SweptSolid',(#167));
#169=IFCPRODUCTDEFINITIONSHAPE($,$,(#168));
#175=IFCCARTESIANPOINT((0.,0.,0.));
#176=IFCDIRECTION((0.,0.,1.));
#177=IFCDIRECTION((1.,0.,0.));
#178=IFCAXIS2PLACEMENT3D(#175,#176,#177);
#179=IFCLOCALPLACEMENT(#43,#178);
#180=IFCOWNERHISTORY(#3,#4,.READWRITE.,.MODIFIED.,1778918739,#3,#4,1778918739);
#181=IFCFURNISHINGELEMENT('0tav3Uwh5MGwfLukaWfiso',#180,'DISPLAY-CENTRE',$,'Product Display Island',#200,#190,'DISPLAY-CENTRE');
#182=IFCCARTESIANPOINT((0.,0.));
#183=IFCAXIS2PLACEMENT2D(#182,$);
#184=IFCRECTANGLEPROFILEDEF(.AREA.,$,#183,2.,2.);
#185=IFCCARTESIANPOINT((0.,0.,0.));
#186=IFCAXIS2PLACEMENT3D(#185,$,$);
#187=IFCDIRECTION((0.,0.,1.));
#188=IFCEXTRUDEDAREASOLID(#184,#186,#187,0.90000000000000002);
#189=IFCSHAPEREPRESENTATION(#16,'Body','SweptSolid',(#188));
#190=IFCPRODUCTDEFINITIONSHAPE($,$,(#189));
#196=IFCCARTESIANPOINT((2.,2.,0.));
#197=IFCDIRECTION((0.,0.,1.));
#198=IFCDIRECTION((1.,0.,0.));
#199=IFCAXIS2PLACEMENT3D(#196,#197,#198);
#200=IFCLOCALPLACEMENT(#43,#199);
#201=IFCOWNERHISTORY(#3,#4,.READWRITE.,.MODIFIED.,1778918739,#3,#4,1778918739);
#202=IFCFURNISHINGELEMENT('2VH3veIkLP5vbMho0YiBO3',#201,'DISPLAY-LEFT',$,'Wall Shelving',#221,#211,'DISPLAY-LEFT');
#203=IFCCARTESIANPOINT((0.,0.));
#204=IFCAXIS2PLACEMENT2D(#203,$);
#205=IFCRECTANGLEPROFILEDEF(.AREA.,$,#204,0.59999999999999998,1.5);
#206=IFCCARTESIANPOINT((0.,0.,0.));
#207=IFCAXIS2PLACEMENT3D(#206,$,$);
#208=IFCDIRECTION((0.,0.,1.));
#209=IFCEXTRUDEDAREASOLID(#205,#207,#208,1.8);
#210=IFCSHAPEREPRESENTATION(#16,'Body','SweptSolid',(#209));
#211=IFCPRODUCTDEFINITIONSHAPE($,$,(#210));
#217=IFCCARTESIANPOINT((0.29999999999999999,0.5,0.));
#218=IFCDIRECTION((0.,0.,1.));
#219=IFCDIRECTION((1.,0.,0.));
#220=IFCAXIS2PLACEMENT3D(#217,#218,#219);
#221=IFCLOCALPLACEMENT(#43,#220);
#222=IFCOWNERHISTORY(#3,#4,.READWRITE.,.MODIFIED.,1778918739,#3,#4,1778918739);
#223=IFCFURNISHINGELEMENT('0wNgoTRXjMXfKU_z34lg4V',#222,'DISPLAY-RIGHT',$,'Wall Shelving',#242,#232,'DISPLAY-RIGHT');
#224=IFCCARTESIANPOINT((0.,0.));
#225=IFCAXIS2PLACEMENT2D(#224,$);
#226=IFCRECTANGLEPROFILEDEF(.AREA.,$,#225,0.59999999999999998,1.5);
#227=IFCCARTESIANPOINT((0.,0.,0.));
#228=IFCAXIS2PLACEMENT3D(#227,$,$);
#229=IFCDIRECTION((0.,0.,1.));
#230=IFCEXTRUDEDAREASOLID(#226,#228,#229,1.8);
#231=IFCSHAPEREPRESENTATION(#16,'Body','SweptSolid',(#230));
#232=IFCPRODUCTDEFINITIONSHAPE($,$,(#231));
#238=IFCCARTESIANPOINT((5.0999999999999996,0.5,0.));
#239=IFCDIRECTION((0.,0.,1.));
#240=IFCDIRECTION((1.,0.,0.));
#241=IFCAXIS2PLACEMENT3D(#238,#239,#240);
#242=IFCLOCALPLACEMENT(#43,#241);
#243=IFCOWNERHISTORY(#3,#4,.READWRITE.,.MODIFIED.,1778918739,#3,#4,1778918739);
#244=IFCFURNISHINGELEMENT('1JehoPcc5IEQDljBPODbm3',#243,'CASH-COUNTER',$,'Cash Counter',#263,#253,'CASH-COUNTER');
#245=IFCCARTESIANPOINT((0.,0.));
#246=IFCAXIS2PLACEMENT2D(#245,$);
#247=IFCRECTANGLEPROFILEDEF(.AREA.,$,#246,1.2,0.59999999999999998);
#248=IFCCARTESIANPOINT((0.,0.,0.));
#249=IFCAXIS2PLACEMENT3D(#248,$,$);
#250=IFCDIRECTION((0.,0.,1.));
#251=IFCEXTRUDEDAREASOLID(#247,#249,#250,1.05);
#252=IFCSHAPEREPRESENTATION(#16,'Body','SweptSolid',(#251));
#253=IFCPRODUCTDEFINITIONSHAPE($,$,(#252));
#259=IFCCARTESIANPOINT((4.5,4.5,0.));
#260=IFCDIRECTION((0.,0.,1.));
#261=IFCDIRECTION((1.,0.,0.));
#262=IFCAXIS2PLACEMENT3D(#259,#260,#261);
#263=IFCLOCALPLACEMENT(#43,#262);
#264=IFCOWNERHISTORY(#3,#4,.READWRITE.,.ADDED.,1778918739,#3,#4,1778918739);
#265=IFCOWNERHISTORY(#3,#4,.READWRITE.,.MODIFIED.,1778918749,#3,#4,1778918749);
#266=IFCBUILDINGELEMENTPROXY('0pf5yy4xrKpv$c6WThSdGw',#265,'LIGHT-PEND-01',$,'Pendant Light',#285,#275,'LIGHT-PEND-01',.ELEMENT.);
#267=IFCCARTESIANPOINT((0.,0.));
#268=IFCAXIS2PLACEMENT2D(#267,$);
#269=IFCRECTANGLEPROFILEDEF(.AREA.,$,#268,0.29999999999999999,0.29999999999999999);
#270=IFCCARTESIANPOINT((0.,0.,0.));
#271=IFCAXIS2PLACEMENT3D(#270,$,$);
#272=IFCDIRECTION((0.,0.,1.));
#273=IFCEXTRUDEDAREASOLID(#269,#271,#272,0.40000000000000002);
#274=IFCSHAPEREPRESENTATION(#16,'Body','SweptSolid',(#273));
#275=IFCPRODUCTDEFINITIONSHAPE($,$,(#274));
#281=IFCCARTESIANPOINT((1.5,1.5,2.5));
#282=IFCDIRECTION((0.,0.,1.));
#283=IFCDIRECTION((1.,0.,0.));
#284=IFCAXIS2PLACEMENT3D(#281,#282,#283);
#285=IFCLOCALPLACEMENT(#43,#284);
#286=IFCOWNERHISTORY(#3,#4,.READWRITE.,.MODIFIED.,1778918749,#3,#4,1778918749);
#287=IFCBUILDINGELEMENTPROXY('1i4pluRsfOthZHp72YxTZ9',#286,'LIGHT-PEND-02',$,'Pendant Light',#306,#296,'LIGHT-PEND-02',.ELEMENT.);
#288=IFCCARTESIANPOINT((0.,0.));
#289=IFCAXIS2PLACEMENT2D(#288,$);
#290=IFCRECTANGLEPROFILEDEF(.AREA.,$,#289,0.29999999999999999,0.29999999999999999);
#291=IFCCARTESIANPOINT((0.,0.,0.));
#292=IFCAXIS2PLACEMENT3D(#291,$,$);
#293=IFCDIRECTION((0.,0.,1.));
#294=IFCEXTRUDEDAREASOLID(#290,#292,#293,0.40000000000000002);
#295=IFCSHAPEREPRESENTATION(#16,'Body','SweptSolid',(#294));
#296=IFCPRODUCTDEFINITIONSHAPE($,$,(#295));
#302=IFCCARTESIANPOINT((4.5,1.5,2.5));
#303=IFCDIRECTION((0.,0.,1.));
#304=IFCDIRECTION((1.,0.,0.));
#305=IFCAXIS2PLACEMENT3D(#302,#303,#304);
#306=IFCLOCALPLACEMENT(#43,#305);
#307=IFCOWNERHISTORY(#3,#4,.READWRITE.,.MODIFIED.,1778918749,#3,#4,1778918749);
#308=IFCBUILDINGELEMENTPROXY('1gf_KjPsHHNxASVkxElhai',#307,'LIGHT-PEND-03',$,'Pendant Light',#327,#317,'LIGHT-PEND-03',.ELEMENT.);
#309=IFCCARTESIANPOINT((0.,0.));
#310=IFCAXIS2PLACEMENT2D(#309,$);
#311=IFCRECTANGLEPROFILEDEF(.AREA.,$,#310,0.29999999999999999,0.29999999999999999);
#312=IFCCARTESIANPOINT((0.,0.,0.));
#313=IFCAXIS2PLACEMENT3D(#312,$,$);
#314=IFCDIRECTION((0.,0.,1.));
#315=IFCEXTRUDEDAREASOLID(#311,#313,#314,0.40000000000000002);
#316=IFCSHAPEREPRESENTATION(#16,'Body','SweptSolid',(#315));
#317=IFCPRODUCTDEFINITIONSHAPE($,$,(#316));
#323=IFCCARTESIANPOINT((1.5,4.5,2.5));
#324=IFCDIRECTION((0.,0.,1.));
#325=IFCDIRECTION((1.,0.,0.));
#326=IFCAXIS2PLACEMENT3D(#323,#324,#325);
#327=IFCLOCALPLACEMENT(#43,#326);
#328=IFCOWNERHISTORY(#3,#4,.READWRITE.,.MODIFIED.,1778918749,#3,#4,1778918749);
#329=IFCBUILDINGELEMENTPROXY('1ALemF0zrQzuKD6aruOUwM',#328,'LIGHT-PEND-04',$,'Pendant Light',#348,#338,'LIGHT-PEND-04',.ELEMENT.);
#330=IFCCARTESIANPOINT((0.,0.));
#331=IFCAXIS2PLACEMENT2D(#330,$);
#332=IFCRECTANGLEPROFILEDEF(.AREA.,$,#331,0.29999999999999999,0.29999999999999999);
#333=IFCCARTESIANPOINT((0.,0.,0.));
#334=IFCAXIS2PLACEMENT3D(#333,$,$);
#335=IFCDIRECTION((0.,0.,1.));
#336=IFCEXTRUDEDAREASOLID(#332,#334,#335,0.40000000000000002);
#337=IFCSHAPEREPRESENTATION(#16,'Body','SweptSolid',(#336));
#338=IFCPRODUCTDEFINITIONSHAPE($,$,(#337));
#344=IFCCARTESIANPOINT((4.5,4.5,2.5));
#345=IFCDIRECTION((0.,0.,1.));
#346=IFCDIRECTION((1.,0.,0.));
#347=IFCAXIS2PLACEMENT3D(#344,#345,#346);
#348=IFCLOCALPLACEMENT(#43,#347);
#349=IFCOWNERHISTORY(#3,#4,.READWRITE.,.MODIFIED.,1778918749,#3,#4,1778918749);
#350=IFCBUILDINGELEMENTPROXY('2xrioviF1Oa8Ed9IPjH7Al',#349,'PROXY-LOGO',$,'Brand Logo',#369,#359,'PROXY-LOGO',.ELEMENT.);
#351=IFCCARTESIANPOINT((0.,0.));
#352=IFCAXIS2PLACEMENT2D(#351,$);
#353=IFCRECTANGLEPROFILEDEF(.AREA.,$,#352,2.,0.040000000000000001);
#354=IFCCARTESIANPOINT((0.,0.,0.));
#355=IFCAXIS2PLACEMENT3D(#354,$,$);
#356=IFCDIRECTION((0.,0.,1.));
#357=IFCEXTRUDEDAREASOLID(#353,#355,#356,0.59999999999999998);
#358=IFCSHAPEREPRESENTATION(#16,'Body','SweptSolid',(#357));
#359=IFCPRODUCTDEFINITIONSHAPE($,$,(#358));
#365=IFCCARTESIANPOINT((2.,5.96,1.));
#366=IFCDIRECTION((0.,0.,1.));
#367=IFCDIRECTION((1.,0.,0.));
#368=IFCAXIS2PLACEMENT3D(#365,#366,#367);
#369=IFCLOCALPLACEMENT(#43,#368);
#370=IFCOWNERHISTORY(#3,#4,.READWRITE.,.MODIFIED.,1778918749,#3,#4,1778918749);
#371=IFCBUILDINGELEMENTPROXY('0tav3Uwh5MGwfLukaWfiso',#370,'PROXY-PRICE-BOARD',$,'Signage',#390,#380,'PROXY-PRICE-BOARD',.ELEMENT.);
#372=IFCCARTESIANPOINT((0.,0.));
#373=IFCAXIS2PLACEMENT2D(#372,$);
#374=IFCRECTANGLEPROFILEDEF(.AREA.,$,#373,0.80000000000000004,0.10000000000000001);
#375=IFCCARTESIANPOINT((0.,0.,0.));
#376=IFCAXIS2PLACEMENT3D(#375,$,$);
#377=IFCDIRECTION((0.,0.,1.));
#378=IFCEXTRUDEDAREASOLID(#374,#376,#377,0.5);
#379=IFCSHAPEREPRESENTATION(#16,'Body','SweptSolid',(#378));
#380=IFCPRODUCTDEFINITIONSHAPE($,$,(#379));
#386=IFCCARTESIANPOINT((4.5,4.4000000000000004,1.2));
#387=IFCDIRECTION((0.,0.,1.));
#388=IFCDIRECTION((1.,0.,0.));
#389=IFCAXIS2PLACEMENT3D(#386,#387,#388);
#390=IFCLOCALPLACEMENT(#43,#389);
#391=IFCOWNERHISTORY(#3,#4,.READWRITE.,.ADDED.,1778918758,#3,#4,1778918758);
#392=IFCPROPERTYSET('0pf5yy4xrKpv$c6WThSdGw',#391,'Pset_BuildFlowExhibitionElement',$,(#395,#396,#397));
#393=IFCOWNERHISTORY(#3,#4,.READWRITE.,.ADDED.,1778918758,#3,#4,1778918758);
#394=IFCRELDEFINESBYPROPERTIES('1i4pluRsfOthZHp72YxTZ9',#393,$,$,(#95),#392);
#395=IFCPROPERTYSINGLEVALUE('Description',$,IFCLABEL('Polished concrete floor'),$);
#396=IFCPROPERTYSINGLEVALUE('Material',$,IFCLABEL('Polished Concrete'),$);
#397=IFCPROPERTYSINGLEVALUE('IsExhibitElement',$,IFCBOOLEAN(.F.),$);
#398=IFCOWNERHISTORY(#3,#4,.READWRITE.,.ADDED.,1778918758,#3,#4,1778918758);
#399=IFCPROPERTYSET('1gf_KjPsHHNxASVkxElhai',#398,'Pset_BuildFlowExhibitionElement',$,(#402,#403,#404));
#400=IFCOWNERHISTORY(#3,#4,.READWRITE.,.ADDED.,1778918758,#3,#4,1778918758);
#401=IFCRELDEFINESBYPROPERTIES('1ALemF0zrQzuKD6aruOUwM',#400,$,$,(#118),#399);
#402=IFCPROPERTYSINGLEVALUE('Description',$,IFCLABEL('North backdrop wall with brand logo'),$);
#403=IFCPROPERTYSINGLEVALUE('Material',$,IFCLABEL('Dark Walnut Panel'),$);
#404=IFCPROPERTYSINGLEVALUE('IsExhibitElement',$,IFCBOOLEAN(.T.),$);
#405=IFCOWNERHISTORY(#3,#4,.READWRITE.,.ADDED.,1778918758,#3,#4,1778918758);
#406=IFCPROPERTYSET('2xrioviF1Oa8Ed9IPjH7Al',#405,'Pset_BuildFlowExhibitionElement',$,(#409,#410,#411));
#407=IFCOWNERHISTORY(#3,#4,.READWRITE.,.ADDED.,1778918758,#3,#4,1778918758);
#408=IFCRELDEFINESBYPROPERTIES('0tav3Uwh5MGwfLukaWfiso',#407,$,$,(#139),#406);
#409=IFCPROPERTYSINGLEVALUE('Description',$,IFCLABEL('Side partition'),$);
#410=IFCPROPERTYSINGLEVALUE('Material',$,IFCLABEL('Dark Walnut Panel'),$);
#411=IFCPROPERTYSINGLEVALUE('IsExhibitElement',$,IFCBOOLEAN(.F.),$);
#412=IFCOWNERHISTORY(#3,#4,.READWRITE.,.ADDED.,1778918758,#3,#4,1778918758);
#413=IFCPROPERTYSET('2VH3veIkLP5vbMho0YiBO3',#412,'Pset_BuildFlowExhibitionElement',$,(#416,#417,#418));
#414=IFCOWNERHISTORY(#3,#4,.READWRITE.,.ADDED.,1778918758,#3,#4,1778918758);
#415=IFCRELDEFINESBYPROPERTIES('0wNgoTRXjMXfKU_z34lg4V',#414,$,$,(#160),#413);
#416=IFCPROPERTYSINGLEVALUE('Description',$,IFCLABEL('Side partition'),$);
#417=IFCPROPERTYSINGLEVALUE('Material',$,IFCLABEL('Dark Walnut Panel'),$);
#418=IFCPROPERTYSINGLEVALUE('IsExhibitElement',$,IFCBOOLEAN(.F.),$);
#419=IFCOWNERHISTORY(#3,#4,.READWRITE.,.ADDED.,1778918758,#3,#4,1778918758);
#420=IFCPROPERTYSET('1JehoPcc5IEQDljBPODbm3',#419,'Pset_BuildFlowExhibitionElement',$,(#423,#424,#425,#426));
#421=IFCOWNERHISTORY(#3,#4,.READWRITE.,.ADDED.,1778918758,#3,#4,1778918758);
#422=IFCRELDEFINESBYPROPERTIES('2lyOuwuFfRqB6vRqDXOY8w',#421,$,$,(#181),#420);
#423=IFCPROPERTYSINGLEVALUE('Description',$,IFCLABEL('Central product display island'),$);
#424=IFCPROPERTYSINGLEVALUE('Material',$,IFCLABEL('Oak Veneer'),$);
#425=IFCPROPERTYSINGLEVALUE('Brand',$,IFCLABEL('BuildFlow Retail'),$);
#426=IFCPROPERTYSINGLEVALUE('IsExhibitElement',$,IFCBOOLEAN(.T.),$);
#427=IFCOWNERHISTORY(#3,#4,.READWRITE.,.ADDED.,1778918758,#3,#4,1778918758);
#428=IFCPROPERTYSET('0S20Nf18zQauxYZ7c90Zh_',#427,'Pset_BuildFlowExhibitionElement',$,(#431,#432,#433));
#429=IFCOWNERHISTORY(#3,#4,.READWRITE.,.ADDED.,1778918758,#3,#4,1778918758);
#430=IFCRELDEFINESBYPROPERTIES('2zc$FOVxnOnfI3IWH3c7nX',#429,$,$,(#202),#428);
#431=IFCPROPERTYSINGLEVALUE('Description',$,IFCLABEL('Wall shelving'),$);
#432=IFCPROPERTYSINGLEVALUE('Material',$,IFCLABEL('Oak Veneer'),$);
#433=IFCPROPERTYSINGLEVALUE('IsExhibitElement',$,IFCBOOLEAN(.T.),$);
#434=IFCOWNERHISTORY(#3,#4,.READWRITE.,.ADDED.,1778918758,#3,#4,1778918758);
#435=IFCPROPERTYSET('2OZA1yEubNWRlhHZy$GMFO',#434,'Pset_BuildFlowExhibitionElement',$,(#438,#439,#440));
#436=IFCOWNERHISTORY(#3,#4,.READWRITE.,.ADDED.,1778918758,#3,#4,1778918758);
#437=IFCRELDEFINESBYPROPERTIES('3cGw1i6e1PbODCo0vb6lQv',#436,$,$,(#223),#435);
#438=IFCPROPERTYSINGLEVALUE('Description',$,IFCLABEL('Wall shelving'),$);
#439=IFCPROPERTYSINGLEVALUE('Material',$,IFCLABEL('Oak Veneer'),$);
#440=IFCPROPERTYSINGLEVALUE('IsExhibitElement',$,IFCBOOLEAN(.T.),$);
#441=IFCOWNERHISTORY(#3,#4,.READWRITE.,.ADDED.,1778918758,#3,#4,1778918758);
#442=IFCPROPERTYSET('3JGAveCsvVF8e$8mr2e$n_',#441,'Pset_BuildFlowExhibitionElement',$,(#445,#446,#447));
#443=IFCOWNERHISTORY(#3,#4,.READWRITE.,.ADDED.,1778918758,#3,#4,1778918758);
#444=IFCRELDEFINESBYPROPERTIES('3EiVetIazM4fhq4CSsJuiH',#443,$,$,(#244),#442);
#445=IFCPROPERTYSINGLEVALUE('Description',$,IFCLABEL('Cash counter'),$);
#446=IFCPROPERTYSINGLEVALUE('Material',$,IFCLABEL('Oak Veneer'),$);
#447=IFCPROPERTYSINGLEVALUE('IsExhibitElement',$,IFCBOOLEAN(.F.),$);
#448=IFCOWNERHISTORY(#3,#4,.READWRITE.,.ADDED.,1778918758,#3,#4,1778918758);
#449=IFCPROPERTYSET('3Nx0P0KYDVpBGJEDGfk6uG',#448,'Pset_BuildFlowExhibitionElement',$,(#452,#453,#454));
#450=IFCOWNERHISTORY(#3,#4,.READWRITE.,.ADDED.,1778918758,#3,#4,1778918758);
#451=IFCRELDEFINESBYPROPERTIES('2DH2XUaqPI7PLq_8tVB5$$',#450,$,$,(#266),#449);
#452=IFCPROPERTYSINGLEVALUE('Description',$,IFCLABEL('Pendant light fixture'),$);
#453=IFCPROPERTYSINGLEVALUE('Material',$,IFCLABEL('Brushed Brass'),$);
#454=IFCPROPERTYSINGLEVALUE('IsExhibitElement',$,IFCBOOLEAN(.F.),$);
#455=IFCOWNERHISTORY(#3,#4,.READWRITE.,.ADDED.,1778918758,#3,#4,1778918758);
#456=IFCPROPERTYSET('123TTt$_PJKfjtHGUy$9Mc',#455,'Pset_BuildFlowExhibitionElement',$,(#459,#460,#461));
#457=IFCOWNERHISTORY(#3,#4,.READWRITE.,.ADDED.,1778918758,#3,#4,1778918758);
#458=IFCRELDEFINESBYPROPERTIES('2s4WFjEFPK_AFx5qxXe7dv',#457,$,$,(#287),#456);
#459=IFCPROPERTYSINGLEVALUE('Description',$,IFCLABEL('Pendant light fixture'),$);
#460=IFCPROPERTYSINGLEVALUE('Material',$,IFCLABEL('Brushed Brass'),$);
#461=IFCPROPERTYSINGLEVALUE('IsExhibitElement',$,IFCBOOLEAN(.F.),$);
#462=IFCOWNERHISTORY(#3,#4,.READWRITE.,.ADDED.,1778918758,#3,#4,1778918758);
#463=IFCPROPERTYSET('2EMC8Y2YPV8gyyIfIliw9j',#462,'Pset_BuildFlowExhibitionElement',$,(#466,#467,#468));
#464=IFCOWNERHISTORY(#3,#4,.READWRITE.,.ADDED.,1778918758,#3,#4,1778918758);
#465=IFCRELDEFINESBYPROPERTIES('2KUDpo031Nc8gKnDb6ChGr',#464,$,$,(#308),#463);
#466=IFCPROPERTYSINGLEVALUE('Description',$,IFCLABEL('Pendant light fixture'),$);
#467=IFCPROPERTYSINGLEVALUE('Material',$,IFCLABEL('Brushed Brass'),$);
#468=IFCPROPERTYSINGLEVALUE('IsExhibitElement',$,IFCBOOLEAN(.F.),$);
#469=IFCOWNERHISTORY(#3,#4,.READWRITE.,.ADDED.,1778918758,#3,#4,1778918758);
#470=IFCPROPERTYSET('290YPDvX1KRAcqJfX_TI_h',#469,'Pset_BuildFlowExhibitionElement',$,(#473,#474,#475));
#471=IFCOWNERHISTORY(#3,#4,.READWRITE.,.ADDED.,1778918758,#3,#4,1778918758);
#472=IFCRELDEFINESBYPROPERTIES('27rCCSsAjTfARCK6e3mZeY',#471,$,$,(#329),#470);
#473=IFCPROPERTYSINGLEVALUE('Description',$,IFCLABEL('Pendant light fixture'),$);
#474=IFCPROPERTYSINGLEVALUE('Material',$,IFCLABEL('Brushed Brass'),$);
#475=IFCPROPERTYSINGLEVALUE('IsExhibitElement',$,IFCBOOLEAN(.F.),$);
#476=IFCOWNERHISTORY(#3,#4,.READWRITE.,.ADDED.,1778918758,#3,#4,1778918758);
#477=IFCPROPERTYSET('2ZaJIVe3zUmRFDF$y1bqj2',#476,'Pset_BuildFlowExhibitionElement',$,(#480,#481,#482,#483));
#478=IFCOWNERHISTORY(#3,#4,.READWRITE.,.ADDED.,1778918758,#3,#4,1778918758);
#479=IFCRELDEFINESBYPROPERTIES('0hcAkjcS1VuPUyY7D0M0do',#478,$,$,(#350),#477);
#480=IFCPROPERTYSINGLEVALUE('Description',$,IFCLABEL('Brushed brass brand logo plaque'),$);
#481=IFCPROPERTYSINGLEVALUE('Material',$,IFCLABEL('Brushed Brass'),$);
#482=IFCPROPERTYSINGLEVALUE('Brand',$,IFCLABEL('BuildFlow Retail'),$);
#483=IFCPROPERTYSINGLEVALUE('IsExhibitElement',$,IFCBOOLEAN(.T.),$);
#484=IFCOWNERHISTORY(#3,#4,.READWRITE.,.ADDED.,1778918758,#3,#4,1778918758);
#485=IFCPROPERTYSET('2t5q$sUzvNc9KadxjaWvdB',#484,'Pset_BuildFlowExhibitionElement',$,(#488,#489,#490));
#486=IFCOWNERHISTORY(#3,#4,.READWRITE.,.ADDED.,1778918758,#3,#4,1778918758);
#487=IFCRELDEFINESBYPROPERTIES('1o85uRF61IAgOL3LMQzhHa',#486,$,$,(#371),#485);
#488=IFCPROPERTYSINGLEVALUE('Description',$,IFCLABEL('Price board above cash counter'),$);
#489=IFCPROPERTYSINGLEVALUE('Material',$,IFCLABEL('Dark Walnut Panel'),$);
#490=IFCPROPERTYSINGLEVALUE('IsExhibitElement',$,IFCBOOLEAN(.F.),$);
ENDSEC;
END-ISO-10303-21;
