ISO-10303-21;
HEADER;
FILE_DESCRIPTION(('ViewDefinition [CoordinationView]'),'2;1');
FILE_NAME('','2026-05-16T08:04:51',(''),(''),'IfcOpenShell 0.8.5-1c5b825','IfcOpenShell 0.8.5-1c5b825','');
FILE_SCHEMA(('IFC2X3'));
ENDSEC;
DATA;
#1=IFCPERSON('bf-v3-generator','BuildFlow','Generator',$,$,$,$,$);
#2=IFCORGANIZATION('buildflow','BuildFlow',$,$,$);
#3=IFCPERSONANDORGANIZATION(#1,#2,$);
#4=IFCAPPLICATION(#2,'3.0','BuildFlow Generator v3','buildflow-v3');
#5=IFCOWNERHISTORY(#3,#4,.READWRITE.,.ADDED.,1778918691,#3,#4,1778918691);
#6=IFCPROJECT('0pf5yy4xrKpv$c6WThSdGw',#5,'Small Office Cell',$,$,$,$,(#15),#10);
#7=IFCSIUNIT(*,.LENGTHUNIT.,.MILLI.,.METRE.);
#8=IFCSIUNIT(*,.AREAUNIT.,$,.SQUARE_METRE.);
#9=IFCSIUNIT(*,.VOLUMEUNIT.,$,.CUBIC_METRE.);
#10=IFCUNITASSIGNMENT((#7,#8,#9));
#11=IFCCARTESIANPOINT((0.,0.,0.));
#12=IFCDIRECTION((0.,0.,1.));
#13=IFCDIRECTION((1.,0.,0.));
#14=IFCAXIS2PLACEMENT3D(#11,#12,#13);
#15=IFCGEOMETRICREPRESENTATIONCONTEXT($,'Model',3,1.0000000000000001E-05,#14,$);
#16=IFCGEOMETRICREPRESENTATIONSUBCONTEXT('Body','Model',*,*,*,*,#15,$,.MODEL_VIEW.,$);
#17=IFCOWNERHISTORY(#3,#4,.READWRITE.,.MODIFIED.,1778918691,#3,#4,1778918691);
#18=IFCSITE('1i4pluRsfOthZHp72YxTZ9',#17,'Mumbai BKC',$,$,#33,$,$,.ELEMENT.,$,$,$,$,$);
#19=IFCOWNERHISTORY(#3,#4,.READWRITE.,.MODIFIED.,1778918691,#3,#4,1778918691);
#20=IFCBUILDING('1gf_KjPsHHNxASVkxElhai',#19,'Small Office Cell',$,$,#38,$,$,.ELEMENT.,$,$,$);
#21=IFCOWNERHISTORY(#3,#4,.READWRITE.,.MODIFIED.,1778918691,#3,#4,1778918691);
#22=IFCBUILDINGSTOREY('1ALemF0zrQzuKD6aruOUwM',#21,'Ground Floor',$,$,#43,$,$,.ELEMENT.,$);
#23=IFCOWNERHISTORY(#3,#4,.READWRITE.,.ADDED.,1778918691,#3,#4,1778918691);
#24=IFCRELAGGREGATES('2xrioviF1Oa8Ed9IPjH7Al',#23,$,$,#6,(#18));
#25=IFCOWNERHISTORY(#3,#4,.READWRITE.,.ADDED.,1778918691,#3,#4,1778918691);
#26=IFCRELAGGREGATES('0tav3Uwh5MGwfLukaWfiso',#25,$,$,#18,(#20));
#27=IFCOWNERHISTORY(#3,#4,.READWRITE.,.ADDED.,1778918691,#3,#4,1778918691);
#28=IFCRELAGGREGATES('2VH3veIkLP5vbMho0YiBO3',#27,$,$,#20,(#22));
#29=IFCCARTESIANPOINT((0.,0.,0.));
#30=IFCDIRECTION((0.,0.,1.));
#31=IFCDIRECTION((1.,0.,0.));
#32=IFCAXIS2PLACEMENT3D(#29,#30,#31);
#33=IFCLOCALPLACEMENT($,#32);
#34=IFCCARTESIANPOINT((0.,0.,0.));
#35=IFCDIRECTION((0.,0.,1.));
#36=IFCDIRECTION((1.,0.,0.));
#37=IFCAXIS2PLACEMENT3D(#34,#35,#36);
#38=IFCLOCALPLACEMENT(#33,#37);
#39=IFCCARTESIANPOINT((0.,0.,0.));
#40=IFCDIRECTION((0.,0.,1.));
#41=IFCDIRECTION((1.,0.,0.));
#42=IFCAXIS2PLACEMENT3D(#39,#40,#41);
#43=IFCLOCALPLACEMENT(#38,#42);
#44=IFCMATERIAL('Concrete');
#45=IFCSURFACESTYLE('Concrete Style',.BOTH.,(#46));
#46=IFCSURFACESTYLESHADING(#47);
#47=IFCCOLOURRGB('Concrete Colour',0.65000000000000002,0.65000000000000002,0.65000000000000002);
#48=IFCPRESENTATIONSTYLEASSIGNMENT((#45));
#49=IFCSTYLEDITEM($,(#48),'Concrete Style');
#50=IFCSTYLEDREPRESENTATION(#16,'Body',$,(#49));
#51=IFCMATERIALDEFINITIONREPRESENTATION($,$,(#50),#44);
#52=IFCMATERIAL('Painted Drywall');
#53=IFCSURFACESTYLE('Painted Drywall Style',.BOTH.,(#54));
#54=IFCSURFACESTYLESHADING(#55);
#55=IFCCOLOURRGB('Painted Drywall Colour',0.92000000000000004,0.92000000000000004,0.90000000000000002);
#56=IFCPRESENTATIONSTYLEASSIGNMENT((#53));
#57=IFCSTYLEDITEM($,(#56),'Painted Drywall Style');
#58=IFCSTYLEDREPRESENTATION(#16,'Body',$,(#57));
#59=IFCMATERIALDEFINITIONREPRESENTATION($,$,(#58),#52);
#60=IFCMATERIAL('Oak Veneer');
#61=IFCSURFACESTYLE('Oak Veneer Style',.BOTH.,(#62));
#62=IFCSURFACESTYLESHADING(#63);
#63=IFCCOLOURRGB('Oak Veneer Colour',0.71999999999999997,0.55000000000000004,0.34999999999999998);
#64=IFCPRESENTATIONSTYLEASSIGNMENT((#61));
#65=IFCSTYLEDITEM($,(#64),'Oak Veneer Style');
#66=IFCSTYLEDREPRESENTATION(#16,'Body',$,(#65));
#67=IFCMATERIALDEFINITIONREPRESENTATION($,$,(#66),#60);
#68=IFCMATERIAL('Brushed Aluminium');
#69=IFCSURFACESTYLE('Brushed Aluminium Style',.BOTH.,(#70));
#70=IFCSURFACESTYLESHADING(#71);
#71=IFCCOLOURRGB('Brushed Aluminium Colour',0.81999999999999995,0.81999999999999995,0.84999999999999998);
#72=IFCPRESENTATIONSTYLEASSIGNMENT((#69));
#73=IFCSTYLEDITEM($,(#72),'Brushed Aluminium Style');
#74=IFCSTYLEDREPRESENTATION(#16,'Body',$,(#73));
#75=IFCMATERIALDEFINITIONREPRESENTATION($,$,(#74),#68);
#76=IFCOWNERHISTORY(#3,#4,.READWRITE.,.ADDED.,1778918691,#3,#4,1778918691);
#77=IFCSPACE('0wNgoTRXjMXfKU_z34lg4V',#76,'SP-OFFICE',$,'Office Workstation',#93,#90,'Open-plan Office',.ELEMENT.,$,$);
#78=IFCCARTESIANPOINT((0.,0.));
#79=IFCCARTESIANPOINT((5.,0.));
#80=IFCCARTESIANPOINT((5.,5.));
#81=IFCCARTESIANPOINT((0.,5.));
#82=IFCCARTESIANPOINT((0.,0.));
#83=IFCPOLYLINE((#78,#79,#80,#81,#82));
#84=IFCARBITRARYCLOSEDPROFILEDEF(.AREA.,$,#83);
#85=IFCCARTESIANPOINT((0.,0.,0.));
#86=IFCAXIS2PLACEMENT3D(#85,$,$);
#87=IFCDIRECTION((0.,0.,1.));
#88=IFCEXTRUDEDAREASOLID(#84,#86,#87,2.7999999999999998);
#89=IFCSHAPEREPRESENTATION(#16,'Body','SweptSolid',(#88));
#90=IFCPRODUCTDEFINITIONSHAPE($,$,(#89));
#91=IFCCARTESIANPOINT((0.,0.,0.));
#92=IFCAXIS2PLACEMENT3D(#91,$,$);
#93=IFCLOCALPLACEMENT(#43,#92);
#94=IFCOWNERHISTORY(#3,#4,.READWRITE.,.MODIFIED.,1778918699,#3,#4,1778918699);
#95=IFCSLAB('0pf5yy4xrKpv$c6WThSdGw',#94,'SLAB-FLOOR',$,$,#116,#104,'SLAB-FLOOR',.FLOOR.);
#96=IFCCARTESIANPOINT((0.,0.));
#97=IFCAXIS2PLACEMENT2D(#96,$);
#98=IFCRECTANGLEPROFILEDEF(.AREA.,$,#97,5.,5.);
#99=IFCCARTESIANPOINT((0.,0.,0.));
#100=IFCAXIS2PLACEMENT3D(#99,$,$);
#101=IFCDIRECTION((0.,0.,1.));
#102=IFCEXTRUDEDAREASOLID(#98,#100,#101,0.20000000000000001);
#103=IFCSHAPEREPRESENTATION(#16,'Body','SweptSolid',(#102));
#104=IFCPRODUCTDEFINITIONSHAPE($,$,(#103));
#110=IFCOWNERHISTORY(#3,#4,.READWRITE.,.MODIFIED.,1778918709,#3,#4,1778918699);
#111=IFCRELCONTAINEDINSPATIALSTRUCTURE('1i4pluRsfOthZHp72YxTZ9',#110,$,$,(#181,#139,#202,#160,#371,#350,#307,#329,#286,#265,#244,#95,#223,#118,#392),#22);
#112=IFCCARTESIANPOINT((0.,0.,0.));
#113=IFCDIRECTION((0.,0.,1.));
#114=IFCDIRECTION((1.,0.,0.));
#115=IFCAXIS2PLACEMENT3D(#112,#113,#114);
#116=IFCLOCALPLACEMENT(#43,#115);
#117=IFCOWNERHISTORY(#3,#4,.READWRITE.,.MODIFIED.,1778918699,#3,#4,1778918699);
#118=IFCSLAB('1gf_KjPsHHNxASVkxElhai',#117,'SLAB-CEILING',$,$,#137,#127,'SLAB-CEILING',.FLOOR.);
#119=IFCCARTESIANPOINT((0.,0.));
#120=IFCAXIS2PLACEMENT2D(#119,$);
#121=IFCRECTANGLEPROFILEDEF(.AREA.,$,#120,5.,5.);
#122=IFCCARTESIANPOINT((0.,0.,0.));
#123=IFCAXIS2PLACEMENT3D(#122,$,$);
#124=IFCDIRECTION((0.,0.,1.));
#125=IFCEXTRUDEDAREASOLID(#121,#123,#124,0.14999999999999999);
#126=IFCSHAPEREPRESENTATION(#16,'Body','SweptSolid',(#125));
#127=IFCPRODUCTDEFINITIONSHAPE($,$,(#126));
#133=IFCCARTESIANPOINT((0.,0.,2.7999999999999998));
#134=IFCDIRECTION((0.,0.,1.));
#135=IFCDIRECTION((1.,0.,0.));
#136=IFCAXIS2PLACEMENT3D(#133,#134,#135);
#137=IFCLOCALPLACEMENT(#43,#136);
#138=IFCOWNERHISTORY(#3,#4,.READWRITE.,.MODIFIED.,1778918699,#3,#4,1778918699);
#139=IFCWALL('1ALemF0zrQzuKD6aruOUwM',#138,'WALL-N',$,$,#158,#148,'WALL-N');
#140=IFCCARTESIANPOINT((0.,0.));
#141=IFCAXIS2PLACEMENT2D(#140,$);
#142=IFCRECTANGLEPROFILEDEF(.AREA.,$,#141,5.,0.14999999999999999);
#143=IFCCARTESIANPOINT((0.,0.,0.));
#144=IFCAXIS2PLACEMENT3D(#143,$,$);
#145=IFCDIRECTION((0.,0.,1.));
#146=IFCEXTRUDEDAREASOLID(#142,#144,#145,2.7999999999999998);
#147=IFCSHAPEREPRESENTATION(#16,'Body','SweptSolid',(#146));
#148=IFCPRODUCTDEFINITIONSHAPE($,$,(#147));
#154=IFCCARTESIANPOINT((0.,5.,0.));
#155=IFCDIRECTION((0.,0.,1.));
#156=IFCDIRECTION((1.,0.,0.));
#157=IFCAXIS2PLACEMENT3D(#154,#155,#156);
#158=IFCLOCALPLACEMENT(#43,#157);
#159=IFCOWNERHISTORY(#3,#4,.READWRITE.,.MODIFIED.,1778918699,#3,#4,1778918699);
#160=IFCWALL('2xrioviF1Oa8Ed9IPjH7Al',#159,'WALL-S',$,$,#179,#169,'WALL-S');
#161=IFCCARTESIANPOINT((0.,0.));
#162=IFCAXIS2PLACEMENT2D(#161,$);
#163=IFCRECTANGLEPROFILEDEF(.AREA.,$,#162,5.,0.14999999999999999);
#164=IFCCARTESIANPOINT((0.,0.,0.));
#165=IFCAXIS2PLACEMENT3D(#164,$,$);
#166=IFCDIRECTION((0.,0.,1.));
#167=IFCEXTRUDEDAREASOLID(#163,#165,#166,2.7999999999999998);
#168=IFCSHAPEREPRESENTATION(#16,'Body','SweptSolid',(#167));
#169=IFCPRODUCTDEFINITIONSHAPE($,$,(#168));
#175=IFCCARTESIANPOINT((0.,0.,0.));
#176=IFCDIRECTION((0.,0.,1.));
#177=IFCDIRECTION((1.,0.,0.));
#178=IFCAXIS2PLACEMENT3D(#175,#176,#177);
#179=IFCLOCALPLACEMENT(#43,#178);
#180=IFCOWNERHISTORY(#3,#4,.READWRITE.,.MODIFIED.,1778918699,#3,#4,1778918699);
#181=IFCWALL('0tav3Uwh5MGwfLukaWfiso',#180,'WALL-E',$,$,#200,#190,'WALL-E');
#182=IFCCARTESIANPOINT((0.,0.));
#183=IFCAXIS2PLACEMENT2D(#182,$);
#184=IFCRECTANGLEPROFILEDEF(.AREA.,$,#183,0.14999999999999999,5.);
#185=IFCCARTESIANPOINT((0.,0.,0.));
#186=IFCAXIS2PLACEMENT3D(#185,$,$);
#187=IFCDIRECTION((0.,0.,1.));
#188=IFCEXTRUDEDAREASOLID(#184,#186,#187,2.7999999999999998);
#189=IFCSHAPEREPRESENTATION(#16,'Body','SweptSolid',(#188));
#190=IFCPRODUCTDEFINITIONSHAPE($,$,(#189));
#196=IFCCARTESIANPOINT((4.8499999999999996,0.,0.));
#197=IFCDIRECTION((0.,0.,1.));
#198=IFCDIRECTION((1.,0.,0.));
#199=IFCAXIS2PLACEMENT3D(#196,#197,#198);
#200=IFCLOCALPLACEMENT(#43,#199);
#201=IFCOWNERHISTORY(#3,#4,.READWRITE.,.MODIFIED.,1778918699,#3,#4,1778918699);
#202=IFCWALL('2VH3veIkLP5vbMho0YiBO3',#201,'WALL-W',$,$,#221,#211,'WALL-W');
#203=IFCCARTESIANPOINT((0.,0.));
#204=IFCAXIS2PLACEMENT2D(#203,$);
#205=IFCRECTANGLEPROFILEDEF(.AREA.,$,#204,0.14999999999999999,5.);
#206=IFCCARTESIANPOINT((0.,0.,0.));
#207=IFCAXIS2PLACEMENT3D(#206,$,$);
#208=IFCDIRECTION((0.,0.,1.));
#209=IFCEXTRUDEDAREASOLID(#205,#207,#208,2.7999999999999998);
#210=IFCSHAPEREPRESENTATION(#16,'Body','SweptSolid',(#209));
#211=IFCPRODUCTDEFINITIONSHAPE($,$,(#210));
#217=IFCCARTESIANPOINT((0.,0.,0.));
#218=IFCDIRECTION((0.,0.,1.));
#219=IFCDIRECTION((1.,0.,0.));
#220=IFCAXIS2PLACEMENT3D(#217,#218,#219);
#221=IFCLOCALPLACEMENT(#43,#220);
#222=IFCOWNERHISTORY(#3,#4,.READWRITE.,.MODIFIED.,1778918699,#3,#4,1778918699);
#223=IFCFURNISHINGELEMENT('0wNgoTRXjMXfKU_z34lg4V',#222,'DESK-RECEPTION',$,'Reception Desk',#242,#232,'DESK-RECEPTION');
#224=IFCCARTESIANPOINT((0.,0.));
#225=IFCAXIS2PLACEMENT2D(#224,$);
#226=IFCRECTANGLEPROFILEDEF(.AREA.,$,#225,1.6000000000000001,0.69999999999999996);
#227=IFCCARTESIANPOINT((0.,0.,0.));
#228=IFCAXIS2PLACEMENT3D(#227,$,$);
#229=IFCDIRECTION((0.,0.,1.));
#230=IFCEXTRUDEDAREASOLID(#226,#228,#229,0.75);
#231=IFCSHAPEREPRESENTATION(#16,'Body','SweptSolid',(#230));
#232=IFCPRODUCTDEFINITIONSHAPE($,$,(#231));
#238=IFCCARTESIANPOINT((0.29999999999999999,4.2999999999999998,0.));
#239=IFCDIRECTION((0.,0.,1.));
#240=IFCDIRECTION((1.,0.,0.));
#241=IFCAXIS2PLACEMENT3D(#238,#239,#240);
#242=IFCLOCALPLACEMENT(#43,#241);
#243=IFCOWNERHISTORY(#3,#4,.READWRITE.,.MODIFIED.,1778918699,#3,#4,1778918699);
#244=IFCFURNISHINGELEMENT('1JehoPcc5IEQDljBPODbm3',#243,'DESK-WS-01',$,'Workstation',#263,#253,'DESK-WS-01');
#245=IFCCARTESIANPOINT((0.,0.));
#246=IFCAXIS2PLACEMENT2D(#245,$);
#247=IFCRECTANGLEPROFILEDEF(.AREA.,$,#246,1.3999999999999999,0.69999999999999996);
#248=IFCCARTESIANPOINT((0.,0.,0.));
#249=IFCAXIS2PLACEMENT3D(#248,$,$);
#250=IFCDIRECTION((0.,0.,1.));
#251=IFCEXTRUDEDAREASOLID(#247,#249,#250,0.73999999999999999);
#252=IFCSHAPEREPRESENTATION(#16,'Body','SweptSolid',(#251));
#253=IFCPRODUCTDEFINITIONSHAPE($,$,(#252));
#259=IFCCARTESIANPOINT((0.5,0.5,0.));
#260=IFCDIRECTION((0.,0.,1.));
#261=IFCDIRECTION((1.,0.,0.));
#262=IFCAXIS2PLACEMENT3D(#259,#260,#261);
#263=IFCLOCALPLACEMENT(#43,#262);
#264=IFCOWNERHISTORY(#3,#4,.READWRITE.,.MODIFIED.,1778918699,#3,#4,1778918699);
#265=IFCFURNISHINGELEMENT('2lyOuwuFfRqB6vRqDXOY8w',#264,'DESK-WS-02',$,'Workstation',#284,#274,'DESK-WS-02');
#266=IFCCARTESIANPOINT((0.,0.));
#267=IFCAXIS2PLACEMENT2D(#266,$);
#268=IFCRECTANGLEPROFILEDEF(.AREA.,$,#267,1.3999999999999999,0.69999999999999996);
#269=IFCCARTESIANPOINT((0.,0.,0.));
#270=IFCAXIS2PLACEMENT3D(#269,$,$);
#271=IFCDIRECTION((0.,0.,1.));
#272=IFCEXTRUDEDAREASOLID(#268,#270,#271,0.73999999999999999);
#273=IFCSHAPEREPRESENTATION(#16,'Body','SweptSolid',(#272));
#274=IFCPRODUCTDEFINITIONSHAPE($,$,(#273));
#280=IFCCARTESIANPOINT((3.1000000000000001,0.5,0.));
#281=IFCDIRECTION((0.,0.,1.));
#282=IFCDIRECTION((1.,0.,0.));
#283=IFCAXIS2PLACEMENT3D(#280,#281,#282);
#284=IFCLOCALPLACEMENT(#43,#283);
#285=IFCOWNERHISTORY(#3,#4,.READWRITE.,.MODIFIED.,1778918699,#3,#4,1778918699);
#286=IFCFURNISHINGELEMENT('0S20Nf18zQauxYZ7c90Zh_',#285,'DESK-WS-03',$,'Workstation',#305,#295,'DESK-WS-03');
#287=IFCCARTESIANPOINT((0.,0.));
#288=IFCAXIS2PLACEMENT2D(#287,$);
#289=IFCRECTANGLEPROFILEDEF(.AREA.,$,#288,1.3999999999999999,0.69999999999999996);
#290=IFCCARTESIANPOINT((0.,0.,0.));
#291=IFCAXIS2PLACEMENT3D(#290,$,$);
#292=IFCDIRECTION((0.,0.,1.));
#293=IFCEXTRUDEDAREASOLID(#289,#291,#292,0.73999999999999999);
#294=IFCSHAPEREPRESENTATION(#16,'Body','SweptSolid',(#293));
#295=IFCPRODUCTDEFINITIONSHAPE($,$,(#294));
#301=IFCCARTESIANPOINT((0.5,2.,0.));
#302=IFCDIRECTION((0.,0.,1.));
#303=IFCDIRECTION((1.,0.,0.));
#304=IFCAXIS2PLACEMENT3D(#301,#302,#303);
#305=IFCLOCALPLACEMENT(#43,#304);
#306=IFCOWNERHISTORY(#3,#4,.READWRITE.,.MODIFIED.,1778918699,#3,#4,1778918699);
#307=IFCFURNISHINGELEMENT('2zc$FOVxnOnfI3IWH3c7nX',#306,'DESK-WS-04',$,'Workstation',#326,#316,'DESK-WS-04');
#308=IFCCARTESIANPOINT((0.,0.));
#309=IFCAXIS2PLACEMENT2D(#308,$);
#310=IFCRECTANGLEPROFILEDEF(.AREA.,$,#309,1.3999999999999999,0.69999999999999996);
#311=IFCCARTESIANPOINT((0.,0.,0.));
#312=IFCAXIS2PLACEMENT3D(#311,$,$);
#313=IFCDIRECTION((0.,0.,1.));
#314=IFCEXTRUDEDAREASOLID(#310,#312,#313,0.73999999999999999);
#315=IFCSHAPEREPRESENTATION(#16,'Body','SweptSolid',(#314));
#316=IFCPRODUCTDEFINITIONSHAPE($,$,(#315));
#322=IFCCARTESIANPOINT((3.1000000000000001,2.,0.));
#323=IFCDIRECTION((0.,0.,1.));
#324=IFCDIRECTION((1.,0.,0.));
#325=IFCAXIS2PLACEMENT3D(#322,#323,#324);
#326=IFCLOCALPLACEMENT(#43,#325);
#327=IFCOWNERHISTORY(#3,#4,.READWRITE.,.ADDED.,1778918699,#3,#4,1778918699);
#328=IFCOWNERHISTORY(#3,#4,.READWRITE.,.MODIFIED.,1778918709,#3,#4,1778918709);
#329=IFCBUILDINGELEMENTPROXY('0pf5yy4xrKpv$c6WThSdGw',#328,'LIGHT-01',$,'LED Panel',#348,#338,'LIGHT-01',.ELEMENT.);
#330=IFCCARTESIANPOINT((0.,0.));
#331=IFCAXIS2PLACEMENT2D(#330,$);
#332=IFCRECTANGLEPROFILEDEF(.AREA.,$,#331,0.59999999999999998,0.59999999999999998);
#333=IFCCARTESIANPOINT((0.,0.,0.));
#334=IFCAXIS2PLACEMENT3D(#333,$,$);
#335=IFCDIRECTION((0.,0.,1.));
#336=IFCEXTRUDEDAREASOLID(#332,#334,#335,0.050000000000000003);
#337=IFCSHAPEREPRESENTATION(#16,'Body','SweptSolid',(#336));
#338=IFCPRODUCTDEFINITIONSHAPE($,$,(#337));
#344=IFCCARTESIANPOINT((1.25,1.25,2.7000000000000002));
#345=IFCDIRECTION((0.,0.,1.));
#346=IFCDIRECTION((1.,0.,0.));
#347=IFCAXIS2PLACEMENT3D(#344,#345,#346);
#348=IFCLOCALPLACEMENT(#43,#347);
#349=IFCOWNERHISTORY(#3,#4,.READWRITE.,.MODIFIED.,1778918709,#3,#4,1778918709);
#350=IFCBUILDINGELEMENTPROXY('1i4pluRsfOthZHp72YxTZ9',#349,'LIGHT-02',$,'LED Panel',#369,#359,'LIGHT-02',.ELEMENT.);
#351=IFCCARTESIANPOINT((0.,0.));
#352=IFCAXIS2PLACEMENT2D(#351,$);
#353=IFCRECTANGLEPROFILEDEF(.AREA.,$,#352,0.59999999999999998,0.59999999999999998);
#354=IFCCARTESIANPOINT((0.,0.,0.));
#355=IFCAXIS2PLACEMENT3D(#354,$,$);
#356=IFCDIRECTION((0.,0.,1.));
#357=IFCEXTRUDEDAREASOLID(#353,#355,#356,0.050000000000000003);
#358=IFCSHAPEREPRESENTATION(#16,'Body','SweptSolid',(#357));
#359=IFCPRODUCTDEFINITIONSHAPE($,$,(#358));
#365=IFCCARTESIANPOINT((3.75,1.25,2.7000000000000002));
#366=IFCDIRECTION((0.,0.,1.));
#367=IFCDIRECTION((1.,0.,0.));
#368=IFCAXIS2PLACEMENT3D(#365,#366,#367);
#369=IFCLOCALPLACEMENT(#43,#368);
#370=IFCOWNERHISTORY(#3,#4,.READWRITE.,.MODIFIED.,1778918709,#3,#4,1778918709);
#371=IFCBUILDINGELEMENTPROXY('1gf_KjPsHHNxASVkxElhai',#370,'LIGHT-03',$,'LED Panel',#390,#380,'LIGHT-03',.ELEMENT.);
#372=IFCCARTESIANPOINT((0.,0.));
#373=IFCAXIS2PLACEMENT2D(#372,$);
#374=IFCRECTANGLEPROFILEDEF(.AREA.,$,#373,0.59999999999999998,0.59999999999999998);
#375=IFCCARTESIANPOINT((0.,0.,0.));
#376=IFCAXIS2PLACEMENT3D(#375,$,$);
#377=IFCDIRECTION((0.,0.,1.));
#378=IFCEXTRUDEDAREASOLID(#374,#376,#377,0.050000000000000003);
#379=IFCSHAPEREPRESENTATION(#16,'Body','SweptSolid',(#378));
#380=IFCPRODUCTDEFINITIONSHAPE($,$,(#379));
#386=IFCCARTESIANPOINT((1.25,3.75,2.7000000000000002));
#387=IFCDIRECTION((0.,0.,1.));
#388=IFCDIRECTION((1.,0.,0.));
#389=IFCAXIS2PLACEMENT3D(#386,#387,#388);
#390=IFCLOCALPLACEMENT(#43,#389);
#391=IFCOWNERHISTORY(#3,#4,.READWRITE.,.MODIFIED.,1778918709,#3,#4,1778918709);
#392=IFCBUILDINGELEMENTPROXY('1ALemF0zrQzuKD6aruOUwM',#391,'LIGHT-04',$,'LED Panel',#411,#401,'LIGHT-04',.ELEMENT.);
#393=IFCCARTESIANPOINT((0.,0.));
#394=IFCAXIS2PLACEMENT2D(#393,$);
#395=IFCRECTANGLEPROFILEDEF(.AREA.,$,#394,0.59999999999999998,0.59999999999999998);
#396=IFCCARTESIANPOINT((0.,0.,0.));
#397=IFCAXIS2PLACEMENT3D(#396,$,$);
#398=IFCDIRECTION((0.,0.,1.));
#399=IFCEXTRUDEDAREASOLID(#395,#397,#398,0.050000000000000003);
#400=IFCSHAPEREPRESENTATION(#16,'Body','SweptSolid',(#399));
#401=IFCPRODUCTDEFINITIONSHAPE($,$,(#400));
#407=IFCCARTESIANPOINT((3.75,3.75,2.7000000000000002));
#408=IFCDIRECTION((0.,0.,1.));
#409=IFCDIRECTION((1.,0.,0.));
#410=IFCAXIS2PLACEMENT3D(#407,#408,#409);
#411=IFCLOCALPLACEMENT(#43,#410);
#412=IFCOWNERHISTORY(#3,#4,.READWRITE.,.ADDED.,1778918716,#3,#4,1778918716);
#413=IFCPROPERTYSET('0pf5yy4xrKpv$c6WThSdGw',#412,'Pset_BuildFlowExhibitionElement',$,(#416,#417,#418,#419));
#414=IFCOWNERHISTORY(#3,#4,.READWRITE.,.ADDED.,1778918716,#3,#4,1778918716);
#415=IFCRELDEFINESBYPROPERTIES('1i4pluRsfOthZHp72YxTZ9',#414,$,$,(#95),#413);
#416=IFCPROPERTYSINGLEVALUE('Description',$,IFCLABEL('Floor slab'),$);
#417=IFCPROPERTYSINGLEVALUE('Material',$,IFCLABEL('Concrete'),$);
#418=IFCPROPERTYSINGLEVALUE('IsExhibitElement',$,IFCBOOLEAN(.F.),$);
#419=IFCPROPERTYSINGLEVALUE('Brand',$,IFCLABEL('BuildFlow Small Office'),$);
#420=IFCOWNERHISTORY(#3,#4,.READWRITE.,.ADDED.,1778918716,#3,#4,1778918716);
#421=IFCPROPERTYSET('1gf_KjPsHHNxASVkxElhai',#420,'Pset_BuildFlowExhibitionElement',$,(#424,#425,#426,#427));
#422=IFCOWNERHISTORY(#3,#4,.READWRITE.,.ADDED.,1778918716,#3,#4,1778918716);
#423=IFCRELDEFINESBYPROPERTIES('1ALemF0zrQzuKD6aruOUwM',#422,$,$,(#118),#421);
#424=IFCPROPERTYSINGLEVALUE('Description',$,IFCLABEL('Ceiling slab'),$);
#425=IFCPROPERTYSINGLEVALUE('Material',$,IFCLABEL('Concrete'),$);
#426=IFCPROPERTYSINGLEVALUE('IsExhibitElement',$,IFCBOOLEAN(.F.),$);
#427=IFCPROPERTYSINGLEVALUE('Brand',$,IFCLABEL('BuildFlow Small Office'),$);
#428=IFCOWNERHISTORY(#3,#4,.READWRITE.,.ADDED.,1778918716,#3,#4,1778918716);
#429=IFCPROPERTYSET('2xrioviF1Oa8Ed9IPjH7Al',#428,'Pset_BuildFlowExhibitionElement',$,(#432,#433,#434,#435));
#430=IFCOWNERHISTORY(#3,#4,.READWRITE.,.ADDED.,1778918716,#3,#4,1778918716);
#431=IFCRELDEFINESBYPROPERTIES('0tav3Uwh5MGwfLukaWfiso',#430,$,$,(#139),#429);
#432=IFCPROPERTYSINGLEVALUE('Description',$,IFCLABEL('North wall'),$);
#433=IFCPROPERTYSINGLEVALUE('Material',$,IFCLABEL('Painted Drywall'),$);
#434=IFCPROPERTYSINGLEVALUE('IsExhibitElement',$,IFCBOOLEAN(.F.),$);
#435=IFCPROPERTYSINGLEVALUE('Brand',$,IFCLABEL('BuildFlow Small Office'),$);
#436=IFCOWNERHISTORY(#3,#4,.READWRITE.,.ADDED.,1778918716,#3,#4,1778918716);
#437=IFCPROPERTYSET('2VH3veIkLP5vbMho0YiBO3',#436,'Pset_BuildFlowExhibitionElement',$,(#440,#441,#442,#443));
#438=IFCOWNERHISTORY(#3,#4,.READWRITE.,.ADDED.,1778918716,#3,#4,1778918716);
#439=IFCRELDEFINESBYPROPERTIES('0wNgoTRXjMXfKU_z34lg4V',#438,$,$,(#160),#437);
#440=IFCPROPERTYSINGLEVALUE('Description',$,IFCLABEL('South wall'),$);
#441=IFCPROPERTYSINGLEVALUE('Material',$,IFCLABEL('Painted Drywall'),$);
#442=IFCPROPERTYSINGLEVALUE('IsExhibitElement',$,IFCBOOLEAN(.F.),$);
#443=IFCPROPERTYSINGLEVALUE('Brand',$,IFCLABEL('BuildFlow Small Office'),$);
#444=IFCOWNERHISTORY(#3,#4,.READWRITE.,.ADDED.,1778918716,#3,#4,1778918716);
#445=IFCPROPERTYSET('1JehoPcc5IEQDljBPODbm3',#444,'Pset_BuildFlowExhibitionElement',$,(#448,#449,#450,#451));
#446=IFCOWNERHISTORY(#3,#4,.READWRITE.,.ADDED.,1778918716,#3,#4,1778918716);
#447=IFCRELDEFINESBYPROPERTIES('2lyOuwuFfRqB6vRqDXOY8w',#446,$,$,(#181),#445);
#448=IFCPROPERTYSINGLEVALUE('Description',$,IFCLABEL('East wall'),$);
#449=IFCPROPERTYSINGLEVALUE('Material',$,IFCLABEL('Painted Drywall'),$);
#450=IFCPROPERTYSINGLEVALUE('IsExhibitElement',$,IFCBOOLEAN(.F.),$);
#451=IFCPROPERTYSINGLEVALUE('Brand',$,IFCLABEL('BuildFlow Small Office'),$);
#452=IFCOWNERHISTORY(#3,#4,.READWRITE.,.ADDED.,1778918716,#3,#4,1778918716);
#453=IFCPROPERTYSET('0S20Nf18zQauxYZ7c90Zh_',#452,'Pset_BuildFlowExhibitionElement',$,(#456,#457,#458,#459));
#454=IFCOWNERHISTORY(#3,#4,.READWRITE.,.ADDED.,1778918716,#3,#4,1778918716);
#455=IFCRELDEFINESBYPROPERTIES('2zc$FOVxnOnfI3IWH3c7nX',#454,$,$,(#202),#453);
#456=IFCPROPERTYSINGLEVALUE('Description',$,IFCLABEL('West wall'),$);
#457=IFCPROPERTYSINGLEVALUE('Material',$,IFCLABEL('Painted Drywall'),$);
#458=IFCPROPERTYSINGLEVALUE('IsExhibitElement',$,IFCBOOLEAN(.F.),$);
#459=IFCPROPERTYSINGLEVALUE('Brand',$,IFCLABEL('BuildFlow Small Office'),$);
#460=IFCOWNERHISTORY(#3,#4,.READWRITE.,.ADDED.,1778918716,#3,#4,1778918716);
#461=IFCPROPERTYSET('2OZA1yEubNWRlhHZy$GMFO',#460,'Pset_BuildFlowExhibitionElement',$,(#464,#465,#466,#467));
#462=IFCOWNERHISTORY(#3,#4,.READWRITE.,.ADDED.,1778918716,#3,#4,1778918716);
#463=IFCRELDEFINESBYPROPERTIES('3cGw1i6e1PbODCo0vb6lQv',#462,$,$,(#223),#461);
#464=IFCPROPERTYSINGLEVALUE('Description',$,IFCLABEL('Reception desk'),$);
#465=IFCPROPERTYSINGLEVALUE('Material',$,IFCLABEL('Oak Veneer'),$);
#466=IFCPROPERTYSINGLEVALUE('IsExhibitElement',$,IFCBOOLEAN(.F.),$);
#467=IFCPROPERTYSINGLEVALUE('Brand',$,IFCLABEL('BuildFlow Small Office'),$);
#468=IFCOWNERHISTORY(#3,#4,.READWRITE.,.ADDED.,1778918716,#3,#4,1778918716);
#469=IFCPROPERTYSET('3JGAveCsvVF8e$8mr2e$n_',#468,'Pset_BuildFlowExhibitionElement',$,(#472,#473,#474,#475));
#470=IFCOWNERHISTORY(#3,#4,.READWRITE.,.ADDED.,1778918716,#3,#4,1778918716);
#471=IFCRELDEFINESBYPROPERTIES('3EiVetIazM4fhq4CSsJuiH',#470,$,$,(#244),#469);
#472=IFCPROPERTYSINGLEVALUE('Description',$,IFCLABEL('Workstation 1'),$);
#473=IFCPROPERTYSINGLEVALUE('Material',$,IFCLABEL('Oak Veneer'),$);
#474=IFCPROPERTYSINGLEVALUE('IsExhibitElement',$,IFCBOOLEAN(.F.),$);
#475=IFCPROPERTYSINGLEVALUE('Brand',$,IFCLABEL('BuildFlow Small Office'),$);
#476=IFCOWNERHISTORY(#3,#4,.READWRITE.,.ADDED.,1778918716,#3,#4,1778918716);
#477=IFCPROPERTYSET('3Nx0P0KYDVpBGJEDGfk6uG',#476,'Pset_BuildFlowExhibitionElement',$,(#480,#481,#482,#483));
#478=IFCOWNERHISTORY(#3,#4,.READWRITE.,.ADDED.,1778918716,#3,#4,1778918716);
#479=IFCRELDEFINESBYPROPERTIES('2DH2XUaqPI7PLq_8tVB5$$',#478,$,$,(#265),#477);
#480=IFCPROPERTYSINGLEVALUE('Description',$,IFCLABEL('Workstation 2'),$);
#481=IFCPROPERTYSINGLEVALUE('Material',$,IFCLABEL('Oak Veneer'),$);
#482=IFCPROPERTYSINGLEVALUE('IsExhibitElement',$,IFCBOOLEAN(.F.),$);
#483=IFCPROPERTYSINGLEVALUE('Brand',$,IFCLABEL('BuildFlow Small Office'),$);
#484=IFCOWNERHISTORY(#3,#4,.READWRITE.,.ADDED.,1778918716,#3,#4,1778918716);
#485=IFCPROPERTYSET('123TTt$_PJKfjtHGUy$9Mc',#484,'Pset_BuildFlowExhibitionElement',$,(#488,#489,#490,#491));
#486=IFCOWNERHISTORY(#3,#4,.READWRITE.,.ADDED.,1778918716,#3,#4,1778918716);
#487=IFCRELDEFINESBYPROPERTIES('2s4WFjEFPK_AFx5qxXe7dv',#486,$,$,(#286),#485);
#488=IFCPROPERTYSINGLEVALUE('Description',$,IFCLABEL('Workstation 3'),$);
#489=IFCPROPERTYSINGLEVALUE('Material',$,IFCLABEL('Oak Veneer'),$);
#490=IFCPROPERTYSINGLEVALUE('IsExhibitElement',$,IFCBOOLEAN(.F.),$);
#491=IFCPROPERTYSINGLEVALUE('Brand',$,IFCLABEL('BuildFlow Small Office'),$);
#492=IFCOWNERHISTORY(#3,#4,.READWRITE.,.ADDED.,1778918716,#3,#4,1778918716);
#493=IFCPROPERTYSET('2EMC8Y2YPV8gyyIfIliw9j',#492,'Pset_BuildFlowExhibitionElement',$,(#496,#497,#498,#499));
#494=IFCOWNERHISTORY(#3,#4,.READWRITE.,.ADDED.,1778918716,#3,#4,1778918716);
#495=IFCRELDEFINESBYPROPERTIES('2KUDpo031Nc8gKnDb6ChGr',#494,$,$,(#307),#493);
#496=IFCPROPERTYSINGLEVALUE('Description',$,IFCLABEL('Workstation 4'),$);
#497=IFCPROPERTYSINGLEVALUE('Material',$,IFCLABEL('Oak Veneer'),$);
#498=IFCPROPERTYSINGLEVALUE('IsExhibitElement',$,IFCBOOLEAN(.F.),$);
#499=IFCPROPERTYSINGLEVALUE('Brand',$,IFCLABEL('BuildFlow Small Office'),$);
#500=IFCOWNERHISTORY(#3,#4,.READWRITE.,.ADDED.,1778918716,#3,#4,1778918716);
#501=IFCPROPERTYSET('290YPDvX1KRAcqJfX_TI_h',#500,'Pset_BuildFlowExhibitionElement',$,(#504,#505,#506,#507));
#502=IFCOWNERHISTORY(#3,#4,.READWRITE.,.ADDED.,1778918716,#3,#4,1778918716);
#503=IFCRELDEFINESBYPROPERTIES('27rCCSsAjTfARCK6e3mZeY',#502,$,$,(#329),#501);
#504=IFCPROPERTYSINGLEVALUE('Description',$,IFCLABEL('Ceiling LED panel SW'),$);
#505=IFCPROPERTYSINGLEVALUE('Material',$,IFCLABEL('Brushed Aluminium'),$);
#506=IFCPROPERTYSINGLEVALUE('IsExhibitElement',$,IFCBOOLEAN(.F.),$);
#507=IFCPROPERTYSINGLEVALUE('Brand',$,IFCLABEL('BuildFlow Small Office'),$);
#508=IFCOWNERHISTORY(#3,#4,.READWRITE.,.ADDED.,1778918716,#3,#4,1778918716);
#509=IFCPROPERTYSET('2ZaJIVe3zUmRFDF$y1bqj2',#508,'Pset_BuildFlowExhibitionElement',$,(#512,#513,#514,#515));
#510=IFCOWNERHISTORY(#3,#4,.READWRITE.,.ADDED.,1778918716,#3,#4,1778918716);
#511=IFCRELDEFINESBYPROPERTIES('0hcAkjcS1VuPUyY7D0M0do',#510,$,$,(#350),#509);
#512=IFCPROPERTYSINGLEVALUE('Description',$,IFCLABEL('Ceiling LED panel SE'),$);
#513=IFCPROPERTYSINGLEVALUE('Material',$,IFCLABEL('Brushed Aluminium'),$);
#514=IFCPROPERTYSINGLEVALUE('IsExhibitElement',$,IFCBOOLEAN(.F.),$);
#515=IFCPROPERTYSINGLEVALUE('Brand',$,IFCLABEL('BuildFlow Small Office'),$);
#516=IFCOWNERHISTORY(#3,#4,.READWRITE.,.ADDED.,1778918716,#3,#4,1778918716);
#517=IFCPROPERTYSET('2t5q$sUzvNc9KadxjaWvdB',#516,'Pset_BuildFlowExhibitionElement',$,(#520,#521,#522,#523));
#518=IFCOWNERHISTORY(#3,#4,.READWRITE.,.ADDED.,1778918716,#3,#4,1778918716);
#519=IFCRELDEFINESBYPROPERTIES('1o85uRF61IAgOL3LMQzhHa',#518,$,$,(#371),#517);
#520=IFCPROPERTYSINGLEVALUE('Description',$,IFCLABEL('Ceiling LED panel NW'),$);
#521=IFCPROPERTYSINGLEVALUE('Material',$,IFCLABEL('Brushed Aluminium'),$);
#522=IFCPROPERTYSINGLEVALUE('IsExhibitElement',$,IFCBOOLEAN(.F.),$);
#523=IFCPROPERTYSINGLEVALUE('Brand',$,IFCLABEL('BuildFlow Small Office'),$);
#524=IFCOWNERHISTORY(#3,#4,.READWRITE.,.ADDED.,1778918716,#3,#4,1778918716);
#525=IFCPROPERTYSET('09cW1zZp1HuBsKqfeD_aFv',#524,'Pset_BuildFlowExhibitionElement',$,(#528,#529,#530,#531));
#526=IFCOWNERHISTORY(#3,#4,.READWRITE.,.ADDED.,1778918716,#3,#4,1778918716);
#527=IFCRELDEFINESBYPROPERTIES('2timhtVUfOzuhZamosKz4F',#526,$,$,(#392),#525);
#528=IFCPROPERTYSINGLEVALUE('Description',$,IFCLABEL('Ceiling LED panel NE'),$);
#529=IFCPROPERTYSINGLEVALUE('Material',$,IFCLABEL('Brushed Aluminium'),$);
#530=IFCPROPERTYSINGLEVALUE('IsExhibitElement',$,IFCBOOLEAN(.F.),$);
#531=IFCPROPERTYSINGLEVALUE('Brand',$,IFCLABEL('BuildFlow Small Office'),$);
ENDSEC;
END-ISO-10303-21;
